<svg width="32" height="32" viewBox="0 0 32 32" fill="none" xmlns="http://www.w3.org/2000/svg">
<path d="M6.33613 23.1153C7.43454 20.9048 8.0044 18.4694 8.00078 16.0011C7.99965 14.8017 8.26875 13.6173 8.78811 12.5361C9.30747 11.4549 10.0637 10.5046 11.0007 9.75579" stroke="#5528FF" stroke-width="2" stroke-linecap="round" stroke-linejoin="round"/>
<path d="M16.0008 16.0011C16.0071 20.0672 14.9755 24.0676 13.0038 27.6237" stroke="#5528FF" stroke-width="2" stroke-linecap="round" stroke-linejoin="round"/>
<path d="M12.0008 16.0011C12.0008 14.9403 12.4222 13.9228 13.1724 13.1727C13.9225 12.4226 14.9399 12.0011 16.0008 12.0011C17.0616 12.0011 18.0791 12.4226 18.8292 13.1727C19.5794 13.9228 20.0008 14.9403 20.0008 16.0011C20.0066 20.1241 19.0984 24.1971 17.3414 27.9269" stroke="#5528FF" stroke-width="2" stroke-linecap="round" stroke-linejoin="round"/>
<path d="M27.3206 23.0011C27.7741 20.6953 28.0019 18.3509 28.0007 16.0011C28.0007 12.8185 26.7364 9.76621 24.486 7.51577C22.2356 5.26533 19.1833 4.00105 16.0007 4.00105C12.8181 4.00105 9.76589 5.26533 7.51545 7.51577C5.26501 9.76621 4.00073 12.8185 4.00073 16.0011C4.00222 17.3635 3.7713 18.7163 3.3179 20.0011" stroke="#5528FF" stroke-width="2" stroke-linecap="round" stroke-linejoin="round"/>
<path d="M11.6007 20.0011C11.1738 22.1038 10.4091 24.1235 9.33638 25.9817" stroke="#5528FF" stroke-width="2" stroke-linecap="round" stroke-linejoin="round"/>
<path d="M15.0008 8.06303C16.1268 7.9222 17.2698 8.02233 18.3542 8.35679C19.4385 8.69124 20.4394 9.25239 21.2904 10.003C22.1415 10.7536 22.8232 11.6766 23.2905 12.7107C23.7578 13.7448 23.9999 14.8664 24.0008 16.0011C24.0011 17.3383 23.9184 18.6742 23.7532 20.0011" stroke="#5528FF" stroke-width="2" stroke-linecap="round" stroke-linejoin="round"/>
<path d="M22.9927 24.0011C22.8022 24.7409 22.5864 25.4701 22.345 26.1886" stroke="#5528FF" stroke-width="2" stroke-linecap="round" stroke-linejoin="round"/>
</svg>
