<svg width="32" height="32" viewBox="0 0 32 32" fill="none" xmlns="http://www.w3.org/2000/svg">
<path opacity="0.2" d="M11.6461 15.3541C10.8752 13.4313 10.7919 11.3013 11.4101 9.32419C12.0284 7.34705 13.3104 5.64401 15.0394 4.50296C16.7683 3.3619 18.8383 2.85281 20.8993 3.06174C22.9603 3.27067 24.8859 4.1848 26.3507 5.64961C27.8155 7.11443 28.7297 9.04008 28.9386 11.1011C29.1475 13.1621 28.6384 15.232 27.4973 16.961C26.3563 18.6899 24.6532 19.9719 22.6761 20.5902C20.699 21.2085 18.569 21.1251 16.6462 20.3542L16.6463 20.354L15.0003 22H12.0003V25H9.00031V28H4.00031V23L11.6463 15.354L11.6461 15.3541Z" fill="#5528FF"/>
<path d="M11.6461 15.3541C10.8752 13.4313 10.7919 11.3013 11.4101 9.32419C12.0284 7.34705 13.3104 5.64401 15.0394 4.50296C16.7683 3.3619 18.8383 2.85281 20.8993 3.06174C22.9603 3.27067 24.8859 4.1848 26.3507 5.64961C27.8155 7.11443 28.7297 9.04008 28.9386 11.1011C29.1475 13.1621 28.6384 15.232 27.4973 16.961C26.3563 18.6899 24.6532 19.9719 22.6761 20.5902C20.699 21.2085 18.569 21.1251 16.6462 20.3542L16.6463 20.354L15.0003 22H12.0003V25H9.00031V28H4.00031V23L11.6463 15.354L11.6461 15.3541Z" stroke="#5528FF" stroke-width="2" stroke-linecap="round" stroke-linejoin="round"/>
<path opacity="0.5" d="M22.5 10C22.7761 10 23 9.77614 23 9.5C23 9.22386 22.7761 9 22.5 9C22.2239 9 22 9.22386 22 9.5C22 9.77614 22.2239 10 22.5 10Z" stroke="#5528FF" stroke-width="2" stroke-linecap="round" stroke-linejoin="round"/>
<path d="M22.5 11C23.3284 11 24 10.3284 24 9.5C24 8.67157 23.3284 8 22.5 8C21.6716 8 21 8.67157 21 9.5C21 10.3284 21.6716 11 22.5 11Z" fill="#5528FF"/>
</svg>
