<svg width="32" height="32" viewBox="0 0 32 32" fill="none" xmlns="http://www.w3.org/2000/svg">
<path opacity="0.2" d="M28 7H20C18.9391 7.00001 17.9217 7.42144 17.1716 8.17158C16.4214 8.92172 16 9.93914 16 11C16 10.4747 15.8965 9.95457 15.6955 9.46926C15.4945 8.98396 15.1999 8.543 14.8284 8.17157C14.457 7.80013 14.016 7.5055 13.5307 7.30448C13.0454 7.10346 12.5253 7 12 7H4C3.86868 7 3.73864 7.02586 3.61732 7.07612C3.49599 7.12637 3.38575 7.20003 3.29289 7.29289C3.20003 7.38575 3.12637 7.49599 3.07612 7.61732C3.02586 7.73864 3 7.86868 3 8V24C3 24.1313 3.02586 24.2614 3.07612 24.3827C3.12637 24.504 3.20003 24.6143 3.29289 24.7071C3.38575 24.8 3.49599 24.8736 3.61732 24.9239C3.73864 24.9741 3.86868 25 4 25H12C12.5253 25 13.0454 25.1035 13.5307 25.3045C14.016 25.5055 14.457 25.8001 14.8284 26.1716C15.1999 26.543 15.4945 26.984 15.6955 27.4693C15.8965 27.9546 16 28.4747 16 29C16 27.9391 16.4214 26.9217 17.1716 26.1716C17.9217 25.4214 18.9391 25 20 25H28C28.1313 25 28.2614 24.9741 28.3827 24.9239C28.504 24.8736 28.6143 24.8 28.7071 24.7071C28.8 24.6143 28.8736 24.504 28.9239 24.3827C28.9741 24.2614 29 24.1313 29 24V8C29 7.86868 28.9741 7.73864 28.9239 7.61732C28.8736 7.49599 28.8 7.38575 28.7071 7.29289C28.6143 7.20003 28.504 7.12637 28.3827 7.07612C28.2614 7.02586 28.1313 7 28 7V7Z" fill="#5528FF"/>
<path d="M16 11C16 9.93913 16.4214 8.92172 17.1716 8.17157C17.9217 7.42143 18.9391 7 20 7H28C28.2652 7 28.5196 7.10536 28.7071 7.29289C28.8946 7.48043 29 7.73478 29 8V24C29 24.2652 28.8946 24.5196 28.7071 24.7071C28.5196 24.8946 28.2652 25 28 25H20C18.9391 25 17.9217 25.4214 17.1716 26.1716C16.4214 26.9217 16 27.9391 16 29" stroke="#5528FF" stroke-width="2" stroke-linecap="round" stroke-linejoin="round"/>
<path d="M3 24C3 24.2652 3.10536 24.5196 3.29289 24.7071C3.48043 24.8946 3.73478 25 4 25H12C13.0609 25 14.0783 25.4214 14.8284 26.1716C15.5786 26.9217 16 27.9391 16 29V11C16 9.93913 15.5786 8.92172 14.8284 8.17157C14.0783 7.42143 13.0609 7 12 7H4C3.73478 7 3.48043 7.10536 3.29289 7.29289C3.10536 7.48043 3 7.73478 3 8V24Z" stroke="#5528FF" stroke-width="2" stroke-linecap="round" stroke-linejoin="round"/>
</svg>
