<svg width="32" height="32" viewBox="0 0 32 32" fill="none" xmlns="http://www.w3.org/2000/svg">
<path opacity="0.2" d="M11 12C11.0148 11.6958 11.0454 11.3926 11.0916 11.0916C11.3926 11.0454 11.6958 11.0148 12 11C13.1819 11 14.3522 11.2328 15.4442 11.6851C16.5361 12.1374 17.5282 12.8003 18.364 13.636C19.1997 14.4718 19.8626 15.4639 20.3149 16.5558C20.7672 17.6478 21 18.8181 21 20C20.9852 20.3042 20.9546 20.6074 20.9084 20.9084C20.6074 20.9546 20.3042 20.9852 20 21C18.8181 21 17.6478 20.7672 16.5558 20.3149C15.4639 19.8626 14.4718 19.1997 13.636 18.364C12.8003 17.5282 12.1374 16.5361 11.6851 15.4442C11.2328 14.3522 11 13.1819 11 12V12Z" fill="#5528FF"/>
<path d="M12 11C16.9706 11 21 15.0294 21 20C21 24.9706 16.9706 29 12 29C7.02944 29 3 24.9706 3 20C3 15.0294 7.02944 11 12 11Z" stroke="#5528FF" stroke-width="2" stroke-linecap="round" stroke-linejoin="round"/>
<path d="M20 3C24.9706 3 29 7.02944 29 12C29 16.9706 24.9706 21 20 21C15.0294 21 11 16.9706 11 12C11 7.02944 15.0294 3 20 3Z" stroke="#5528FF" stroke-width="2" stroke-linecap="round" stroke-linejoin="round"/>
</svg>
