<svg width="32" height="32" viewBox="0 0 32 32" fill="none" xmlns="http://www.w3.org/2000/svg">
<path opacity="0.2" d="M16 4C13.5726 4.00002 11.2022 4.73622 9.20189 6.11139C7.20156 7.48656 5.66531 9.43604 4.79597 11.7025C3.92662 13.9689 3.76506 16.4457 4.33261 18.8058C4.90015 21.166 6.17013 23.2985 7.97486 24.9219V24.9217C8.72778 23.4405 9.87609 22.1966 11.2926 21.3279C12.709 20.4592 14.3384 19.9996 16 20C15.0111 20 14.0444 19.7068 13.2222 19.1573C12.3999 18.6079 11.759 17.827 11.3806 16.9134C11.0022 15.9998 10.9031 14.9945 11.0961 14.0245C11.289 13.0546 11.7652 12.1637 12.4645 11.4645C13.1637 10.7652 14.0546 10.289 15.0246 10.0961C15.9945 9.90315 16.9998 10.0022 17.9134 10.3806C18.8271 10.759 19.6079 11.3999 20.1574 12.2221C20.7068 13.0444 21 14.0111 21 15C21 16.3261 20.4732 17.5978 19.5355 18.5355C18.5979 19.4732 17.3261 20 16 20C17.6616 19.9996 19.291 20.4592 20.7074 21.3279C22.1239 22.1966 23.2722 23.4405 24.0251 24.9217C25.8299 23.2984 27.0998 21.1658 27.6674 18.8057C28.2349 16.4456 28.0734 13.9688 27.204 11.7024C26.3347 9.43597 24.7984 7.4865 22.7981 6.11134C20.7978 4.73618 18.4274 4.00001 16 4V4Z" fill="#5528FF"/>
<path d="M16 20C18.7614 20 21 17.7614 21 15C21 12.2386 18.7614 10 16 10C13.2386 10 11 12.2386 11 15C11 17.7614 13.2386 20 16 20Z" stroke="#5528FF" stroke-width="2" stroke-miterlimit="10"/>
<path d="M7.97488 24.9218C8.72815 23.4408 9.87653 22.1971 11.2929 21.3284C12.7093 20.4598 14.3384 20 16 20C17.6615 20 19.2907 20.4598 20.7071 21.3284C22.1234 22.1971 23.2718 23.4407 24.0251 24.9217" stroke="#5528FF" stroke-width="2" stroke-linecap="round" stroke-linejoin="round"/>
<path d="M22 7H28" stroke="#5528FF" stroke-width="2" stroke-linecap="round" stroke-linejoin="round"/>
<path d="M25 4V10" stroke="#5528FF" stroke-width="2" stroke-linecap="round" stroke-linejoin="round"/>
<path d="M27.8516 14.1072C28.2488 16.6079 27.844 19.1702 26.6952 21.4266C25.5465 23.6831 23.7127 25.5179 21.4569 26.6679C19.2011 27.8179 16.6391 28.2242 14.1381 27.8283C11.6372 27.4325 9.32586 26.255 7.53543 24.4646C5.745 22.6741 4.56747 20.3628 4.17165 17.8618C3.77584 15.3609 4.18207 12.7989 5.3321 10.5431C6.48214 8.28726 8.31692 6.45352 10.5734 5.30475C12.8298 4.15599 15.3921 3.75121 17.8928 4.14843" stroke="#5528FF" stroke-width="2" stroke-linecap="round" stroke-linejoin="round"/>
</svg>
