<svg width="32" height="32" viewBox="0 0 32 32" fill="none" xmlns="http://www.w3.org/2000/svg">
<path opacity="0.2" d="M4.99994 13.3333V6C4.99994 5.73478 5.1053 5.48043 5.29283 5.29289C5.48037 5.10536 5.73472 5 5.99994 5H25.9999C26.2652 5 26.5195 5.10536 26.707 5.29289C26.8946 5.48043 26.9999 5.73478 26.9999 6V13.3333C26.9999 23.8352 18.0867 27.3146 16.307 27.9047C16.108 27.9731 15.8919 27.9731 15.6929 27.9047C13.9132 27.3146 4.99994 23.8352 4.99994 13.3333Z" fill="#5528FF"/>
<path d="M4.99994 13.3333V6C4.99994 5.73478 5.1053 5.48043 5.29283 5.29289C5.48037 5.10536 5.73472 5 5.99994 5H25.9999C26.2652 5 26.5195 5.10536 26.707 5.29289C26.8946 5.48043 26.9999 5.73478 26.9999 6V13.3333C26.9999 23.8352 18.0867 27.3146 16.307 27.9047C16.108 27.9731 15.8919 27.9731 15.6929 27.9047C13.9132 27.3146 4.99994 23.8352 4.99994 13.3333Z" stroke="#5528FF" stroke-width="2" stroke-linecap="round" stroke-linejoin="round"/>
<path d="M15.9999 11V16" stroke="#5528FF" stroke-width="2" stroke-linecap="round" stroke-linejoin="round"/>
<path d="M16 22C16.8284 22 17.5 21.3284 17.5 20.5C17.5 19.6716 16.8284 19 16 19C15.1716 19 14.5 19.6716 14.5 20.5C14.5 21.3284 15.1716 22 16 22Z" fill="#5528FF"/>
</svg>
