<svg width="176" height="48" viewBox="0 0 176 48" fill="none" xmlns="http://www.w3.org/2000/svg">
<path d="M72.4172 28.5989H68.1447L67.3136 31.7861H64L68.8479 16.2139H71.714L76.5939 31.7861H73.2483L72.4172 28.5989ZM68.8266 25.9786H71.7247L70.2756 20.4278L68.8266 25.9786Z" fill="#FC6E83"/>
<path d="M82.4723 16.2139L85.4024 27.4759L88.3218 16.2139H92.4132V31.7861H89.27V27.5722L89.5577 21.0802L86.4572 31.7861H84.3262L81.2257 21.0802L81.5134 27.5722V31.7861H78.3809V16.2139H82.4723Z" fill="#FC6E83"/>
<path d="M106.187 25.4011C106.187 27.4902 105.693 29.1123 104.706 30.2674C103.726 31.4225 102.362 32 100.614 32C98.8741 32 97.5067 31.4296 96.5123 30.2888C95.5178 29.1408 95.0135 27.5365 94.9993 25.4759V22.8128C94.9993 20.6738 95.493 19.0053 96.4803 17.8075C97.4677 16.6025 98.8386 16 100.593 16C102.319 16 103.679 16.5918 104.674 17.7754C105.668 18.9519 106.173 20.6061 106.187 22.738V25.4011ZM103.044 22.7914C103.044 21.3868 102.845 20.3422 102.447 19.6578C102.049 18.9733 101.431 18.631 100.593 18.631C99.762 18.631 99.1475 18.9626 98.7498 19.6257C98.352 20.2816 98.146 21.2834 98.1318 22.631V25.4011C98.1318 26.7629 98.3342 27.7683 98.7391 28.4171C99.144 29.0588 99.7691 29.3797 100.614 29.3797C101.431 29.3797 102.039 29.066 102.436 28.4385C102.834 27.8039 103.037 26.8235 103.044 25.4973V22.7914Z" fill="#FC6E83"/>
<path d="M113.461 26.0963H111.905V31.7861H108.773V16.2139H113.77C115.34 16.2139 116.551 16.6239 117.403 17.4439C118.263 18.2567 118.692 19.4153 118.692 20.9198C118.692 22.9875 117.943 24.4349 116.444 25.262L119.161 31.6364V31.7861H115.794L113.461 26.0963ZM111.905 23.4759H113.685C114.31 23.4759 114.779 23.2692 115.091 22.8556C115.404 22.4349 115.56 21.8752 115.56 21.1765C115.56 19.615 114.953 18.8342 113.738 18.8342H111.905V23.4759Z" fill="#FC6E83"/>
<path d="M129.184 25.0481H124.305V29.1765H130.079V31.7861H121.172V16.2139H130.058V18.8342H124.305V22.5134H129.184V25.0481Z" fill="#FC6E83"/>
<path d="M137.268 27.508L139.879 16.2139H143.373L138.899 31.7861H135.638L131.195 16.2139H134.669L137.268 27.508Z" fill="#FC6E83"/>
<path d="M148.432 31.7861H145.299V16.2139H148.432V31.7861Z" fill="#FC6E83"/>
<path d="M162.237 31.7861H159.105L154.523 21.5722V31.7861H151.391V16.2139H154.523L159.115 26.4385V16.2139H162.237V31.7861Z" fill="#FC6E83"/>
<path d="M176 25.4011C176 27.4902 175.506 29.1123 174.519 30.2674C173.539 31.4225 172.175 32 170.428 32C168.687 32 167.32 31.4296 166.326 30.2888C165.331 29.1408 164.827 27.5365 164.813 25.4759V22.8128C164.813 20.6738 165.306 19.0053 166.294 17.8075C167.281 16.6025 168.652 16 170.406 16C172.132 16 173.493 16.5918 174.487 17.7754C175.481 18.9519 175.986 20.6061 176 22.738V25.4011ZM172.857 22.7914C172.857 21.3868 172.658 20.3422 172.26 19.6578C171.862 18.9733 171.244 18.631 170.406 18.631C169.575 18.631 168.961 18.9626 168.563 19.6257C168.165 20.2816 167.959 21.2834 167.945 22.631V25.4011C167.945 26.7629 168.147 27.7683 168.552 28.4171C168.957 29.0588 169.582 29.3797 170.428 29.3797C171.244 29.3797 171.852 29.066 172.25 28.4385C172.647 27.8039 172.85 26.8235 172.857 25.4973V22.7914Z" fill="#FC6E83"/>
<path fill-rule="evenodd" clip-rule="evenodd" d="M0 46.8V1.2C0 0.537258 0.537257 0 1.2 0H46.8C47.4627 0 48 0.537257 48 1.2V46.8C48 47.4627 47.4627 48 46.8 48H1.2C0.537258 48 0 47.4627 0 46.8ZM5.2 4.8H15.6C15.84 4.8 16 4.96 16 5.2V15.6C16 15.84 15.84 16 15.6 16H5.2C4.96 16 4.8 15.84 4.8 15.6V5.2C4.8 4.96 4.96 4.8 5.2 4.8ZM29.32 7.92L18.92 4.96C18.64 4.88 18.4 5.08 18.4 5.32V15.48C18.4 15.76 18.68 15.96 18.92 15.88L29.32 12.92C29.48 12.84 29.6 12.68 29.6 12.52V8.32C29.6 8.12 29.48 7.96 29.32 7.92ZM32.4 8.8H41.2C41.44 8.8 41.6 8.96 41.6 9.2V11.6C41.6 11.84 41.44 12 41.2 12H32.4C32.16 12 32 11.84 32 11.6V9.2C32 8.96 32.16 8.8 32.4 8.8ZM18.4 24C18.4 27.08 23.96 29.6 30.8 29.6C37.64 29.6 43.2 27.08 43.2 24C43.2 20.92 37.64 18.4 30.8 18.4C23.96 18.4 18.4 20.92 18.4 24ZM16.8 22.8V25.2C16.8 25.44 16.64 25.6 16.4 25.6H7.6C7.36 25.6 7.2 25.44 7.2 25.2V22.8C7.2 22.56 7.36 22.4 7.6 22.4H16.4C16.64 22.4 16.8 22.56 16.8 22.8ZM5.2 43.2H21.2C21.44 43.2 21.6 43.04 21.6 42.8V32.4C21.6 32.16 21.44 32 21.2 32H5.2C4.96 32 4.8 32.16 4.8 32.4V42.8C4.8 43.04 4.96 43.2 5.2 43.2ZM24 42.8V32.4C24 32.16 24.2 32 24.44 32C27.32 32.24 29.6 34.64 29.6 37.6C29.6 40.56 27.32 42.96 24.44 43.2C24.2 43.2 24 43.04 24 42.8ZM32.4 39.2H41.2C41.44 39.2 41.6 39.04 41.6 38.8V36.4C41.6 36.16 41.44 36 41.2 36H32.4C32.16 36 32 36.16 32 36.4V38.8C32 39.04 32.16 39.2 32.4 39.2Z" fill="#FC6E83"/>
<path d="M6.92893 10.4667L7.41696 9.935C9.14357 8.04667 10.2823 6.8 11.6799 6.8C12.8186 6.8 13.7133 7.68733 13.7133 8.81667C13.7133 9.45467 13.4139 10.067 12.9406 10.4667C13.4139 10.8663 13.7133 11.4787 13.7133 12.1167C13.7133 13.246 12.8186 14.1333 11.6799 14.1333C10.2823 14.1333 9.14357 12.8867 7.41327 10.9983L6.92893 10.4667Z" fill="#FC6E83"/>
</svg>
