<svg width="157" height="21" viewBox="0 0 157 21" fill="none" xmlns="http://www.w3.org/2000/svg">
<path d="M12.7069 9.42227C13.0622 10.3947 13.2398 11.5541 13.2398 12.9005C13.2398 14.1909 13.0809 15.3222 12.763 16.2946C12.3329 17.5663 11.6409 18.5667 10.6872 19.296C9.75221 20.0254 8.63955 20.39 7.34922 20.39C5.9841 20.39 4.90883 19.8757 4.12342 18.8472C4.08602 18.8098 4.04862 18.8005 4.01122 18.8192C3.97382 18.8192 3.95512 18.8472 3.95512 18.9033V19.829C3.95512 19.9225 3.91772 20.0067 3.84291 20.0815C3.78681 20.1376 3.71201 20.1656 3.61851 20.1656H0.336606C0.243104 20.1656 0.158953 20.1376 0.0841514 20.0815C0.0280504 20.0067 0 19.9225 0 19.829V0.86688C0 0.773378 0.0280504 0.698577 0.0841514 0.642475C0.158953 0.567674 0.243104 0.530273 0.336606 0.530273H3.61851C3.71201 0.530273 3.78681 0.567674 3.84291 0.642475C3.91772 0.698577 3.95512 0.773378 3.95512 0.86688V6.86968C3.95512 6.92578 3.97382 6.96318 4.01122 6.98188C4.04862 7.00058 4.08602 6.98188 4.12342 6.92578C4.85273 5.99077 5.8906 5.52326 7.23702 5.52326C8.60215 5.52326 9.74286 5.87856 10.6592 6.58918C11.5942 7.28109 12.2768 8.22545 12.7069 9.42227ZM8.5554 15.7897C8.9481 15.0791 9.14445 14.1441 9.14445 12.9847C9.14445 11.6944 8.92005 10.7032 8.47124 10.0113C8.02244 9.28202 7.35857 8.91737 6.47966 8.91737C5.65685 8.91737 5.03038 9.28202 4.60028 10.0113C4.18887 10.7219 3.98317 11.7037 3.98317 12.9566C3.98317 14.2096 4.17017 15.1539 4.54418 15.7897C4.99298 16.5938 5.6475 16.9959 6.50771 16.9959C7.42403 16.9959 8.10659 16.5938 8.5554 15.7897Z" fill="#416681"/>
<path d="M15.327 20.1656C15.2335 20.1656 15.1493 20.1376 15.0745 20.0815C15.0184 20.0067 14.9903 19.9225 14.9903 19.829V0.86688C14.9903 0.773378 15.0184 0.698577 15.0745 0.642475C15.1493 0.567674 15.2335 0.530273 15.327 0.530273H18.6089C18.7024 0.530273 18.7772 0.567674 18.8333 0.642475C18.9081 0.698577 18.9455 0.773378 18.9455 0.86688V19.829C18.9455 19.9225 18.9081 20.0067 18.8333 20.0815C18.7772 20.1376 18.7024 20.1656 18.6089 20.1656H15.327Z" fill="#416681"/>
<path d="M29.4122 6.08427C29.4122 5.99077 29.4403 5.91596 29.4964 5.85986C29.5712 5.78506 29.6553 5.74766 29.7488 5.74766H33.0307C33.1242 5.74766 33.199 5.78506 33.2551 5.85986C33.33 5.91596 33.3674 5.99077 33.3674 6.08427V19.829C33.3674 19.9225 33.33 20.0067 33.2551 20.0815C33.199 20.1376 33.1242 20.1656 33.0307 20.1656H29.7488C29.6553 20.1656 29.5712 20.1376 29.4964 20.0815C29.4403 20.0067 29.4122 19.9225 29.4122 19.829V18.8753C29.4122 18.8192 29.3935 18.7911 29.3561 18.7911C29.3187 18.7724 29.2813 18.7911 29.2439 18.8472C28.4959 19.857 27.3365 20.362 25.7657 20.362C24.3444 20.362 23.1757 19.9319 22.2594 19.0716C21.343 18.2114 20.8849 17.0053 20.8849 15.4531V6.08427C20.8849 5.99077 20.9129 5.91596 20.969 5.85986C21.0438 5.78506 21.128 5.74766 21.2215 5.74766H24.4754C24.5689 5.74766 24.6437 5.78506 24.6998 5.85986C24.7746 5.91596 24.812 5.99077 24.812 6.08427V14.4714C24.812 15.2194 25.0083 15.8271 25.401 16.2946C25.8124 16.7621 26.3734 16.9959 27.084 16.9959C27.7199 16.9959 28.2435 16.8089 28.6549 16.4349C29.0663 16.0422 29.3187 15.5373 29.4122 14.9202V6.08427Z" fill="#416681"/>
<path d="M48.2039 11.47C48.3161 12.1806 48.3535 12.9753 48.3161 13.8542C48.2974 14.0787 48.1758 14.1909 47.9514 14.1909H39.2838C39.1716 14.1909 39.1342 14.2376 39.1716 14.3311C39.2277 14.7051 39.3306 15.0791 39.4802 15.4531C39.9664 16.5003 40.9575 17.024 42.4535 17.024C43.6503 17.0053 44.5947 16.519 45.2866 15.5653C45.3614 15.4531 45.4456 15.397 45.5391 15.397C45.5952 15.397 45.6606 15.4344 45.7354 15.5092L47.7551 17.5008C47.8486 17.5943 47.8953 17.6785 47.8953 17.7533C47.8953 17.7907 47.8579 17.8655 47.7831 17.9777C47.166 18.7444 46.3712 19.3428 45.3988 19.7729C44.4264 20.1843 43.3605 20.39 42.2011 20.39C40.5928 20.39 39.2277 20.0254 38.1057 19.296C37.0024 18.5667 36.2076 17.5476 35.7214 16.2385C35.3287 15.3035 35.1323 14.0787 35.1323 12.5639C35.1323 11.5354 35.2726 10.6284 35.5531 9.84303C35.9832 8.51531 36.7312 7.45874 37.7971 6.67333C38.8818 5.88791 40.1627 5.49521 41.64 5.49521C43.5101 5.49521 45.0061 6.03752 46.1281 7.12213C47.2688 8.20675 47.9608 9.65603 48.2039 11.47ZM41.6681 8.91737C40.49 8.91737 39.7139 9.46902 39.3399 10.5723C39.2651 10.8154 39.1997 11.1147 39.1436 11.47C39.1436 11.5635 39.1903 11.6102 39.2838 11.6102H44.1365C44.2487 11.6102 44.2861 11.5635 44.2487 11.47C44.1552 10.9276 44.1085 10.6658 44.1085 10.6845C43.9402 10.1235 43.641 9.69343 43.2109 9.39422C42.7995 9.07632 42.2852 8.91737 41.6681 8.91737Z" fill="#416681"/>
<path d="M55.4707 20.362C54.2178 20.362 53.1238 20.1843 52.1888 19.829C51.2538 19.4737 50.5245 18.9781 50.0008 18.3423C49.4959 17.7065 49.2435 16.9866 49.2435 16.1824V15.9019C49.2435 15.8084 49.2715 15.7336 49.3276 15.6775C49.4024 15.6027 49.4866 15.5653 49.5801 15.5653H52.6937C52.7872 15.5653 52.862 15.6027 52.9181 15.6775C52.9929 15.7336 53.0303 15.8084 53.0303 15.9019V15.93C53.0303 16.3414 53.2547 16.6967 53.7035 16.9959C54.171 17.2764 54.7507 17.4167 55.4426 17.4167C56.0784 17.4167 56.5927 17.2951 56.9854 17.052C57.3781 16.7902 57.5745 16.4723 57.5745 16.0983C57.5745 15.7617 57.4062 15.5092 57.0696 15.3409C56.733 15.1726 56.1813 14.995 55.4146 14.808C54.5357 14.5836 53.8438 14.3685 53.3388 14.1628C52.142 13.7514 51.1883 13.2465 50.4777 12.6481C49.7671 12.0497 49.4118 11.1895 49.4118 10.0674C49.4118 8.68361 49.9447 7.58964 51.0107 6.78553C52.0953 5.96272 53.5259 5.55131 55.3024 5.55131C56.4992 5.55131 57.5464 5.74766 58.444 6.14037C59.3417 6.51437 60.0336 7.04733 60.5198 7.73924C61.0247 8.43116 61.2771 9.21657 61.2771 10.0955C61.2771 10.189 61.2397 10.2731 61.1649 10.3479C61.1088 10.404 61.034 10.4321 60.9405 10.4321H57.9391C57.8456 10.4321 57.7615 10.404 57.6867 10.3479C57.6306 10.2731 57.6025 10.189 57.6025 10.0955C57.6025 9.68408 57.3875 9.33812 56.9574 9.05762C56.546 8.77711 55.9943 8.63686 55.3024 8.63686C54.6853 8.63686 54.1804 8.74906 53.7877 8.97347C53.395 9.19787 53.1986 9.50642 53.1986 9.89913C53.1986 10.2731 53.3856 10.5536 53.7596 10.7406C54.1523 10.9276 54.7975 11.124 55.6951 11.3297C55.9008 11.3858 56.1345 11.4513 56.3964 11.5261C56.6582 11.5822 56.9387 11.657 57.2379 11.7505C58.5656 12.1432 59.6128 12.6481 60.3795 13.2652C61.1462 13.8823 61.5296 14.7799 61.5296 15.958C61.5296 17.3419 60.9779 18.4265 59.8746 19.2119C58.79 19.9786 57.322 20.362 55.4707 20.362Z" fill="#416681"/>
<path d="M72.5211 20.1656C72.3715 20.1656 72.2687 20.0908 72.2126 19.9412L68.2294 6.33671L68.2014 6.25256C68.2014 6.10296 68.2949 6.02816 68.4819 6.02816H69.4356C69.6039 6.02816 69.7067 6.11231 69.7441 6.28061L72.9699 17.9777C72.9886 18.0151 73.0073 18.0338 73.026 18.0338C73.0634 18.0338 73.0915 18.0151 73.1102 17.9777L76.364 6.25256C76.4014 6.10296 76.5043 6.02816 76.6726 6.02816H77.5422C77.6918 6.02816 77.7946 6.10296 77.8507 6.25256L81.1607 17.9496C81.1794 17.987 81.1981 18.0057 81.2168 18.0057C81.2542 18.0057 81.2822 17.987 81.3009 17.9496L84.5828 6.28061C84.6202 6.11231 84.7231 6.02816 84.8914 6.02816L85.8171 6.05621C85.9106 6.05621 85.9854 6.08426 86.0415 6.14036C86.0976 6.19646 86.1069 6.27126 86.0695 6.36476L82.0583 19.9412C82.0022 20.0908 81.8993 20.1656 81.7497 20.1656H80.796C80.6464 20.1656 80.5436 20.0908 80.4875 19.9412L77.1775 8.721C77.1588 8.6836 77.1308 8.6649 77.0934 8.6649C77.0747 8.6649 77.056 8.6836 77.0373 8.721L73.8114 19.9412C73.7553 20.0908 73.6525 20.1656 73.5029 20.1656H72.5211Z" fill="#A0AFB9"/>
<path d="M89.5219 3.19506C89.1105 3.19506 88.7739 3.06416 88.5121 2.80236C88.2503 2.54055 88.1194 2.20395 88.1194 1.79254C88.1194 1.38113 88.2503 1.04453 88.5121 0.782721C88.7739 0.520916 89.1105 0.390015 89.5219 0.390015C89.9333 0.390015 90.2699 0.520916 90.5317 0.782721C90.7935 1.04453 90.9244 1.38113 90.9244 1.79254C90.9244 2.20395 90.7935 2.54055 90.5317 2.80236C90.2699 3.06416 89.9333 3.19506 89.5219 3.19506ZM88.9889 20.1375C88.8019 20.1375 88.7084 20.044 88.7084 19.857V6.28061C88.7084 6.09361 88.8019 6.00011 88.9889 6.00011H89.9146C90.1016 6.00011 90.1951 6.09361 90.1951 6.28061V19.857C90.1951 20.044 90.1016 20.1375 89.9146 20.1375H88.9889Z" fill="#A0AFB9"/>
<path d="M99.7564 5.91596C100.392 5.91596 100.935 6.02816 101.383 6.25256C101.533 6.30866 101.589 6.43022 101.552 6.61722L101.299 7.51483C101.243 7.70184 101.122 7.75794 100.935 7.68314C100.56 7.53354 100.093 7.46808 99.532 7.48678C98.4848 7.50548 97.6152 7.90754 96.9233 8.69296C96.2501 9.45967 95.9135 10.404 95.9135 11.5261V19.8851C95.9135 20.0721 95.82 20.1656 95.633 20.1656H94.7073C94.5203 20.1656 94.4268 20.0721 94.4268 19.8851V6.30866C94.4268 6.12166 94.5203 6.02816 94.7073 6.02816H95.633C95.82 6.02816 95.9135 6.12166 95.9135 6.30866V8.2161C95.9135 8.2722 95.9228 8.3096 95.9415 8.3283C95.9789 8.3283 96.007 8.30025 96.0257 8.24415C96.4184 7.51483 96.9233 6.94448 97.5404 6.53307C98.1762 6.12166 98.9149 5.91596 99.7564 5.91596Z" fill="#A0AFB9"/>
<path d="M108.577 19.0716C109.456 19.0716 110.204 18.8753 110.821 18.4826C111.457 18.0712 111.952 17.5102 112.307 16.7995C112.401 16.6312 112.522 16.5845 112.672 16.6593L113.401 17.0239C113.57 17.1174 113.616 17.239 113.542 17.3886C113.13 18.3049 112.476 19.0342 111.578 19.5765C110.699 20.1188 109.661 20.39 108.465 20.39C107.155 20.39 106.043 20.0721 105.127 19.4363C104.21 18.8005 103.584 17.9309 103.247 16.8276C103.098 16.3601 102.995 15.8365 102.939 15.2568C102.882 14.6771 102.854 13.9477 102.854 13.0688C102.854 12.1525 102.864 11.4606 102.882 10.9931C102.92 10.5256 102.985 10.0955 103.079 9.70277C103.378 8.52465 103.986 7.58029 104.902 6.86967C105.837 6.15906 106.978 5.80376 108.324 5.80376C109.858 5.80376 111.083 6.20581 111.999 7.00993C112.915 7.79534 113.486 8.88931 113.71 10.2918C113.766 10.6471 113.803 11.0679 113.822 11.5541C113.841 12.0216 113.85 12.6107 113.85 13.3213C113.85 13.5083 113.757 13.6018 113.57 13.6018H104.425C104.35 13.6018 104.313 13.6392 104.313 13.714C104.313 14.9108 104.36 15.7056 104.453 16.0983C104.659 17.0146 105.117 17.7439 105.828 18.2862C106.557 18.8098 107.473 19.0716 108.577 19.0716ZM104.509 10.0394C104.416 10.3947 104.35 11.124 104.313 12.2273C104.313 12.3021 104.35 12.3395 104.425 12.3395H112.251C112.326 12.3395 112.364 12.3021 112.364 12.2273C112.364 11.2923 112.317 10.591 112.223 10.1235C112.018 9.22591 111.569 8.50595 110.877 7.96364C110.185 7.40263 109.334 7.12213 108.324 7.12213C107.314 7.12213 106.473 7.39328 105.8 7.93559C105.127 8.4592 104.696 9.16046 104.509 10.0394Z" fill="#A0AFB9"/>
<path d="M117.336 20.1656C117.149 20.1656 117.056 20.0721 117.056 19.8851V0.810771C117.056 0.623768 117.149 0.530267 117.336 0.530267H118.262C118.449 0.530267 118.542 0.623768 118.542 0.810771V19.8851C118.542 20.0721 118.449 20.1656 118.262 20.1656H117.336Z" fill="#A0AFB9"/>
<path d="M127.535 19.0716C128.414 19.0716 129.162 18.8753 129.779 18.4826C130.415 18.0712 130.91 17.5102 131.266 16.7995C131.359 16.6312 131.481 16.5845 131.63 16.6593L132.36 17.0239C132.528 17.1174 132.575 17.239 132.5 17.3886C132.088 18.3049 131.434 19.0342 130.536 19.5765C129.657 20.1188 128.62 20.39 127.423 20.39C126.114 20.39 125.001 20.0721 124.085 19.4363C123.168 18.8005 122.542 17.9309 122.205 16.8276C122.056 16.3601 121.953 15.8365 121.897 15.2568C121.841 14.6771 121.813 13.9477 121.813 13.0688C121.813 12.1525 121.822 11.4606 121.841 10.9931C121.878 10.5256 121.944 10.0955 122.037 9.70277C122.336 8.52465 122.944 7.58029 123.86 6.86967C124.795 6.15906 125.936 5.80376 127.282 5.80376C128.816 5.80376 130.041 6.20581 130.957 7.00993C131.873 7.79534 132.444 8.88931 132.668 10.2918C132.724 10.6471 132.762 11.0679 132.78 11.5541C132.799 12.0216 132.808 12.6107 132.808 13.3213C132.808 13.5083 132.715 13.6018 132.528 13.6018H123.383C123.309 13.6018 123.271 13.6392 123.271 13.714C123.271 14.9108 123.318 15.7056 123.411 16.0983C123.617 17.0146 124.075 17.7439 124.786 18.2862C125.515 18.8098 126.432 19.0716 127.535 19.0716ZM123.468 10.0394C123.374 10.3947 123.309 11.124 123.271 12.2273C123.271 12.3021 123.309 12.3395 123.383 12.3395H131.21C131.284 12.3395 131.322 12.3021 131.322 12.2273C131.322 11.2923 131.275 10.591 131.181 10.1235C130.976 9.22591 130.527 8.50595 129.835 7.96364C129.143 7.40263 128.292 7.12213 127.282 7.12213C126.273 7.12213 125.431 7.39328 124.758 7.93559C124.085 8.4592 123.655 9.16046 123.468 10.0394Z" fill="#A0AFB9"/>
<path d="M140.144 20.3058C139.134 20.3058 138.236 20.1469 137.451 19.829C136.684 19.4924 136.086 19.0436 135.656 18.4826C135.226 17.9216 135.011 17.3044 135.011 16.6312V16.2666C135.011 16.0796 135.104 15.9861 135.291 15.9861H136.161C136.348 15.9861 136.441 16.0796 136.441 16.2666V16.5751C136.441 17.267 136.787 17.8655 137.479 18.3704C138.171 18.8566 139.05 19.0997 140.116 19.0997C141.163 19.0997 142.014 18.8472 142.668 18.3423C143.323 17.8374 143.65 17.2109 143.65 16.4629C143.65 15.9393 143.482 15.5092 143.145 15.1726C142.809 14.836 142.407 14.5836 141.939 14.4152C141.49 14.2282 140.808 13.9945 139.891 13.714C138.844 13.3961 138.003 13.0969 137.367 12.8164C136.731 12.5359 136.189 12.1432 135.74 11.6383C135.31 11.1146 135.095 10.4601 135.095 9.67472C135.095 8.534 135.544 7.62704 136.441 6.95382C137.357 6.26191 138.554 5.91596 140.032 5.91596C141.023 5.91596 141.892 6.08426 142.64 6.42087C143.407 6.73877 143.996 7.17823 144.407 7.73924C144.838 8.30025 145.053 8.93606 145.053 9.64667V9.73082C145.053 9.91782 144.959 10.0113 144.772 10.0113H143.903C143.716 10.0113 143.622 9.91782 143.622 9.73082V9.64667C143.622 8.93606 143.285 8.347 142.612 7.87949C141.958 7.39328 141.088 7.15018 140.004 7.15018C138.956 7.15018 138.115 7.37458 137.479 7.82339C136.843 8.2535 136.525 8.84256 136.525 9.59057C136.525 10.3012 136.815 10.8341 137.395 11.1894C137.993 11.5448 138.919 11.9094 140.172 12.2834C141.256 12.6013 142.117 12.9005 142.752 13.181C143.407 13.4615 143.968 13.8636 144.436 14.3872C144.903 14.8921 145.137 15.556 145.137 16.3788C145.137 17.5569 144.679 18.5106 143.762 19.2399C142.865 19.9505 141.659 20.3058 140.144 20.3058Z" fill="#A0AFB9"/>
<path d="M151.924 20.3058C150.914 20.3058 150.016 20.1469 149.231 19.829C148.464 19.4924 147.866 19.0436 147.436 18.4826C147.006 17.9216 146.791 17.3044 146.791 16.6312V16.2666C146.791 16.0796 146.884 15.9861 147.071 15.9861H147.941C148.128 15.9861 148.221 16.0796 148.221 16.2666V16.5751C148.221 17.267 148.567 17.8655 149.259 18.3704C149.951 18.8566 150.83 19.0997 151.896 19.0997C152.943 19.0997 153.794 18.8472 154.448 18.3423C155.103 17.8374 155.43 17.2109 155.43 16.4629C155.43 15.9393 155.262 15.5092 154.925 15.1726C154.589 14.836 154.187 14.5836 153.719 14.4152C153.27 14.2282 152.588 13.9945 151.671 13.714C150.624 13.3961 149.783 13.0969 149.147 12.8164C148.511 12.5359 147.969 12.1432 147.52 11.6383C147.09 11.1146 146.875 10.4601 146.875 9.67472C146.875 8.534 147.324 7.62704 148.221 6.95382C149.138 6.26191 150.334 5.91596 151.812 5.91596C152.803 5.91596 153.672 6.08426 154.42 6.42087C155.187 6.73877 155.776 7.17823 156.188 7.73924C156.618 8.30025 156.833 8.93606 156.833 9.64667V9.73082C156.833 9.91782 156.739 10.0113 156.552 10.0113H155.683C155.496 10.0113 155.402 9.91782 155.402 9.73082V9.64667C155.402 8.93606 155.066 8.347 154.392 7.87949C153.738 7.39328 152.868 7.15018 151.784 7.15018C150.736 7.15018 149.895 7.37458 149.259 7.82339C148.623 8.2535 148.305 8.84256 148.305 9.59057C148.305 10.3012 148.595 10.8341 149.175 11.1894C149.773 11.5448 150.699 11.9094 151.952 12.2834C153.037 12.6013 153.897 12.9005 154.533 13.181C155.187 13.4615 155.748 13.8636 156.216 14.3872C156.683 14.8921 156.917 15.556 156.917 16.3788C156.917 17.5569 156.459 18.5106 155.542 19.2399C154.645 19.9505 153.439 20.3058 151.924 20.3058Z" fill="#A0AFB9"/>
</svg>
