<svg width="160" height="21" viewBox="0 0 160 21" fill="none" xmlns="http://www.w3.org/2000/svg">
<g clip-path="url(#clip0)">
<path d="M12.9009 9.46804C13.2292 10.5223 13.3933 11.6707 13.3933 12.9132C13.3933 14.2498 13.2099 15.4264 12.843 16.443C12.4181 17.6855 11.7326 18.6551 10.7864 19.3516C9.8402 20.0482 8.68158 20.3964 7.31054 20.3964C5.95882 20.3964 4.84847 19.8976 3.97951 18.8998C3.94089 18.8433 3.90226 18.8245 3.86364 18.8433C3.82502 18.8621 3.80571 18.8998 3.80571 18.9563V19.8317C3.80571 19.9258 3.76709 20.0105 3.68985 20.0858C3.63192 20.1423 3.55468 20.1705 3.45813 20.1705H0.793298C0.696747 20.1705 0.609847 20.1423 0.532606 20.0858C0.474675 20.0105 0.445709 19.9258 0.445709 19.8317V0.742265C0.445709 0.648133 0.474675 0.57283 0.532606 0.516352C0.609847 0.441048 0.696747 0.403397 0.793298 0.403397H3.45813C3.55468 0.403397 3.63192 0.441048 3.68985 0.516352C3.76709 0.57283 3.80571 0.648133 3.80571 0.742265V6.87007C3.80571 6.92655 3.82502 6.9642 3.86364 6.98303C3.90226 7.00185 3.94089 6.99244 3.97951 6.95479C4.80985 5.99468 5.91054 5.51462 7.28158 5.51462C8.71054 5.51462 9.88847 5.86289 10.8154 6.55945C11.7616 7.256 12.4567 8.22553 12.9009 9.46804ZM9.25123 16.2171C9.71468 15.4264 9.9464 14.3439 9.9464 12.9696C9.9464 11.5012 9.65675 10.3529 9.07744 9.52452C8.55606 8.73383 7.78364 8.33849 6.7602 8.33849C5.81399 8.33849 5.08985 8.75266 4.58778 9.58099C4.10502 10.3529 3.86364 11.473 3.86364 12.9414C3.86364 14.391 4.08571 15.4829 4.52985 16.2171C5.03192 17.1207 5.78502 17.5726 6.78916 17.5726C7.32985 17.5726 7.81261 17.4596 8.23744 17.2337C8.66227 16.989 9.0002 16.6501 9.25123 16.2171Z" fill="#c9c9c9"/>
<path d="M16.0752 20.1705C15.9786 20.1705 15.8917 20.1423 15.8145 20.0858C15.7565 20.0105 15.7276 19.9258 15.7276 19.8317V0.742265C15.7276 0.648133 15.7565 0.57283 15.8145 0.516352C15.8917 0.441048 15.9786 0.403397 16.0752 0.403397H18.74C18.8365 0.403397 18.9138 0.441048 18.9717 0.516352C19.0489 0.57283 19.0876 0.648133 19.0876 0.742265V19.8317C19.0876 19.9258 19.0489 20.0105 18.9717 20.0858C18.9138 20.1423 18.8365 20.1705 18.74 20.1705H16.0752Z" fill="#c9c9c9"/>
<path d="M30.5365 6.07947C30.5365 5.98534 30.5654 5.91003 30.6234 5.85356C30.7006 5.77825 30.7875 5.7406 30.884 5.7406H33.5199C33.6165 5.7406 33.6937 5.77825 33.7516 5.85356C33.8289 5.91003 33.8675 5.98534 33.8675 6.07947V19.8317C33.8675 19.9259 33.8289 20.0106 33.7516 20.0859C33.6937 20.1424 33.6165 20.1706 33.5199 20.1706H30.884C30.7875 20.1706 30.7006 20.1424 30.6234 20.0859C30.5654 20.0106 30.5365 19.9259 30.5365 19.8317V18.9281C30.5365 18.8716 30.5171 18.834 30.4785 18.8152C30.4399 18.7963 30.4013 18.8152 30.3627 18.8716C29.5709 19.8694 28.3834 20.3683 26.7999 20.3683C25.3323 20.3683 24.0965 19.9541 23.0923 19.1258C22.1075 18.2974 21.6151 17.1208 21.6151 15.5959V6.07947C21.6151 5.98534 21.644 5.91003 21.702 5.85356C21.7792 5.77825 21.8661 5.7406 21.9627 5.7406H24.6275C24.724 5.7406 24.8013 5.77825 24.8592 5.85356C24.9365 5.91003 24.9751 5.98534 24.9751 6.07947V14.6641C24.9751 15.5489 25.2068 16.2548 25.6703 16.782C26.153 17.3091 26.8192 17.5726 27.6689 17.5726C28.5378 17.5726 29.233 17.3091 29.7544 16.782C30.2758 16.2548 30.5365 15.5489 30.5365 14.6641V6.07947Z" fill="#c9c9c9"/>
<path d="M49.0746 11.3318C49.1519 11.8025 49.1905 12.3296 49.1905 12.9132L49.1615 13.7886C49.1615 14.0145 49.0457 14.1275 48.814 14.1275H39.7477C39.6512 14.1275 39.6029 14.1745 39.6029 14.2687C39.6609 14.8899 39.7477 15.3135 39.8636 15.5394C40.3271 16.8949 41.4567 17.582 43.2526 17.6009C44.5657 17.6009 45.6084 17.0737 46.3809 16.0195C46.4581 15.9065 46.5546 15.85 46.6705 15.85C46.7477 15.85 46.8153 15.8783 46.8733 15.9348L48.6691 17.3749C48.8429 17.5067 48.8719 17.6573 48.756 17.8268C48.1574 18.6551 47.356 19.2952 46.3519 19.747C45.3671 20.1988 44.2664 20.4247 43.0498 20.4247C41.5436 20.4247 40.2595 20.0953 39.1974 19.4364C38.1546 18.7775 37.3919 17.855 36.9091 16.669C36.465 15.6524 36.2429 14.2404 36.2429 12.4332C36.2429 11.3413 36.3588 10.4564 36.5905 9.77871C36.9767 8.4609 37.7009 7.42548 38.7629 6.67245C39.8443 5.90059 41.1381 5.51466 42.6443 5.51466C46.4484 5.51466 48.5919 7.45372 49.0746 11.3318ZM42.6443 8.33853C41.9298 8.33853 41.3312 8.51738 40.8484 8.87507C40.385 9.21394 40.0567 9.694 39.8636 10.3152C39.7477 10.6353 39.6705 11.0495 39.6319 11.5578C39.5933 11.6519 39.6319 11.6989 39.7477 11.6989H45.6277C45.7243 11.6989 45.7726 11.6519 45.7726 11.5578C45.734 11.0871 45.676 10.7294 45.5988 10.4847C45.425 9.80695 45.0774 9.27983 44.556 8.90331C44.054 8.52679 43.4167 8.33853 42.6443 8.33853Z" fill="#c9c9c9"/>
<path d="M56.6698 20.34C55.4532 20.34 54.3815 20.1706 53.4546 19.8317C52.547 19.474 51.8422 18.994 51.3401 18.3915C50.8381 17.7703 50.587 17.0831 50.587 16.3301V16.0759C50.587 15.9818 50.616 15.9065 50.6739 15.85C50.7512 15.7747 50.8381 15.7371 50.9346 15.7371H53.4836C53.5801 15.7371 53.6574 15.7747 53.7153 15.85C53.7925 15.9065 53.8312 15.9818 53.8312 16.0759V16.1324C53.8312 16.6031 54.0919 17.0172 54.6132 17.3749C55.1539 17.7138 55.8298 17.8832 56.6408 17.8832C57.4132 17.8832 58.0408 17.7326 58.5236 17.4314C59.0063 17.1114 59.2477 16.716 59.2477 16.2454C59.2477 15.8124 59.045 15.4923 58.6394 15.2853C58.2532 15.0593 57.616 14.824 56.7277 14.5793L55.627 14.2404C54.6422 13.958 53.8119 13.6568 53.136 13.3368C52.4601 13.0167 51.8905 12.5837 51.427 12.0378C50.9636 11.473 50.7319 10.7576 50.7319 9.89165C50.7319 8.57384 51.2629 7.529 52.325 6.75714C53.387 5.96646 54.787 5.57112 56.525 5.57112C57.7029 5.57112 58.736 5.75938 59.6243 6.1359C60.5125 6.49359 61.1981 7.00188 61.6808 7.66078C62.1636 8.30086 62.4049 9.03507 62.4049 9.86341C62.4049 9.95754 62.3663 10.0423 62.2891 10.1176C62.2312 10.174 62.1539 10.2023 62.0574 10.2023H59.5953C59.4987 10.2023 59.4118 10.174 59.3346 10.1176C59.2767 10.0423 59.2477 9.95754 59.2477 9.86341C59.2477 9.37394 58.9967 8.96918 58.4946 8.64914C58.0119 8.31028 57.3456 8.14084 56.496 8.14084C55.7429 8.14084 55.125 8.28204 54.6422 8.56443C54.1788 8.82799 53.947 9.20451 53.947 9.69398C53.947 10.1458 54.1691 10.4941 54.6132 10.7388C55.0767 10.9647 55.8394 11.2189 56.9015 11.5013L57.5387 11.6707C58.5622 11.9719 59.4215 12.2825 60.1167 12.6026C60.8118 12.9038 61.4008 13.3368 61.8836 13.9016C62.3663 14.4475 62.6077 15.1629 62.6077 16.0477C62.6077 17.3843 62.067 18.4386 60.9856 19.2105C59.9043 19.9635 58.4656 20.34 56.6698 20.34Z" fill="#c9c9c9"/>
<path d="M70.8758 20.1706C70.7213 20.1706 70.6151 20.0953 70.5572 19.9447L66.4441 6.19239L66.4151 6.10767C66.4151 5.95706 66.5117 5.88176 66.7048 5.88176H68.211C68.3848 5.88176 68.491 5.96648 68.5296 6.13591L71.6 17.262C71.6193 17.2996 71.6386 17.3185 71.6579 17.3185C71.6965 17.3185 71.7255 17.2996 71.7448 17.262L74.8731 6.13591C74.9117 5.96648 75.0179 5.88176 75.1917 5.88176H76.582C76.7558 5.88176 76.862 5.95706 76.9007 6.10767L80.0579 17.2337C80.0772 17.2714 80.1062 17.2902 80.1448 17.2902C80.1834 17.2902 80.2124 17.2714 80.2317 17.2337L83.389 6.13591C83.4276 5.96648 83.5338 5.88176 83.7076 5.88176L85.2138 5.91001C85.3103 5.91001 85.3779 5.93824 85.4165 5.99471C85.4745 6.05119 85.4938 6.1265 85.4745 6.22063L81.3034 19.9447C81.2455 20.0953 81.1393 20.1706 80.9848 20.1706H79.4496C79.2952 20.1706 79.1889 20.0953 79.131 19.9447L75.9738 9.38337C75.9545 9.34572 75.9255 9.32689 75.8869 9.32689C75.8676 9.32689 75.8483 9.34572 75.8289 9.38337L72.7586 19.9447C72.7007 20.0953 72.5945 20.1706 72.44 20.1706H70.8758Z" fill="#c9c9c9"/>
<path d="M88.942 3.2837C88.4786 3.2837 88.0924 3.13309 87.7834 2.83188C87.4745 2.53066 87.32 2.15415 87.32 1.70233C87.32 1.23168 87.4745 0.855163 87.7834 0.572778C88.0924 0.271563 88.4786 0.120956 88.942 0.120956C89.4055 0.120956 89.7917 0.271563 90.1006 0.572778C90.4096 0.855163 90.5641 1.23168 90.5641 1.70233C90.5641 2.15415 90.4096 2.53066 90.1006 2.83188C89.7917 3.13309 89.4055 3.2837 88.942 3.2837ZM88.131 20.1423C87.9379 20.1423 87.8414 20.0481 87.8414 19.8599V6.13582C87.8414 5.94756 87.9379 5.85343 88.131 5.85343H89.6082C89.8013 5.85343 89.8979 5.94756 89.8979 6.13582V19.8599C89.8979 20.0481 89.8013 20.1423 89.6082 20.1423H88.131Z" fill="#c9c9c9"/>
<path d="M99.6848 5.74054C100.322 5.74054 100.872 5.86291 101.336 6.10764C101.49 6.18295 101.548 6.30532 101.51 6.47475L101.191 7.85846C101.133 8.04671 101.008 8.10319 100.814 8.02789C100.486 7.89611 100.11 7.83022 99.6848 7.83022L99.3083 7.85846C98.3041 7.89611 97.4738 8.26321 96.8172 8.95977C96.1607 9.6375 95.8324 10.5035 95.8324 11.5577V19.8882C95.8324 20.0764 95.7359 20.1706 95.5428 20.1706H94.0655C93.8724 20.1706 93.7759 20.0764 93.7759 19.8882V6.16412C93.7759 5.97586 93.8724 5.88173 94.0655 5.88173H95.5428C95.7359 5.88173 95.8324 5.97586 95.8324 6.16412V7.88669C95.8324 7.94317 95.8421 7.98082 95.8614 7.99965C95.9 7.99965 95.929 7.98082 95.9483 7.94317C96.3538 7.24662 96.8655 6.71007 97.4834 6.33355C98.1207 5.93821 98.8545 5.74054 99.6848 5.74054Z" fill="#c9c9c9"/>
<path d="M114.265 10.6258C114.342 11.1529 114.381 11.8119 114.381 12.6025V13.5062C114.381 13.6944 114.284 13.7886 114.091 13.7886H104.735C104.658 13.7886 104.619 13.8262 104.619 13.9015C104.658 14.9369 104.716 15.6053 104.793 15.9065C105.005 16.7536 105.459 17.422 106.154 17.9114C106.85 18.4009 107.738 18.6456 108.819 18.6456C109.63 18.6456 110.345 18.4668 110.963 18.1091C111.581 17.7514 112.063 17.2431 112.411 16.5842C112.527 16.4148 112.662 16.3771 112.816 16.4712L113.946 17.1207C114.101 17.2149 114.139 17.3467 114.062 17.5161C113.579 18.4197 112.855 19.1351 111.89 19.6622C110.924 20.1705 109.814 20.4247 108.559 20.4247C107.188 20.4059 106.039 20.0858 105.112 19.4646C104.185 18.8433 103.519 17.9773 103.113 16.8666C102.765 15.963 102.592 14.664 102.592 12.9696C102.592 12.179 102.601 11.5389 102.621 11.0494C102.659 10.5411 102.736 10.0893 102.852 9.69394C103.181 8.47026 103.837 7.49132 104.822 6.75711C105.826 6.0229 107.033 5.65579 108.443 5.65579C110.2 5.65579 111.552 6.08879 112.498 6.95478C113.444 7.82077 114.033 9.04445 114.265 10.6258ZM108.443 7.4066C107.496 7.4066 106.705 7.65134 106.068 8.14081C105.45 8.61146 105.044 9.25154 104.851 10.061C104.735 10.4564 104.658 11.0965 104.619 11.9813C104.619 12.0566 104.658 12.0942 104.735 12.0942H112.237C112.314 12.0942 112.353 12.0566 112.353 11.9813C112.314 11.1341 112.256 10.5317 112.179 10.174C111.967 9.32684 111.532 8.65852 110.876 8.16905C110.239 7.66075 109.428 7.4066 108.443 7.4066Z" fill="#c9c9c9"/>
<path d="M117.602 20.1705C117.409 20.1705 117.313 20.0764 117.313 19.8881V0.685767C117.313 0.49751 117.409 0.403381 117.602 0.403381H119.079C119.272 0.403381 119.369 0.49751 119.369 0.685767V19.8881C119.369 20.0764 119.272 20.1705 119.079 20.1705H117.602Z" fill="#c9c9c9"/>
<path d="M134.068 10.6258C134.146 11.1529 134.184 11.8119 134.184 12.6025V13.5062C134.184 13.6944 134.088 13.7886 133.895 13.7886H124.539C124.461 13.7886 124.423 13.8262 124.423 13.9015C124.461 14.9369 124.519 15.6053 124.597 15.9065C124.809 16.7536 125.263 17.422 125.958 17.9114C126.653 18.4009 127.542 18.6456 128.623 18.6456C129.434 18.6456 130.148 18.4668 130.766 18.1091C131.384 17.7514 131.867 17.2431 132.215 16.5842C132.33 16.4148 132.466 16.3771 132.62 16.4712L133.75 17.1207C133.904 17.2149 133.943 17.3467 133.866 17.5161C133.383 18.4197 132.659 19.1351 131.693 19.6622C130.728 20.1705 129.617 20.4247 128.362 20.4247C126.991 20.4059 125.842 20.0858 124.915 19.4646C123.988 18.8433 123.322 17.9773 122.917 16.8666C122.569 15.963 122.395 14.664 122.395 12.9696C122.395 12.179 122.405 11.5389 122.424 11.0494C122.463 10.5411 122.54 10.0893 122.656 9.69394C122.984 8.47026 123.641 7.49132 124.626 6.75711C125.63 6.0229 126.837 5.65579 128.246 5.65579C130.004 5.65579 131.355 6.08879 132.302 6.95478C133.248 7.82077 133.837 9.04445 134.068 10.6258ZM128.246 7.4066C127.3 7.4066 126.508 7.65134 125.871 8.14081C125.253 8.61146 124.848 9.25154 124.655 10.061C124.539 10.4564 124.461 11.0965 124.423 11.9813C124.423 12.0566 124.461 12.0942 124.539 12.0942H132.041C132.118 12.0942 132.157 12.0566 132.157 11.9813C132.118 11.1341 132.06 10.5317 131.983 10.174C131.77 9.32684 131.336 8.65852 130.679 8.16905C130.042 7.66075 129.231 7.4066 128.246 7.4066Z" fill="#c9c9c9"/>
<path d="M141.669 20.3118C140.588 20.3118 139.622 20.1423 138.773 19.8035C137.942 19.4646 137.295 19.0128 136.832 18.448C136.388 17.8832 136.166 17.2526 136.166 16.556V16.2171C136.166 16.0289 136.262 15.9347 136.455 15.9347H137.846C138.039 15.9347 138.135 16.0289 138.135 16.2171V16.443C138.135 17.0643 138.464 17.6102 139.12 18.0809C139.796 18.5327 140.636 18.7586 141.64 18.7586C142.644 18.7586 143.455 18.5421 144.073 18.1091C144.691 17.6573 145 17.0925 145 16.4148C145 15.9442 144.836 15.5582 144.508 15.257C144.199 14.9558 143.822 14.7205 143.378 14.551C142.953 14.3816 142.287 14.1651 141.38 13.9016C140.298 13.6003 139.41 13.2991 138.715 12.9979C138.02 12.6967 137.431 12.2825 136.948 11.7554C136.484 11.2095 136.253 10.5223 136.253 9.69398C136.253 8.48912 136.735 7.529 137.701 6.81362C138.666 6.09823 139.941 5.74054 141.524 5.74054C142.586 5.74054 143.523 5.90997 144.334 6.24884C145.164 6.5877 145.802 7.05836 146.246 7.66078C146.69 8.24438 146.912 8.90329 146.912 9.6375V9.72221C146.912 9.91047 146.815 10.0046 146.622 10.0046H145.261C145.068 10.0046 144.971 9.91047 144.971 9.72221V9.6375C144.971 8.99742 144.653 8.46088 144.015 8.02789C143.397 7.59489 142.557 7.3784 141.495 7.3784C140.511 7.3784 139.719 7.57607 139.12 7.97141C138.522 8.34793 138.222 8.87505 138.222 9.55278C138.222 10.1929 138.512 10.6823 139.091 11.0212C139.671 11.3601 140.569 11.6989 141.785 12.0378C142.905 12.3578 143.813 12.659 144.508 12.9414C145.203 13.2238 145.802 13.638 146.304 14.1839C146.806 14.7111 147.057 15.4076 147.057 16.2736C147.057 17.4973 146.564 18.4762 145.58 19.2104C144.595 19.9447 143.291 20.3118 141.669 20.3118Z" fill="#c9c9c9"/>
<path d="M154.031 20.3118C152.95 20.3118 151.984 20.1423 151.135 19.8035C150.304 19.4646 149.657 19.0128 149.194 18.448C148.75 17.8832 148.528 17.2526 148.528 16.556V16.2171C148.528 16.0289 148.624 15.9347 148.817 15.9347H150.208C150.401 15.9347 150.497 16.0289 150.497 16.2171V16.443C150.497 17.0643 150.826 17.6102 151.482 18.0809C152.158 18.5327 152.998 18.7586 154.002 18.7586C155.006 18.7586 155.817 18.5421 156.435 18.1091C157.053 17.6573 157.362 17.0925 157.362 16.4148C157.362 15.9442 157.198 15.5582 156.87 15.257C156.561 14.9558 156.184 14.7205 155.74 14.551C155.315 14.3816 154.649 14.1651 153.741 13.9016C152.66 13.6003 151.772 13.2991 151.077 12.9979C150.381 12.6967 149.792 12.2825 149.31 11.7554C148.846 11.2095 148.615 10.5223 148.615 9.69398C148.615 8.48912 149.097 7.529 150.063 6.81362C151.028 6.09823 152.303 5.74054 153.886 5.74054C154.948 5.74054 155.885 5.90997 156.696 6.24884C157.526 6.5877 158.163 7.05836 158.608 7.66078C159.052 8.24438 159.274 8.90329 159.274 9.6375V9.72221C159.274 9.91047 159.177 10.0046 158.984 10.0046H157.623C157.43 10.0046 157.333 9.91047 157.333 9.72221V9.6375C157.333 8.99742 157.014 8.46088 156.377 8.02789C155.759 7.59489 154.919 7.3784 153.857 7.3784C152.872 7.3784 152.081 7.57607 151.482 7.97141C150.883 8.34793 150.584 8.87505 150.584 9.55278C150.584 10.1929 150.874 10.6823 151.453 11.0212C152.032 11.3601 152.93 11.6989 154.147 12.0378C155.267 12.3578 156.174 12.659 156.87 12.9414C157.565 13.2238 158.163 13.638 158.666 14.1839C159.168 14.7111 159.419 15.4076 159.419 16.2736C159.419 17.4973 158.926 18.4762 157.941 19.2104C156.957 19.9447 155.653 20.3118 154.031 20.3118Z" fill="#c9c9c9"/>
</g>
<defs>
<clipPath id="clip0">
<rect width="160" height="20.8429" fill="white"/>
</clipPath>
</defs>
</svg>
