<svg width="700" height="146" viewBox="0 0 700 146" fill="none" xmlns="http://www.w3.org/2000/svg">
<path d="M694.62 21.47H610.43C609.104 21.47 607.832 21.9968 606.894 22.9345C605.957 23.8721 605.43 25.1439 605.43 26.47V110.66C605.43 111.986 605.957 113.258 606.894 114.196C607.832 115.133 609.104 115.66 610.43 115.66H694.62C695.942 115.647 697.206 115.116 698.141 114.181C699.076 113.246 699.607 111.982 699.62 110.66V26.5C699.624 25.8409 699.498 25.1875 699.248 24.5774C698.999 23.9673 698.631 23.4125 698.166 22.9451C697.702 22.4776 697.149 22.1066 696.54 21.8535C695.932 21.6003 695.279 21.47 694.62 21.47Z" fill="#E84A7F"/>
<path d="M539.79 6.37001H622.29V15.6H628.16V5.54001C628.16 4.21393 627.633 2.94215 626.696 2.00447C625.758 1.06679 624.486 0.540009 623.16 0.540009H539C537.674 0.540009 536.402 1.06679 535.464 2.00447C534.527 2.94215 534 4.21393 534 5.54001V43.54H469.76C468.434 43.54 467.162 44.0668 466.224 45.0045C465.287 45.9422 464.76 47.2139 464.76 48.54V132.72C464.76 134.046 465.287 135.318 466.224 136.256C467.162 137.193 468.434 137.72 469.76 137.72H554C555.326 137.72 556.598 137.193 557.536 136.256C558.473 135.318 559 134.046 559 132.72V94.72H599.55V88.85H539.79V6.37001Z" fill="#E84A7F"/>
<path d="M42.7784 83.3254C43.3196 83.3254 43.7994 83.5345 44.2177 83.9528L48.1296 88.1969C45.9645 90.8786 43.295 92.933 40.1212 94.36C36.972 95.787 33.1831 96.5005 28.7545 96.5005C24.7933 96.5005 21.2259 95.8239 18.052 94.4707C14.9028 93.1175 12.2087 91.2354 9.96983 88.8242C7.73092 86.4131 6.00869 83.5345 4.80313 80.1885C3.62217 76.8424 3.03169 73.1888 3.03169 69.2277C3.03169 65.2173 3.67137 61.5514 4.95075 58.23C6.23012 54.8839 8.02616 52.0054 10.3389 49.5942C12.6762 47.1831 15.4564 45.3132 18.6794 43.9847C21.9024 42.6315 25.4699 41.9549 29.3819 41.9549C33.2692 41.9549 36.7137 42.5946 39.7153 43.874C42.7415 45.1533 45.3125 46.8264 47.4284 48.893L44.107 53.5062C43.9101 53.8014 43.6518 54.0597 43.3319 54.2812C43.0367 54.5026 42.6185 54.6133 42.0772 54.6133C41.7081 54.6133 41.3268 54.5149 40.9331 54.3181C40.5395 54.0966 40.1089 53.8383 39.6414 53.5431C39.174 53.2232 38.6327 52.8788 38.0176 52.5097C37.4025 52.1407 36.689 51.8085 35.8771 51.5133C35.0652 51.1934 34.118 50.9351 33.0355 50.7383C31.9775 50.5169 30.7473 50.4061 29.345 50.4061C26.9584 50.4061 24.7687 50.8367 22.7759 51.6978C20.8076 52.5343 19.11 53.7645 17.683 55.3883C16.256 56.9875 15.1488 58.9558 14.3615 61.2931C13.5742 63.6058 13.1806 66.2507 13.1806 69.2277C13.1806 72.2293 13.5988 74.8988 14.4353 77.2361C15.2964 79.5734 16.4528 81.5417 17.9044 83.1409C19.356 84.7401 21.0659 85.9703 23.0342 86.8314C25.0025 87.6679 27.1184 88.0861 29.3819 88.0861C30.735 88.0861 31.9529 88.0123 33.0355 87.8647C34.1426 87.7171 35.1513 87.4834 36.0617 87.1635C36.9966 86.8437 37.87 86.4377 38.6819 85.9457C39.5184 85.429 40.3426 84.8016 41.1546 84.0635C41.4006 83.8421 41.6589 83.6698 41.9296 83.5468C42.2002 83.3992 42.4831 83.3254 42.7784 83.3254ZM104.669 69.2277C104.669 73.1396 104.017 76.7686 102.713 80.1147C101.433 83.4361 99.6127 86.3147 97.2507 88.7504C94.8888 91.1862 92.0471 93.0929 88.7257 94.4707C85.4042 95.8239 81.7137 96.5005 77.6542 96.5005C73.6192 96.5005 69.941 95.8239 66.6196 94.4707C63.2981 93.0929 60.4441 91.1862 58.0576 88.7504C55.6957 86.3147 53.8628 83.4361 52.5588 80.1147C51.2548 76.7686 50.6028 73.1396 50.6028 69.2277C50.6028 65.3158 51.2548 61.6991 52.5588 58.3776C53.8628 55.0316 55.6957 52.1407 58.0576 49.7049C60.4441 47.2692 63.2981 45.3748 66.6196 44.0216C69.941 42.6438 73.6192 41.9549 77.6542 41.9549C80.3605 41.9549 82.907 42.2747 85.2935 42.9144C87.68 43.5295 89.8697 44.4152 91.8626 45.5716C93.8555 46.7033 95.6392 48.0934 97.2138 49.7418C98.813 51.3657 100.166 53.1863 101.273 55.2038C102.381 57.2213 103.217 59.411 103.783 61.7729C104.373 64.1348 104.669 66.6197 104.669 69.2277ZM94.5198 69.2277C94.5198 66.2999 94.1261 63.6796 93.3388 61.3669C92.5515 59.0296 91.432 57.049 89.9804 55.4252C88.5288 53.8014 86.7574 52.5589 84.6661 51.6978C82.5994 50.8367 80.2621 50.4061 77.6542 50.4061C75.0462 50.4061 72.6966 50.8367 70.6053 51.6978C68.5386 52.5589 66.7672 53.8014 65.291 55.4252C63.8394 57.049 62.72 59.0296 61.9326 61.3669C61.1453 63.6796 60.7517 66.2999 60.7517 69.2277C60.7517 72.1555 61.1453 74.788 61.9326 77.1254C62.72 79.4381 63.8394 81.4063 65.291 83.0302C66.7672 84.6294 68.5386 85.8595 70.6053 86.7207C72.6966 87.5818 75.0462 88.0123 77.6542 88.0123C80.2621 88.0123 82.5994 87.5818 84.6661 86.7207C86.7574 85.8595 88.5288 84.6294 89.9804 83.0302C91.432 81.4063 92.5515 79.4381 93.3388 77.1254C94.1261 74.788 94.5198 72.1555 94.5198 69.2277ZM158.374 42.5454V95.91H153.281C152.494 95.91 151.83 95.787 151.288 95.541C150.772 95.2703 150.267 94.8275 149.775 94.2124L121.912 58.636C122.06 60.2598 122.133 61.7606 122.133 63.1384V95.91H113.387V42.5454H118.59C119.009 42.5454 119.365 42.57 119.661 42.6192C119.981 42.6438 120.251 42.7176 120.473 42.8406C120.719 42.939 120.952 43.0989 121.174 43.3204C121.395 43.5172 121.641 43.7878 121.912 44.1323L149.886 79.8563C149.812 78.9952 149.751 78.1464 149.701 77.3099C149.652 76.4734 149.628 75.6984 149.628 74.9849V42.5454H158.374ZM207.532 50.7014H191.442V95.91H181.514V50.7014H165.423V42.5454H207.532V50.7014ZM230.643 67.936C232.513 67.936 234.136 67.7023 235.514 67.2348C236.917 66.7674 238.061 66.1277 238.946 65.3158C239.857 64.4792 240.533 63.4951 240.976 62.3634C241.419 61.2316 241.64 59.9891 241.64 58.636C241.64 55.9296 240.742 53.8506 238.946 52.399C237.175 50.9474 234.456 50.2216 230.79 50.2216H224.443V67.936H230.643ZM256.181 95.91H247.213C245.515 95.91 244.285 95.2457 243.523 93.9171L232.303 76.8301C231.885 76.1904 231.418 75.7353 230.901 75.4646C230.409 75.194 229.671 75.0587 228.687 75.0587H224.443V95.91H214.515V42.5454H230.79C234.407 42.5454 237.507 42.9267 240.09 43.6894C242.698 44.4275 244.827 45.4732 246.475 46.8264C248.148 48.1795 249.378 49.8034 250.165 51.6978C250.953 53.5677 251.346 55.6343 251.346 57.8979C251.346 59.6939 251.076 61.3915 250.534 62.9907C250.018 64.59 249.255 66.0416 248.246 67.3455C247.262 68.6495 246.032 69.7936 244.556 70.7777C243.104 71.7618 241.444 72.5368 239.574 73.1027C240.213 73.4718 240.804 73.9146 241.345 74.4313C241.886 74.9234 242.378 75.5138 242.821 76.2027L256.181 95.91ZM290.139 75.7599L283.644 58.0086C283.324 57.2213 282.992 56.2863 282.648 55.2038C282.303 54.1212 281.959 52.9526 281.614 51.6978C281.294 52.9526 280.962 54.1335 280.618 55.2407C280.273 56.3232 279.941 57.2705 279.621 58.0824L273.163 75.7599H290.139ZM307.669 95.91H299.993C299.132 95.91 298.431 95.7009 297.889 95.2826C297.348 94.8398 296.942 94.2985 296.672 93.6588L292.686 82.7718H270.58L266.594 93.6588C266.397 94.2247 266.016 94.7413 265.45 95.2088C264.884 95.6763 264.183 95.91 263.346 95.91H255.596L276.595 42.5454H286.707L307.669 95.91ZM341.61 52.2514C341.314 52.7681 340.995 53.1494 340.65 53.3954C340.33 53.6169 339.924 53.7276 339.432 53.7276C338.916 53.7276 338.35 53.5431 337.735 53.174C337.144 52.7804 336.431 52.3498 335.594 51.8823C334.758 51.4149 333.774 50.9966 332.642 50.6276C331.535 50.2339 330.218 50.0371 328.693 50.0371C327.315 50.0371 326.11 50.2093 325.076 50.5538C324.043 50.8736 323.169 51.3288 322.456 51.9192C321.767 52.5097 321.25 53.2232 320.906 54.0597C320.562 54.8716 320.389 55.7697 320.389 56.7538C320.389 58.0086 320.734 59.0542 321.423 59.8907C322.136 60.7272 323.071 61.4407 324.227 62.0312C325.384 62.6217 326.7 63.1507 328.176 63.6181C329.652 64.0856 331.166 64.59 332.716 65.1312C334.266 65.6479 335.779 66.263 337.255 66.9765C338.731 67.6654 340.047 68.5511 341.204 69.6336C342.36 70.6916 343.283 71.9956 343.972 73.5456C344.685 75.0956 345.042 76.9777 345.042 79.192C345.042 81.6032 344.624 83.8667 343.787 85.9826C342.975 88.0738 341.77 89.9068 340.17 91.4814C338.596 93.0314 336.664 94.2616 334.376 95.1719C332.088 96.0576 329.468 96.5005 326.516 96.5005C324.818 96.5005 323.145 96.3283 321.496 95.9838C319.848 95.664 318.261 95.1965 316.736 94.5814C315.235 93.9663 313.82 93.2282 312.492 92.3671C311.163 91.506 309.982 90.5465 308.949 89.4885L311.864 84.7278C312.11 84.3833 312.43 84.1004 312.824 83.879C313.217 83.6329 313.636 83.5099 314.079 83.5099C314.694 83.5099 315.358 83.7683 316.071 84.2849C316.785 84.777 317.634 85.3306 318.618 85.9457C319.602 86.5607 320.746 87.1266 322.05 87.6433C323.379 88.1354 324.966 88.3814 326.811 88.3814C329.64 88.3814 331.83 87.7171 333.38 86.3885C334.93 85.0353 335.705 83.104 335.705 80.5944C335.705 79.192 335.348 78.048 334.635 77.1623C333.946 76.2765 333.023 75.5384 331.867 74.948C330.71 74.3329 329.394 73.8162 327.918 73.398C326.442 72.9797 324.941 72.5245 323.416 72.0325C321.89 71.5404 320.389 70.9499 318.913 70.261C317.437 69.5721 316.121 68.6741 314.964 67.567C313.808 66.4598 312.873 65.082 312.159 63.4336C311.471 61.7606 311.126 59.7062 311.126 57.2705C311.126 55.3268 311.508 53.4323 312.27 51.5871C313.058 49.7418 314.189 48.1057 315.665 46.6787C317.142 45.2517 318.962 44.1077 321.127 43.2466C323.293 42.3855 325.777 41.9549 328.582 41.9549C331.731 41.9549 334.635 42.447 337.292 43.4311C339.949 44.4152 342.212 45.793 344.082 47.5645L341.61 52.2514ZM390.976 50.7014H374.885V95.91H364.958V50.7014H348.867V42.5454H390.976V50.7014ZM407.923 50.443V65.2419H426.597V72.8813H407.923V87.9754H431.616V95.91H397.959V42.5454H431.616V50.443H407.923Z" fill="#031a6b"/>
<path d="M346.935 122.827C346.935 124.988 346.593 126.954 345.909 128.725C345.224 130.496 344.258 132.013 343.01 133.274C341.762 134.536 340.259 135.516 338.501 136.213C336.756 136.898 334.824 137.24 332.703 137.24H321.934V108.394H332.703C334.824 108.394 336.756 108.743 338.501 109.44C340.259 110.125 341.762 111.105 343.01 112.379C344.258 113.641 345.224 115.157 345.909 116.929C346.593 118.7 346.935 120.666 346.935 122.827ZM342.929 122.827C342.929 121.055 342.688 119.472 342.205 118.076C341.722 116.681 341.037 115.5 340.151 114.533C339.266 113.567 338.192 112.829 336.931 112.319C335.669 111.809 334.26 111.554 332.703 111.554H325.839V134.08H332.703C334.26 134.08 335.669 133.825 336.931 133.315C338.192 132.805 339.266 132.073 340.151 131.12C341.037 130.154 341.722 128.973 342.205 127.578C342.688 126.182 342.929 124.598 342.929 122.827ZM355.107 116.848V137.24H351.524V116.848H355.107ZM355.872 110.447C355.872 110.796 355.798 111.125 355.651 111.433C355.516 111.729 355.329 111.997 355.087 112.239C354.859 112.467 354.584 112.648 354.262 112.782C353.953 112.916 353.624 112.983 353.275 112.983C352.926 112.983 352.598 112.916 352.289 112.782C351.994 112.648 351.732 112.467 351.504 112.239C351.276 111.997 351.095 111.729 350.96 111.433C350.826 111.125 350.759 110.796 350.759 110.447C350.759 110.098 350.826 109.769 350.96 109.461C351.095 109.139 351.276 108.863 351.504 108.635C351.732 108.394 351.994 108.206 352.289 108.072C352.598 107.937 352.926 107.87 353.275 107.87C353.624 107.87 353.953 107.937 354.262 108.072C354.584 108.206 354.859 108.394 355.087 108.635C355.329 108.863 355.516 109.139 355.651 109.461C355.798 109.769 355.872 110.098 355.872 110.447ZM368.1 127.276C368.825 127.276 369.463 127.175 370.013 126.974C370.563 126.772 371.026 126.491 371.402 126.128C371.777 125.766 372.059 125.336 372.247 124.84C372.435 124.33 372.529 123.773 372.529 123.169C372.529 121.921 372.147 120.928 371.382 120.19C370.63 119.452 369.536 119.083 368.1 119.083C366.651 119.083 365.544 119.452 364.779 120.19C364.027 120.928 363.652 121.921 363.652 123.169C363.652 123.773 363.746 124.33 363.933 124.84C364.135 125.336 364.423 125.766 364.799 126.128C365.175 126.491 365.638 126.772 366.188 126.974C366.738 127.175 367.376 127.276 368.1 127.276ZM374.562 138.347C374.562 137.851 374.421 137.448 374.139 137.139C373.858 136.831 373.475 136.589 372.992 136.415C372.522 136.24 371.972 136.119 371.341 136.052C370.711 135.972 370.04 135.911 369.328 135.871C368.63 135.831 367.919 135.791 367.195 135.75C366.47 135.71 365.772 135.643 365.101 135.549C364.349 135.898 363.732 136.341 363.249 136.878C362.779 137.401 362.544 138.018 362.544 138.73C362.544 139.186 362.659 139.609 362.887 139.998C363.128 140.4 363.491 140.743 363.974 141.024C364.457 141.32 365.061 141.548 365.785 141.709C366.524 141.883 367.389 141.971 368.382 141.971C369.348 141.971 370.214 141.883 370.979 141.709C371.744 141.534 372.388 141.286 372.911 140.964C373.448 140.642 373.858 140.26 374.139 139.817C374.421 139.374 374.562 138.884 374.562 138.347ZM378.206 117.654V118.982C378.206 119.425 377.924 119.707 377.36 119.828L375.045 120.13C375.502 121.015 375.73 121.995 375.73 123.068C375.73 124.062 375.535 124.967 375.146 125.786C374.77 126.591 374.247 127.282 373.576 127.859C372.905 128.436 372.1 128.879 371.16 129.188C370.221 129.497 369.201 129.651 368.1 129.651C367.148 129.651 366.248 129.537 365.403 129.309C364.974 129.577 364.645 129.866 364.417 130.174C364.188 130.47 364.074 130.772 364.074 131.08C364.074 131.563 364.269 131.932 364.658 132.187C365.061 132.429 365.584 132.603 366.228 132.711C366.872 132.818 367.604 132.885 368.422 132.912C369.254 132.939 370.1 132.986 370.959 133.053C371.831 133.107 372.677 133.207 373.495 133.355C374.327 133.503 375.065 133.744 375.71 134.08C376.354 134.415 376.87 134.878 377.26 135.469C377.662 136.059 377.863 136.824 377.863 137.763C377.863 138.636 377.642 139.481 377.199 140.3C376.77 141.118 376.146 141.843 375.327 142.474C374.508 143.118 373.502 143.628 372.308 144.004C371.127 144.393 369.791 144.587 368.302 144.587C366.812 144.587 365.51 144.44 364.396 144.145C363.283 143.849 362.357 143.453 361.619 142.957C360.88 142.46 360.323 141.883 359.948 141.226C359.585 140.582 359.404 139.904 359.404 139.193C359.404 138.186 359.72 137.334 360.35 136.636C360.981 135.938 361.847 135.381 362.947 134.965C362.343 134.697 361.86 134.341 361.498 133.898C361.149 133.442 360.974 132.832 360.974 132.067C360.974 131.771 361.028 131.469 361.135 131.161C361.243 130.839 361.404 130.523 361.619 130.215C361.847 129.893 362.122 129.591 362.444 129.309C362.766 129.027 363.142 128.779 363.571 128.564C362.565 128 361.78 127.256 361.216 126.33C360.652 125.39 360.37 124.303 360.37 123.068C360.37 122.075 360.558 121.176 360.934 120.371C361.323 119.552 361.86 118.861 362.544 118.298C363.229 117.721 364.041 117.278 364.98 116.969C365.933 116.66 366.973 116.506 368.1 116.506C368.986 116.506 369.811 116.607 370.576 116.808C371.341 116.996 372.039 117.278 372.67 117.654H378.206ZM385.695 116.848V137.24H382.112V116.848H385.695ZM386.46 110.447C386.46 110.796 386.386 111.125 386.239 111.433C386.105 111.729 385.917 111.997 385.675 112.239C385.447 112.467 385.172 112.648 384.85 112.782C384.541 112.916 384.212 112.983 383.863 112.983C383.514 112.983 383.186 112.916 382.877 112.782C382.582 112.648 382.32 112.467 382.092 112.239C381.864 111.997 381.683 111.729 381.548 111.433C381.414 111.125 381.347 110.796 381.347 110.447C381.347 110.098 381.414 109.769 381.548 109.461C381.683 109.139 381.864 108.863 382.092 108.635C382.32 108.394 382.582 108.206 382.877 108.072C383.186 107.937 383.514 107.87 383.863 107.87C384.212 107.87 384.541 107.937 384.85 108.072C385.172 108.206 385.447 108.394 385.675 108.635C385.917 108.863 386.105 109.139 386.239 109.461C386.386 109.769 386.46 110.098 386.46 110.447ZM397.843 137.562C396.233 137.562 394.991 137.113 394.119 136.213C393.26 135.314 392.831 134.019 392.831 132.328V119.848H390.375C390.16 119.848 389.979 119.787 389.831 119.667C389.684 119.532 389.61 119.331 389.61 119.063V117.633L392.951 117.211L393.777 110.91C393.817 110.709 393.904 110.548 394.039 110.427C394.186 110.293 394.374 110.226 394.602 110.226H396.414V117.251H402.312V119.848H396.414V132.087C396.414 132.946 396.622 133.583 397.038 133.999C397.454 134.415 397.991 134.623 398.648 134.623C399.024 134.623 399.346 134.576 399.615 134.482C399.896 134.375 400.138 134.261 400.339 134.14C400.54 134.019 400.708 133.912 400.842 133.818C400.99 133.711 401.118 133.657 401.225 133.657C401.413 133.657 401.581 133.771 401.728 133.999L402.775 135.71C402.158 136.287 401.413 136.743 400.54 137.079C399.668 137.401 398.769 137.562 397.843 137.562ZM417.063 128.061C415.412 128.114 414.003 128.249 412.836 128.463C411.682 128.665 410.736 128.933 409.998 129.269C409.273 129.604 408.743 130 408.407 130.456C408.085 130.912 407.924 131.422 407.924 131.986C407.924 132.523 408.011 132.986 408.186 133.375C408.36 133.764 408.595 134.086 408.89 134.341C409.199 134.583 409.555 134.764 409.957 134.885C410.373 134.992 410.816 135.046 411.286 135.046C411.917 135.046 412.494 134.985 413.017 134.865C413.54 134.73 414.03 134.543 414.486 134.301C414.956 134.059 415.399 133.771 415.815 133.435C416.245 133.1 416.661 132.717 417.063 132.288V128.061ZM405.488 119.727C406.616 118.64 407.83 117.828 409.132 117.291C410.434 116.754 411.876 116.486 413.46 116.486C414.601 116.486 415.614 116.674 416.499 117.05C417.385 117.425 418.13 117.949 418.734 118.62C419.338 119.291 419.794 120.103 420.103 121.055C420.411 122.008 420.566 123.055 420.566 124.196V137.24H418.975C418.627 137.24 418.358 137.186 418.17 137.079C417.982 136.958 417.835 136.73 417.727 136.395L417.325 134.462C416.788 134.959 416.265 135.401 415.755 135.791C415.245 136.166 414.708 136.488 414.144 136.757C413.581 137.012 412.977 137.206 412.333 137.341C411.702 137.488 410.997 137.562 410.219 137.562C409.427 137.562 408.682 137.455 407.985 137.24C407.287 137.012 406.676 136.676 406.153 136.234C405.643 135.791 405.233 135.234 404.925 134.563C404.63 133.878 404.482 133.073 404.482 132.147C404.482 131.342 404.703 130.57 405.146 129.832C405.589 129.081 406.307 128.416 407.3 127.839C408.293 127.262 409.588 126.793 411.185 126.43C412.782 126.054 414.741 125.84 417.063 125.786V124.196C417.063 122.612 416.721 121.418 416.037 120.613C415.352 119.794 414.352 119.385 413.037 119.385C412.151 119.385 411.407 119.499 410.803 119.727C410.212 119.942 409.696 120.19 409.253 120.472C408.823 120.74 408.447 120.988 408.125 121.217C407.817 121.431 407.508 121.539 407.199 121.539C406.958 121.539 406.75 121.478 406.575 121.357C406.401 121.223 406.253 121.062 406.133 120.874L405.488 119.727ZM429.728 107.589V137.24H426.145V107.589H429.728Z" fill="#E84A7F"/>
</svg>
