<svg width="698" height="145" viewBox="0 0 698 145" fill="none" xmlns="http://www.w3.org/2000/svg">
<path d="M692.43 20.9299H608.24C606.914 20.9299 605.642 21.4567 604.704 22.3944C603.767 23.332 603.24 24.6038 603.24 25.9299V110.12C603.24 111.446 603.767 112.718 604.704 113.656C605.642 114.593 606.914 115.12 608.24 115.12H692.43C693.752 115.107 695.016 114.576 695.951 113.641C696.886 112.706 697.417 111.442 697.43 110.12V25.9599C697.434 25.3008 697.308 24.6474 697.058 24.0373C696.809 23.4272 696.441 22.8724 695.976 22.405C695.512 21.9375 694.959 21.5665 694.35 21.3134C693.742 21.0602 693.089 20.9299 692.43 20.9299Z" fill="#D2D2D2"/>
<path d="M537.6 5.83H620.1V15.06H625.97V5C625.97 3.67392 625.443 2.40214 624.506 1.46446C623.568 0.52678 622.296 0 620.97 0H536.81C535.484 0 534.212 0.52678 533.274 1.46446C532.337 2.40214 531.81 3.67392 531.81 5V43H467.57C466.244 43 464.972 43.5268 464.034 44.4645C463.097 45.4021 462.57 46.6739 462.57 48V132.18C462.57 133.506 463.097 134.778 464.034 135.716C464.972 136.653 466.244 137.18 467.57 137.18H551.81C553.136 137.18 554.408 136.653 555.346 135.716C556.283 134.778 556.81 133.506 556.81 132.18V94.18H597.36V88.31H537.6V5.83Z" fill="#D2D2D2"/>
<path d="M40.5885 82.7853C41.1297 82.7853 41.6095 82.9944 42.0278 83.4127L45.9397 87.6568C43.7746 90.3385 41.1051 92.3929 37.9313 93.8199C34.7821 95.2469 30.9932 95.9604 26.5646 95.9604C22.6034 95.9604 19.036 95.2838 15.8621 93.9306C12.7129 92.5774 10.0188 90.6953 7.77994 88.2841C5.54103 85.873 3.8188 82.9944 2.61323 79.6484C1.43228 76.3023 0.841797 72.6487 0.841797 68.6876C0.841797 64.6772 1.48148 61.0113 2.76086 57.6899C4.04023 54.3438 5.83627 51.4653 8.14901 49.0541C10.4863 46.643 13.2665 44.7731 16.4895 43.4446C19.7125 42.0914 23.28 41.4148 27.192 41.4148C31.0793 41.4148 34.5237 42.0545 37.5254 43.3339C40.5516 44.6132 43.1226 46.2863 45.2385 48.3529L41.9171 52.9661C41.7202 53.2613 41.4619 53.5196 41.142 53.7411C40.8468 53.9625 40.4285 54.0732 39.8873 54.0732C39.5182 54.0732 39.1369 53.9748 38.7432 53.778C38.3496 53.5565 37.919 53.2982 37.4515 53.003C36.9841 52.6831 36.4428 52.3387 35.8277 51.9696C35.2126 51.6006 34.4991 51.2684 33.6872 50.9732C32.8753 50.6533 31.9281 50.395 30.8456 50.1982C29.7876 49.9768 28.5574 49.866 27.155 49.866C24.7685 49.866 22.5788 50.2966 20.586 51.1577C18.6177 51.9942 16.9201 53.2244 15.4931 54.8482C14.0661 56.4474 12.9589 58.4157 12.1716 60.753C11.3843 63.0657 10.9907 65.7106 10.9907 68.6876C10.9907 71.6892 11.4089 74.3587 12.2454 76.696C13.1065 79.0333 14.2629 81.0016 15.7145 82.6008C17.1661 84.2 18.876 85.4302 20.8443 86.2913C22.8126 87.1278 24.9284 87.546 27.192 87.546C28.5451 87.546 29.763 87.4722 30.8456 87.3246C31.9527 87.177 32.9614 86.9433 33.8718 86.6234C34.8067 86.3036 35.6801 85.8976 36.492 85.4056C37.3285 84.8889 38.1527 84.2615 38.9646 83.5234C39.2107 83.302 39.469 83.1297 39.7397 83.0067C40.0103 82.8591 40.2932 82.7853 40.5885 82.7853ZM102.479 68.6876C102.479 72.5995 101.827 76.2285 100.523 79.5746C99.2431 82.896 97.4227 85.7746 95.0608 88.2103C92.6989 90.6461 89.8572 92.5528 86.5358 93.9306C83.2143 95.2838 79.5238 95.9604 75.4643 95.9604C71.4293 95.9604 67.7511 95.2838 64.4297 93.9306C61.1082 92.5528 58.2542 90.6461 55.8677 88.2103C53.5058 85.7746 51.6728 82.896 50.3689 79.5746C49.0649 76.2285 48.4129 72.5995 48.4129 68.6876C48.4129 64.7757 49.0649 61.159 50.3689 57.8375C51.6728 54.4915 53.5058 51.6006 55.8677 49.1648C58.2542 46.7291 61.1082 44.8347 64.4297 43.4815C67.7511 42.1037 71.4293 41.4148 75.4643 41.4148C78.1706 41.4148 80.7171 41.7346 83.1036 42.3743C85.4901 42.9894 87.6798 43.8751 89.6727 45.0315C91.6656 46.1632 93.4493 47.5533 95.0239 49.2017C96.6231 50.8256 97.9763 52.6462 99.0831 54.6637C100.191 56.6812 101.027 58.8709 101.593 61.2328C102.183 63.5947 102.479 66.0796 102.479 68.6876ZM92.3299 68.6876C92.3299 65.7598 91.9362 63.1395 91.1489 60.8268C90.3616 58.4895 89.2421 56.5089 87.7905 54.8851C86.3389 53.2613 84.5675 52.0188 82.4762 51.1577C80.4095 50.2966 78.0722 49.866 75.4643 49.866C72.8563 49.866 70.5067 50.2966 68.4154 51.1577C66.3487 52.0188 64.5773 53.2613 63.1011 54.8851C61.6495 56.5089 60.53 58.4895 59.7427 60.8268C58.9554 63.1395 58.5618 65.7598 58.5618 68.6876C58.5618 71.6154 58.9554 74.2479 59.7427 76.5853C60.53 78.898 61.6495 80.8662 63.1011 82.4901C64.5773 84.0893 66.3487 85.3194 68.4154 86.1806C70.5067 87.0417 72.8563 87.4722 75.4643 87.4722C78.0722 87.4722 80.4095 87.0417 82.4762 86.1806C84.5675 85.3194 86.3389 84.0893 87.7905 82.4901C89.2421 80.8662 90.3616 78.898 91.1489 76.5853C91.9362 74.2479 92.3299 71.6154 92.3299 68.6876ZM156.184 42.0053V95.3699H151.091C150.304 95.3699 149.64 95.2469 149.098 95.0009C148.582 94.7302 148.077 94.2874 147.585 93.6723L119.722 58.0959C119.87 59.7197 119.943 61.2205 119.943 62.5983V95.3699H111.197V42.0053H116.4C116.819 42.0053 117.175 42.0299 117.471 42.0791C117.791 42.1037 118.061 42.1775 118.283 42.3005C118.529 42.3989 118.762 42.5588 118.984 42.7803C119.205 42.9771 119.451 43.2477 119.722 43.5922L147.696 79.3162C147.622 78.4551 147.561 77.6063 147.511 76.7698C147.462 75.9333 147.438 75.1583 147.438 74.4448V42.0053H156.184ZM205.342 50.1613H189.252V95.3699H179.324V50.1613H163.233V42.0053H205.342V50.1613ZM228.453 67.3959C230.323 67.3959 231.946 67.1622 233.324 66.6947C234.727 66.2273 235.871 65.5876 236.756 64.7757C237.667 63.9391 238.343 62.955 238.786 61.8233C239.229 60.6915 239.45 59.449 239.45 58.0959C239.45 55.3895 238.552 53.3105 236.756 51.8589C234.985 50.4073 232.266 49.6815 228.6 49.6815H222.253V67.3959H228.453ZM253.991 95.3699H245.023C243.325 95.3699 242.095 94.7056 241.333 93.377L230.113 76.29C229.695 75.6503 229.228 75.1952 228.711 74.9245C228.219 74.6539 227.481 74.5186 226.497 74.5186H222.253V95.3699H212.325V42.0053H228.6C232.217 42.0053 235.317 42.3866 237.9 43.1493C240.508 43.8874 242.637 44.9331 244.285 46.2863C245.958 47.6394 247.188 49.2633 247.975 51.1577C248.763 53.0276 249.156 55.0942 249.156 57.3578C249.156 59.1538 248.886 60.8514 248.344 62.4506C247.828 64.0499 247.065 65.5015 246.056 66.8054C245.072 68.1094 243.842 69.2535 242.366 70.2376C240.914 71.2217 239.254 71.9967 237.384 72.5626C238.023 72.9317 238.614 73.3745 239.155 73.8912C239.696 74.3833 240.188 74.9737 240.631 75.6626L253.991 95.3699ZM287.949 75.2198L281.454 57.4685C281.134 56.6812 280.802 55.7462 280.458 54.6637C280.113 53.5811 279.769 52.4125 279.424 51.1577C279.104 52.4125 278.772 53.5934 278.428 54.7006C278.083 55.7831 277.751 56.7304 277.431 57.5423L270.973 75.2198H287.949ZM305.479 95.3699H297.803C296.942 95.3699 296.241 95.1608 295.699 94.7425C295.158 94.2997 294.752 93.7584 294.482 93.1187L290.496 82.2317H268.39L264.404 93.1187C264.207 93.6846 263.826 94.2012 263.26 94.6687C262.694 95.1362 261.993 95.3699 261.156 95.3699H253.406L274.405 42.0053H284.517L305.479 95.3699ZM339.42 51.7113C339.124 52.228 338.805 52.6093 338.46 52.8553C338.14 53.0768 337.734 53.1875 337.242 53.1875C336.726 53.1875 336.16 53.003 335.545 52.6339C334.954 52.2403 334.241 51.8097 333.404 51.3422C332.568 50.8748 331.584 50.4565 330.452 50.0875C329.345 49.6938 328.028 49.497 326.503 49.497C325.125 49.497 323.92 49.6692 322.886 50.0137C321.853 50.3335 320.979 50.7887 320.266 51.3791C319.577 51.9696 319.06 52.6831 318.716 53.5196C318.372 54.3315 318.199 55.2296 318.199 56.2137C318.199 57.4685 318.544 58.5141 319.233 59.3506C319.946 60.1871 320.881 60.9006 322.037 61.4911C323.194 62.0816 324.51 62.6106 325.986 63.078C327.462 63.5455 328.976 64.0499 330.526 64.5911C332.076 65.1078 333.589 65.7229 335.065 66.4364C336.541 67.1253 337.857 68.011 339.014 69.0935C340.17 70.1515 341.093 71.4555 341.782 73.0055C342.495 74.5555 342.852 76.4376 342.852 78.6519C342.852 81.0631 342.434 83.3266 341.597 85.4425C340.785 87.5337 339.58 89.3667 337.98 90.9413C336.406 92.4913 334.474 93.7215 332.186 94.6318C329.898 95.5175 327.278 95.9604 324.326 95.9604C322.628 95.9604 320.955 95.7882 319.306 95.4437C317.658 95.1239 316.071 94.6564 314.546 94.0413C313.045 93.4262 311.63 92.6881 310.302 91.827C308.973 90.9659 307.792 90.0064 306.759 88.9484L309.674 84.1877C309.92 83.8432 310.24 83.5603 310.634 83.3389C311.027 83.0928 311.446 82.9698 311.889 82.9698C312.504 82.9698 313.168 83.2282 313.881 83.7448C314.595 84.2369 315.444 84.7905 316.428 85.4056C317.412 86.0206 318.556 86.5865 319.86 87.1032C321.189 87.5952 322.776 87.8413 324.621 87.8413C327.45 87.8413 329.64 87.177 331.19 85.8484C332.74 84.4952 333.515 82.5639 333.515 80.0543C333.515 78.6519 333.158 77.5079 332.445 76.6222C331.756 75.7364 330.833 74.9983 329.677 74.4079C328.52 73.7928 327.204 73.2761 325.728 72.8579C324.252 72.4396 322.751 71.9844 321.226 71.4924C319.7 71.0003 318.199 70.4098 316.723 69.7209C315.247 69.032 313.931 68.134 312.774 67.0269C311.618 65.9197 310.683 64.5419 309.969 62.8935C309.281 61.2205 308.936 59.1661 308.936 56.7304C308.936 54.7867 309.318 52.8922 310.08 51.047C310.868 49.2017 311.999 47.5656 313.475 46.1386C314.952 44.7116 316.772 43.5676 318.937 42.7065C321.103 41.8454 323.587 41.4148 326.392 41.4148C329.541 41.4148 332.445 41.9069 335.102 42.891C337.759 43.8751 340.022 45.2529 341.892 47.0244L339.42 51.7113ZM388.786 50.1613H372.695V95.3699H362.768V50.1613H346.677V42.0053H388.786V50.1613ZM405.733 49.9029V64.7018H424.407V72.3412H405.733V87.4353H429.426V95.3699H395.769V42.0053H429.426V49.9029H405.733Z" fill="#D2D2D2"/>
<path d="M344.745 122.287C344.745 124.448 344.403 126.414 343.719 128.185C343.034 129.956 342.068 131.473 340.82 132.734C339.572 133.996 338.069 134.976 336.311 135.673C334.566 136.358 332.634 136.7 330.513 136.7H319.744V107.854H330.513C332.634 107.854 334.566 108.203 336.311 108.9C338.069 109.585 339.572 110.565 340.82 111.839C342.068 113.101 343.034 114.617 343.719 116.389C344.403 118.16 344.745 120.126 344.745 122.287ZM340.739 122.287C340.739 120.515 340.498 118.932 340.015 117.536C339.532 116.141 338.847 114.96 337.961 113.993C337.076 113.027 336.002 112.289 334.741 111.779C333.479 111.269 332.07 111.014 330.513 111.014H323.649V133.54H330.513C332.07 133.54 333.479 133.285 334.741 132.775C336.002 132.265 337.076 131.533 337.961 130.58C338.847 129.614 339.532 128.433 340.015 127.038C340.498 125.642 340.739 124.058 340.739 122.287ZM352.917 116.308V136.7H349.334V116.308H352.917ZM353.682 109.907C353.682 110.256 353.608 110.585 353.461 110.893C353.326 111.189 353.139 111.457 352.897 111.699C352.669 111.927 352.394 112.108 352.072 112.242C351.763 112.376 351.434 112.443 351.085 112.443C350.736 112.443 350.408 112.376 350.099 112.242C349.804 112.108 349.542 111.927 349.314 111.699C349.086 111.457 348.905 111.189 348.77 110.893C348.636 110.585 348.569 110.256 348.569 109.907C348.569 109.558 348.636 109.229 348.77 108.921C348.905 108.599 349.086 108.323 349.314 108.095C349.542 107.854 349.804 107.666 350.099 107.532C350.408 107.397 350.736 107.33 351.085 107.33C351.434 107.33 351.763 107.397 352.072 107.532C352.394 107.666 352.669 107.854 352.897 108.095C353.139 108.323 353.326 108.599 353.461 108.921C353.608 109.229 353.682 109.558 353.682 109.907ZM365.91 126.736C366.635 126.736 367.272 126.635 367.823 126.434C368.373 126.232 368.836 125.951 369.212 125.588C369.587 125.226 369.869 124.796 370.057 124.3C370.245 123.79 370.339 123.233 370.339 122.629C370.339 121.381 369.956 120.388 369.192 119.65C368.44 118.912 367.346 118.543 365.91 118.543C364.461 118.543 363.354 118.912 362.589 119.65C361.837 120.388 361.462 121.381 361.462 122.629C361.462 123.233 361.556 123.79 361.743 124.3C361.945 124.796 362.233 125.226 362.609 125.588C362.985 125.951 363.448 126.232 363.998 126.434C364.548 126.635 365.186 126.736 365.91 126.736ZM372.372 137.807C372.372 137.311 372.231 136.908 371.949 136.599C371.668 136.291 371.285 136.049 370.802 135.875C370.332 135.7 369.782 135.579 369.151 135.512C368.521 135.432 367.85 135.371 367.138 135.331C366.44 135.291 365.729 135.251 365.005 135.21C364.28 135.17 363.582 135.103 362.911 135.009C362.159 135.358 361.542 135.801 361.059 136.338C360.589 136.861 360.354 137.478 360.354 138.19C360.354 138.646 360.469 139.069 360.697 139.458C360.938 139.86 361.301 140.203 361.784 140.484C362.267 140.78 362.871 141.008 363.595 141.169C364.334 141.343 365.199 141.431 366.192 141.431C367.158 141.431 368.024 141.343 368.789 141.169C369.554 140.994 370.198 140.746 370.721 140.424C371.258 140.102 371.668 139.72 371.949 139.277C372.231 138.834 372.372 138.344 372.372 137.807ZM376.016 117.114V118.442C376.016 118.885 375.734 119.167 375.17 119.288L372.855 119.59C373.311 120.475 373.54 121.455 373.54 122.528C373.54 123.522 373.345 124.427 372.956 125.246C372.58 126.051 372.057 126.742 371.386 127.319C370.715 127.896 369.91 128.339 368.97 128.648C368.031 128.957 367.011 129.111 365.91 129.111C364.958 129.111 364.058 128.997 363.213 128.769C362.784 129.037 362.455 129.326 362.227 129.634C361.998 129.93 361.884 130.232 361.884 130.54C361.884 131.023 362.079 131.392 362.468 131.647C362.871 131.889 363.394 132.063 364.038 132.171C364.682 132.278 365.414 132.345 366.232 132.372C367.064 132.399 367.91 132.446 368.769 132.513C369.641 132.567 370.487 132.667 371.305 132.815C372.137 132.963 372.875 133.204 373.52 133.54C374.164 133.875 374.68 134.338 375.07 134.929C375.472 135.519 375.673 136.284 375.673 137.223C375.673 138.096 375.452 138.941 375.009 139.76C374.58 140.578 373.956 141.303 373.137 141.934C372.318 142.578 371.312 143.088 370.118 143.464C368.937 143.853 367.601 144.047 366.112 144.047C364.622 144.047 363.32 143.9 362.206 143.605C361.093 143.309 360.167 142.913 359.429 142.417C358.69 141.92 358.133 141.343 357.758 140.686C357.395 140.042 357.214 139.364 357.214 138.653C357.214 137.646 357.53 136.794 358.16 136.096C358.791 135.398 359.657 134.841 360.757 134.425C360.153 134.157 359.67 133.801 359.308 133.358C358.959 132.902 358.784 132.292 358.784 131.527C358.784 131.231 358.838 130.929 358.945 130.621C359.053 130.299 359.214 129.983 359.429 129.675C359.657 129.353 359.932 129.051 360.254 128.769C360.576 128.487 360.952 128.239 361.381 128.024C360.375 127.46 359.59 126.716 359.026 125.79C358.462 124.85 358.18 123.763 358.18 122.528C358.18 121.535 358.368 120.636 358.744 119.831C359.133 119.012 359.67 118.321 360.354 117.758C361.039 117.181 361.851 116.738 362.79 116.429C363.743 116.12 364.783 115.966 365.91 115.966C366.796 115.966 367.621 116.067 368.386 116.268C369.151 116.456 369.849 116.738 370.48 117.114H376.016ZM383.505 116.308V136.7H379.922V116.308H383.505ZM384.27 109.907C384.27 110.256 384.196 110.585 384.049 110.893C383.915 111.189 383.727 111.457 383.485 111.699C383.257 111.927 382.982 112.108 382.66 112.242C382.351 112.376 382.022 112.443 381.673 112.443C381.324 112.443 380.996 112.376 380.687 112.242C380.392 112.108 380.13 111.927 379.902 111.699C379.674 111.457 379.493 111.189 379.358 110.893C379.224 110.585 379.157 110.256 379.157 109.907C379.157 109.558 379.224 109.229 379.358 108.921C379.493 108.599 379.674 108.323 379.902 108.095C380.13 107.854 380.392 107.666 380.687 107.532C380.996 107.397 381.324 107.33 381.673 107.33C382.022 107.33 382.351 107.397 382.66 107.532C382.982 107.666 383.257 107.854 383.485 108.095C383.727 108.323 383.915 108.599 384.049 108.921C384.196 109.229 384.27 109.558 384.27 109.907ZM395.653 137.022C394.043 137.022 392.801 136.573 391.929 135.673C391.07 134.774 390.641 133.479 390.641 131.788V119.308H388.185C387.97 119.308 387.789 119.247 387.641 119.127C387.494 118.992 387.42 118.791 387.42 118.523V117.093L390.761 116.671L391.587 110.37C391.627 110.169 391.714 110.008 391.849 109.887C391.996 109.753 392.184 109.686 392.412 109.686H394.224V116.711H400.122V119.308H394.224V131.547C394.224 132.406 394.432 133.043 394.848 133.459C395.264 133.875 395.801 134.083 396.458 134.083C396.834 134.083 397.156 134.036 397.425 133.942C397.706 133.835 397.948 133.721 398.149 133.6C398.35 133.479 398.518 133.372 398.652 133.278C398.8 133.171 398.928 133.117 399.035 133.117C399.223 133.117 399.391 133.231 399.538 133.459L400.585 135.17C399.968 135.747 399.223 136.203 398.35 136.539C397.478 136.861 396.579 137.022 395.653 137.022ZM414.873 127.521C413.222 127.574 411.813 127.709 410.646 127.923C409.492 128.125 408.546 128.393 407.807 128.729C407.083 129.064 406.553 129.46 406.217 129.916C405.895 130.372 405.734 130.882 405.734 131.446C405.734 131.983 405.821 132.446 405.996 132.835C406.17 133.224 406.405 133.546 406.7 133.801C407.009 134.043 407.365 134.224 407.767 134.345C408.183 134.452 408.626 134.506 409.096 134.506C409.727 134.506 410.304 134.445 410.827 134.325C411.35 134.19 411.84 134.003 412.296 133.761C412.766 133.519 413.209 133.231 413.625 132.895C414.055 132.56 414.471 132.177 414.873 131.748V127.521ZM403.298 119.187C404.426 118.1 405.64 117.288 406.942 116.751C408.244 116.214 409.686 115.946 411.27 115.946C412.411 115.946 413.424 116.134 414.309 116.51C415.195 116.885 415.94 117.409 416.544 118.08C417.148 118.751 417.604 119.563 417.913 120.515C418.221 121.468 418.376 122.515 418.376 123.656V136.7H416.785C416.437 136.7 416.168 136.646 415.98 136.539C415.792 136.418 415.645 136.19 415.537 135.855L415.135 133.922C414.598 134.419 414.075 134.861 413.565 135.251C413.055 135.626 412.518 135.948 411.954 136.217C411.391 136.472 410.787 136.666 410.143 136.801C409.512 136.948 408.807 137.022 408.029 137.022C407.237 137.022 406.492 136.915 405.794 136.7C405.097 136.472 404.486 136.136 403.963 135.694C403.453 135.251 403.043 134.694 402.735 134.023C402.439 133.338 402.292 132.533 402.292 131.607C402.292 130.802 402.513 130.03 402.956 129.292C403.399 128.541 404.117 127.876 405.11 127.299C406.103 126.722 407.398 126.253 408.995 125.89C410.592 125.514 412.551 125.3 414.873 125.246V123.656C414.873 122.072 414.531 120.878 413.846 120.073C413.162 119.254 412.162 118.845 410.847 118.845C409.961 118.845 409.217 118.959 408.613 119.187C408.022 119.402 407.506 119.65 407.063 119.932C406.633 120.2 406.257 120.448 405.935 120.677C405.627 120.891 405.318 120.999 405.009 120.999C404.768 120.999 404.56 120.938 404.385 120.817C404.211 120.683 404.063 120.522 403.943 120.334L403.298 119.187ZM427.538 107.049V136.7H423.955V107.049H427.538Z" fill="#D2D2D2"/>
</svg>
