<svg width="83" height="31" viewBox="0 0 83 31" fill="none" xmlns="http://www.w3.org/2000/svg">
<path d="M4.94565 0.212524H0V24.977H5.81522C8.8587 24.977 10.9783 24.0712 12.192 22.2777C13.4058 20.4843 14.0036 17.2053 14.0036 12.477C14.0036 7.82122 13.4058 4.6147 12.192 2.85745C10.9783 1.10021 8.56884 0.212524 4.94565 0.212524ZM8.20652 21.0459C7.77174 21.8792 6.99275 22.2777 5.86957 22.2777H4.98188V2.92992H5.86957C7.01087 2.92992 7.78986 3.63644 8.22464 5.03137C8.65942 6.42629 8.87681 8.99876 8.87681 12.7306C8.8587 17.4408 8.64131 20.2125 8.20652 21.0459Z" fill="black"/>
<path d="M19.6378 0.230591H14.9639V4.5603H19.6378V0.230591Z" fill="black"/>
<path d="M19.6378 6.00964H14.9639V24.977H19.6378V6.00964Z" fill="black"/>
<path d="M27.4818 14.2705C25.9963 12.9661 25.1086 12.0784 24.8187 11.5893C24.5289 11.1002 24.384 10.6111 24.384 10.0857C24.384 9.65091 24.5108 9.32482 24.7644 9.08931C25.018 8.85381 25.326 8.74511 25.7064 8.74511C26.1593 8.74511 26.5035 8.92627 26.7571 9.27047C27.0108 9.61468 27.1376 10.0857 27.1376 10.6473H30.8695C30.8695 9.08931 30.4166 7.87555 29.5289 7.0241C28.6412 6.17265 27.355 5.75598 25.6702 5.75598C24.0941 5.75598 22.826 6.17265 21.8658 6.98787C20.9057 7.8212 20.4166 8.92627 20.4166 10.3212C20.4166 11.6618 20.6158 12.785 20.9963 13.6908C21.3767 14.5966 22.2825 15.6654 23.7137 16.9154C24.8369 17.8755 25.6521 18.6364 26.1412 19.1618C26.6303 19.6871 26.884 20.1763 26.884 20.6292C26.884 21.1183 26.7753 21.4806 26.5398 21.7342C26.3042 21.9879 25.96 22.0966 25.489 22.0966C24.9999 22.0966 24.6376 21.9335 24.384 21.6255C24.1303 21.3176 24.0035 20.8103 24.0035 20.1219H20.2173C20.2173 21.7886 20.6702 23.0567 21.576 23.89C22.4818 24.7234 23.8224 25.14 25.6158 25.14C27.2825 25.14 28.5869 24.6871 29.547 23.7995C30.5071 22.9118 30.9782 21.6618 30.9782 20.0495C30.9782 19.0169 30.7245 18.0748 30.2173 17.2415C29.71 16.4082 28.8042 15.4299 27.4818 14.2705Z" fill="black"/>
<path d="M81.9927 17.2597C81.4854 16.4263 80.5796 15.43 79.2753 14.2887C77.7898 12.9843 76.9021 12.0966 76.6122 11.6075C76.3224 11.1184 76.1775 10.6292 76.1775 10.1039C76.1775 9.6691 76.3043 9.34301 76.5579 9.1075C76.8115 8.872 77.1195 8.7633 77.4999 8.7633C77.9528 8.7633 78.297 8.94446 78.5507 9.28866C78.8043 9.63287 78.9311 10.1039 78.9311 10.6655H82.663C82.663 9.1075 82.2101 7.89374 81.3224 7.04229C80.4347 6.19084 79.1485 5.77417 77.4637 5.77417C75.8876 5.77417 74.6195 6.19084 73.6593 7.00605C72.6992 7.83939 72.2101 8.94446 72.2101 10.3394C72.2101 11.68 72.4093 12.8032 72.7898 13.709C73.1702 14.6147 74.076 15.6836 75.5072 16.9336C76.6304 17.8937 77.4456 18.6546 77.9347 19.18C78.4238 19.7053 78.6775 20.1945 78.6775 20.6474C78.6775 21.1365 78.5688 21.4988 78.3151 21.7524C78.0796 22.0061 77.7354 22.1147 77.2644 22.1147C76.7753 22.1147 76.413 21.9517 76.1593 21.6437C75.9057 21.3358 75.7789 20.8285 75.7789 20.1401H71.9927C71.9927 21.8068 72.4456 23.0749 73.3514 23.9082C74.2572 24.7416 75.5978 25.1582 77.3912 25.1582C79.0579 25.1582 80.3622 24.7053 81.3224 23.8177C82.2825 22.93 82.7535 21.68 82.7535 20.0676C82.7354 19.0169 82.4818 18.093 81.9927 17.2597Z" fill="black"/>
<path d="M40.7608 20.2669H39.0036C38.9311 21.0821 38.8043 21.6074 38.605 21.8611C38.4057 22.1147 38.0978 22.2234 37.6811 22.2234C37.0108 22.2234 36.576 21.8248 36.3949 21.0458C36.1956 20.2669 36.105 18.4009 36.105 15.448C36.105 12.8937 36.1956 11.1364 36.3586 10.1582C36.5217 9.17989 36.9565 8.69076 37.6268 8.69076C38.0253 8.69076 38.3152 8.85381 38.4782 9.19801C38.6413 9.54221 38.7318 10.285 38.7318 11.4444H40.7789C41.2318 10.5024 41.7934 9.63279 42.5 8.87192C42.2826 8.20163 41.9384 7.62192 41.5036 7.16903C40.5978 6.227 39.2934 5.75598 37.6086 5.75598C35.4891 5.75598 33.8949 6.5712 32.8442 8.20163C31.7934 9.83207 31.2681 12.2415 31.2681 15.448C31.2681 18.6726 31.7753 21.1002 32.7898 22.7125C33.8043 24.3429 35.2898 25.1582 37.2644 25.1582C39.0036 25.1582 40.3079 24.7596 41.1775 23.9625C41.6123 23.564 41.9202 23.0748 42.1376 22.4589C41.5942 21.7886 41.1413 21.0458 40.7608 20.2669Z" fill="black"/>
<path d="M60.6702 15.8828C60.6702 17.7306 60.1992 19.4516 59.3478 20.9553C59.6376 22.0241 60.0543 22.8393 60.5978 23.419C61.3405 24.1799 62.3731 24.5603 63.6956 24.5603C64.4746 24.5603 65.163 24.4516 65.7427 24.2524C66.3224 24.0531 66.721 23.7813 66.9202 23.4553C66.9383 23.6364 66.9565 23.8176 66.9565 23.9625C66.9746 24.1074 66.9746 24.2524 66.9746 24.3792C66.9746 25.3755 66.7572 26.1183 66.3043 26.6256C65.8514 27.1328 65.163 27.4045 64.221 27.4045C63.605 27.4045 62.9166 27.3321 62.1739 27.1871C61.4311 27.0422 60.8152 26.8792 60.3441 26.6618L59.7644 29.2524C60.471 29.5784 61.2499 29.814 62.1195 29.977C62.9891 30.14 63.8405 30.2125 64.6739 30.2125C66.7028 30.2125 68.297 29.7053 69.4927 28.6908C70.6702 27.6763 71.2681 26.2451 71.2681 24.3973V6.0096H66.6123V6.4625C66.1956 6.20888 65.7789 6.02772 65.3623 5.91902C64.9456 5.81033 64.4565 5.75598 63.8949 5.75598C62.7536 5.75598 61.7934 6.10018 61.0144 6.80671C60.2173 7.51323 59.6557 8.49149 59.3115 9.72337C59.2572 9.94076 59.1847 10.1944 59.1304 10.5024C60.1086 12.0784 60.6521 13.9082 60.6702 15.8828ZM66.6485 21.4625C66.4492 21.6256 66.2499 21.7342 66.0507 21.8067C65.8514 21.8792 65.5797 21.9154 65.2536 21.9154C64.8188 21.9154 64.4927 21.7886 64.2572 21.535C64.0217 21.2813 63.8767 20.8647 63.8224 20.285C63.7681 19.6871 63.7137 18.9263 63.6775 18.0205C63.6412 17.1147 63.6231 16.1545 63.6231 15.14C63.6231 14.4879 63.6412 13.7632 63.6775 12.9118C63.7137 12.0784 63.7681 11.2995 63.8405 10.5748C63.913 9.8683 64.0579 9.39729 64.3115 9.14366C64.5652 8.89004 64.9456 8.76323 65.4528 8.76323C65.634 8.76323 65.8514 8.79946 66.0869 8.83569C66.3224 8.89004 66.5217 8.9625 66.6485 9.03497V21.4625Z" fill="black"/>
<path d="M80.0906 4.19803C80.1631 4.0531 80.2537 3.92629 80.3624 3.81759C80.4711 3.7089 80.616 3.63643 80.7609 3.56397C80.9058 3.50962 81.0689 3.47339 81.2319 3.47339C81.395 3.47339 81.558 3.50962 81.7029 3.56397C81.8479 3.61832 81.9928 3.7089 82.1015 3.81759C82.2102 3.92629 82.3008 4.0531 82.3732 4.19803C82.4457 4.34295 82.4819 4.52411 82.4819 4.70527C82.4819 4.88643 82.4457 5.06759 82.3732 5.21252C82.3008 5.35745 82.2102 5.48426 82.1015 5.59295C81.9928 5.70165 81.8479 5.77411 81.7029 5.82846C81.558 5.88281 81.395 5.91904 81.2319 5.91904C81.0689 5.91904 80.9058 5.88281 80.7609 5.82846C80.616 5.77411 80.4711 5.68353 80.3624 5.59295C80.2537 5.50237 80.1631 5.35745 80.0906 5.21252C80.0182 5.06759 79.9819 4.88643 79.9819 4.70527C80 4.506 80.0363 4.34295 80.0906 4.19803ZM80.3986 5.08571C80.4529 5.1944 80.5073 5.3031 80.5979 5.39368C80.6885 5.48426 80.779 5.53861 80.8877 5.59295C80.9964 5.6473 81.1232 5.66542 81.25 5.66542C81.3769 5.66542 81.5037 5.6473 81.6124 5.59295C81.7211 5.53861 81.8298 5.48426 81.9022 5.39368C81.9928 5.3031 82.0472 5.21252 82.1015 5.08571C82.1558 4.97701 82.174 4.83208 82.174 4.70527C82.174 4.57846 82.1558 4.43353 82.1015 4.32484C82.0472 4.21614 81.9928 4.10745 81.9022 4.01687C81.8116 3.92629 81.7211 3.87194 81.6124 3.81759C81.5037 3.76324 81.3769 3.74513 81.25 3.74513C81.1232 3.74513 80.9964 3.76324 80.8877 3.81759C80.779 3.87194 80.6703 3.92629 80.5979 4.01687C80.5073 4.10745 80.4529 4.19803 80.3986 4.32484C80.3443 4.43353 80.3261 4.56035 80.3261 4.70527C80.3261 4.8502 80.3443 4.9589 80.3986 5.08571ZM81.2682 4.01687C81.4312 4.01687 81.5761 4.0531 81.6667 4.10745C81.7573 4.16179 81.8116 4.27049 81.8116 4.41542C81.8116 4.46977 81.7935 4.52411 81.7754 4.57846C81.7573 4.61469 81.7392 4.65093 81.7029 4.68716C81.6667 4.72339 81.6305 4.7415 81.5943 4.75962C81.558 4.77774 81.5037 4.77774 81.4493 4.79585L81.8116 5.39368H81.5218L81.1957 4.81397H81.0327V5.39368H80.7609V4.01687H81.2682ZM81.2682 4.57846C81.3406 4.57846 81.4131 4.56035 81.4674 4.54223C81.5218 4.52411 81.5399 4.46977 81.5399 4.37919C81.5399 4.34295 81.5399 4.30672 81.5218 4.28861C81.5037 4.27049 81.4856 4.25237 81.4493 4.23426C81.4312 4.21614 81.395 4.21614 81.3587 4.21614C81.3225 4.21614 81.2863 4.21614 81.2682 4.21614H81.0327V4.57846H81.2682Z" fill="black"/>
<path d="M50.145 6.0459C50.1813 6.06401 50.2175 6.06401 50.2356 6.06401C50.1994 6.06401 50.1631 6.0459 50.145 6.0459Z" fill="black"/>
<path d="M46.6485 19.6147L46.7028 19.5603L47.3369 18.8719L47.355 18.8538L47.6992 18.4734C47.6992 18.4734 47.6992 18.4734 47.7173 18.4915C47.0289 17.8393 46.6123 16.9154 46.6123 15.8828C46.6123 13.8719 48.2427 12.2415 50.2536 12.2415C50.9239 12.2415 51.5398 12.4227 52.0652 12.7306L52.7898 11.4263L52.826 11.3538L53.5507 10.0132L53.5869 9.94078L54.3115 8.6002L54.3478 8.52773L54.7282 7.82121L54.9999 7.31397C53.6231 6.53498 52.047 6.08208 50.3623 6.06396H50.1992C44.8007 6.06396 40.4347 10.4118 40.3804 15.7922V15.8828C40.3804 18.6908 41.576 21.227 43.4782 23.0205L43.9673 22.4951L44.4565 21.9698L44.5108 21.9154L45.5434 20.7922L45.5978 20.7379L46.6485 19.6147Z" fill="black"/>
<path d="M57.0833 8.83569L56.1413 9.85019L56.0869 9.90453L55.0543 11.0277L55 11.0821L53.9674 12.2053L53.913 12.2596L53.5326 12.6763L52.8985 13.3466C53.5145 13.9987 53.8949 14.8864 53.8949 15.8466C53.8949 17.8574 52.2645 19.4879 50.2717 19.4879C49.6558 19.4879 49.0942 19.3429 48.5869 19.0712L47.8623 20.3756L46.8297 22.2053L46.2862 23.1654L46.25 23.2379L45.5435 24.4879C46.9384 25.2487 48.5507 25.7016 50.2536 25.7016C55.6703 25.7016 60.0724 21.2995 60.0724 15.8828C60.0543 13.1111 58.913 10.6292 57.0833 8.83569Z" fill="black"/>
<path d="M50.2536 15.1763C49.8732 15.1763 49.5652 15.4842 49.5652 15.8647C49.5652 16.2451 49.8732 16.5531 50.2536 16.5531C50.634 16.5531 50.942 16.2451 50.942 15.8647C50.942 15.4842 50.634 15.1763 50.2536 15.1763Z" fill="black"/>
</svg>
