<svg width="392" height="102" viewBox="0 0 392 102" fill="none" xmlns="http://www.w3.org/2000/svg">
<path d="M137.5 21.5H154.1C167.4 21.5 175.9 28.5 175.9 40.6C175.9 52.7 167.4 59.7 154.1 59.7H145.1V84.9H137.4L137.5 21.5ZM153.5 52.5C162.2 52.5 168.1 48.7 168.1 40.6C168.1 32.5 162.2 28.7 153.5 28.7H145.1V52.4H153.5V52.5Z" fill="black"/>
<path d="M210.2 21.5H217.3L242.2 84.8H234.2L227.5 67.7H199.9L193.2 84.8H185L210.2 21.5ZM202.8 60.6H224.7L213.7 32.5L202.8 60.6Z" fill="black"/>
<path d="M309.1 53.2C309.1 71.5 297.3 84.9 277.5 84.9H259.1V21.5H277.5C297.3 21.5 309.1 34.9 309.1 53.2ZM300.9 53.2C300.9 39.7 292.7 28.8 277.1 28.8H266.9V77.7H277.1C292.7 77.7 300.9 66.7 300.9 53.2Z" fill="black"/>
<path d="M327.9 21.5H335.6V84.8H327.9V21.5Z" fill="black"/>
<path d="M372.2 56.3C363.4 52.2 355.6 48.1 355.6 37.6C355.6 30.4 361.5 21.5 373.1 21.5C376.5 21.5 379.8 22.4 382.8 23.9C385.8 25.5 388.4 27.7 390.4 30.4L384.9 34.9C384.9 34.9 380.7 28.6 373.1 28.6C366.4 28.6 362.9 33.3 362.9 37.7C362.9 43.9 368.1 46.4 376.4 50.2C385.7 54.5 391.5 58.4 391.5 68.3C391.5 78.2 383.3 84.9 372.7 84.9C358.3 84.8 353.3 72.1 353.3 72.1L359.4 68.4C359.4 68.4 363 77.9 372.7 77.9C378.5 77.9 384.1 74.6 384.1 68.3C384 62 379 59.5 372.2 56.3Z" fill="black"/>
<path fill-rule="evenodd" clip-rule="evenodd" d="M0.992371 51.06L51.0555 0.996887L101.119 51.06L51.0555 101.123L0.992371 51.06ZM17.6801 51.06L51.0556 17.6846L84.431 51.06L51.0556 84.4355L17.6801 51.06Z" fill="#E62333"/>
<g style="mix-blend-mode:multiply">
<g style="mix-blend-mode:multiply">
<path d="M51.0555 34.3723L34.3678 51.0601L51.0555 67.7478L67.7432 51.0601L51.0555 34.3723Z" fill="#E62535"/>
</g>
</g>
<path d="M34.3716 0.998461L0.996155 34.3739L17.6839 51.0616L51.0593 17.6862L34.3716 0.998461Z" fill="#014965"/>
<path d="M51.0636 17.6836L84.439 51.059L101.127 34.3713L67.7513 0.995862L51.0636 17.6836Z" fill="#014965"/>
<path d="M1.00328 67.7536L34.3787 101.129L51.0664 84.4413L17.691 51.0659L1.00328 67.7536Z" fill="#014965"/>
<path d="M84.4413 51.0685L51.0659 84.4439L67.7536 101.132L101.129 67.7562L84.4413 51.0685Z" fill="#014965"/>
<path d="M42.7108 9.34038L9.33539 42.7158L17.6792 51.0597L51.0547 17.6842L42.7108 9.34038Z" fill="#30343F"/>
<path d="M42.7108 9.34038L9.33539 42.7158L17.6792 51.0597L51.0547 17.6842L42.7108 9.34038Z" fill="#30343F"/>
<path d="M51.0699 17.6987L84.4453 51.0742L92.7892 42.7303L59.4137 9.35486L51.0699 17.6987Z" fill="#30343F"/>
<path d="M84.4318 51.0604L51.0564 84.4358L59.4003 92.7797L92.7757 59.4042L84.4318 51.0604Z" fill="#30343F"/>
<path d="M9.34087 59.4187L42.7163 92.7941L51.0602 84.4503L17.6847 51.0748L9.34087 59.4187Z" fill="#30343F"/>
</svg>
