<?xml version="1.0" encoding="utf-8"?>
<!-- Generator: Adobe Illustrator 25.0.0, SVG Export Plug-In . SVG Version: 6.00 Build 0)  -->
<svg version="1.1" id="Layer_1" xmlns="http://www.w3.org/2000/svg" xmlns:xlink="http://www.w3.org/1999/xlink" x="0px" y="0px"
	 width="2310.4px" height="619.3px" viewBox="0 0 2310.4 619.3" style="enable-background:new 0 0 2310.4 619.3;"
	 xml:space="preserve">
<path style="fill:white" d="M449.9,281.2l-4.5-7.8c0.2-56.1-25.9-79-56.2-96.4c9.2-2.4,18.7-4.4,21.3-16c15.8-4,19.1-11.3,20.7-19.1
	c4.1-2.8,17.9-10.5,16.5-23.8c7.7-5.3,12-12.2,9.9-21.9c8.3-9.1,10.5-16.6,7-23.5c10-12.4,5.6-18.8,1.3-25.3
	c7.5-13.6,0.9-28.1-20-25.7c-8.3-12.2-26.4-9.4-29.2-9.4c-3.1-3.9-7.3-7.3-20-5.7c-8.2-7.4-17.5-6.1-27-2.5
	c-11.3-8.8-18.8-1.7-27.3,0.9c-13.7-4.4-16.8,1.6-23.5,4.1c-14.9-3.1-19.5,3.7-26.6,10.8l-8.3-0.2c-22.5,13.1-33.7,39.7-37.6,53.3
	c-4-13.7-15.1-40.3-37.6-53.3l-8.3,0.2c-7.2-7.1-11.7-13.9-26.6-10.8c-6.7-2.5-9.8-8.5-23.5-4.1c-5.6-1.7-10.8-5.4-16.8-5.2l0,0
	c-3.2,0.1-6.6,1.3-10.5,4.3c-9.5-3.6-18.7-4.9-27,2.5c-12.7-1.6-16.9,1.7-20,5.7c-2.8-0.1-20.9-2.8-29.2,9.4
	c-20.9-2.4-27.5,12.1-20,25.7c-4.3,6.5-8.7,12.9,1.3,25.3c-3.5,6.9-1.3,14.4,7,23.5c-2.2,9.7,2.1,16.6,9.9,21.9
	c-1.4,13.3,12.4,21,16.5,23.8c1.6,7.7,4.9,15,20.7,19.1c2.6,11.5,12.1,13.5,21.3,16c-30.4,17.4-56.4,40.3-56.2,96.4l-4.4,7.8
	C7.6,302-23.7,369.1,25.3,423.5c3.2,17.1,8.6,29.3,13.3,42.9c7.1,54.6,53.8,80.2,66.1,83.2c18,13.5,37.2,26.4,63.2,35.3
	c24.5,24.9,51,34.4,77.7,34.3c0.4,0,0.8,0,1.2,0c26.7,0,53.2-9.5,77.7-34.3c26-9,45.2-21.8,63.2-35.3c12.3-3,58.9-28.6,66.1-83.2
	c4.8-13.6,10.1-25.8,13.3-42.9C516.1,369.1,484.7,302,449.9,281.2z M423.1,271.6c-1.8,22.6-119.6-78.7-99.3-82.1
	C379,180.3,425,212.6,423.1,271.6z M371.1,384.2c-29.6,19.1-72.3,6.8-95.4-27.6c-23-34.3-17.7-77.7,11.9-96.8
	c29.6-19.1,72.3-6.8,95.4,27.6C406.1,321.8,400.7,365.1,371.1,384.2z M289,35.4c1,5.1,2.2,8.3,3.5,9.2c6.5-7,11.9-14.2,20.3-21
	c0,4-2,8.3,3,11.4c4.5-6.1,10.6-11.5,18.7-16.1c-3.9,6.7-0.7,8.8,1.4,11.6c6.2-5.3,12.1-10.7,23.5-14.9c-3.1,3.8-7.5,7.5-2.9,11.9
	c6.4-4,12.8-8,28-10.8c-3.4,3.8-10.5,7.6-6.2,11.4c8-3.1,16.9-5.3,26.7-6.6c-4.7,3.9-8.6,7.6-4.8,10.6c8.6-2.6,20.4-6.2,31.9-3.1
	l-7.3,7.4c-0.8,1,17.1,0.8,28.9,0.9c-4.3,6-8.7,11.8-11.3,22.1c1.2,1.2,7,0.5,12.5,0c-5.7,11.9-15.5,14.9-17.8,20
	c3.5,2.6,8.3,1.9,13.5,0.2c-4.1,8.4-12.6,14.2-19.4,21c1.7,1.2,4.7,1.9,11.8,1.1c-6.2,6.6-13.8,12.7-22.7,18.1
	c1.6,1.8,7,1.8,12.1,1.9c-8.1,7.9-18.5,12-28.3,17.2c4.9,3.3,8.3,2.6,12.1,2.5c-6.9,5.7-18.6,8.6-29.5,12c2.1,3.2,4.1,4.1,8.6,5
	c-11.5,6.4-28.1,3.5-32.7,6.7c1.1,3.2,4.3,5.3,8.1,7c-18.6,1.1-69.4-0.7-79.1-39.1c19-20.9,53.7-45.4,113.4-75.7
	c-46.4,15.5-88.3,36.3-123.4,64.8C240.5,103,268.9,54.6,289,35.4z M247.4,174L247.4,174c29.2-0.3,65.4,21.5,65.3,42
	c-0.1,18.1-25.4,32.8-65.1,32.5c-38.8-0.5-65-18.4-64.9-36C182.8,198.1,214.4,173.2,247.4,174z M98.6,158.5c4.4-0.9,6.5-1.8,8.6-5
	c-10.9-3.4-22.6-6.4-29.5-12c3.7,0,7.2,0.8,12.1-2.5c-9.8-5.2-20.2-9.3-28.3-17.2c5-0.1,10.5,0,12.1-1.9
	c-8.9-5.5-16.5-11.5-22.7-18.1c7.1,0.8,10,0.1,11.8-1.1c-6.8-6.8-15.3-12.6-19.4-21c5.2,1.8,10,2.5,13.5-0.2
	c-2.3-5.1-12.1-8.1-17.8-20c5.5,0.5,11.4,1.2,12.5,0c-2.6-10.3-7-16.1-11.3-22.1c11.8-0.2,29.7,0,28.9-0.9l-7.3-7.4
	c11.5-3.1,23.3,0.5,31.9,3.1c3.8-3-0.1-6.8-4.8-10.6c9.8,1.3,18.7,3.5,26.7,6.6c4.3-3.8-2.8-7.6-6.2-11.4c15.2,2.8,21.6,6.8,28,10.8
	c4.6-4.4,0.3-8.1-2.9-11.9c11.4,4.2,17.3,9.5,23.5,14.9c2.1-2.8,5.3-4.8,1.4-11.6c8.1,4.6,14.2,10,18.7,16.1c5-3.1,3-7.5,3-11.4
	c8.4,6.8,13.8,13.9,20.3,21c1.3-0.9,2.5-4.2,3.5-9.2c20.1,19.2,48.5,67.6,7.3,86.8C177.3,93.8,135.4,73,89,57.5
	c59.6,30.3,94.3,54.8,113.3,75.7c-9.7,38.4-60.5,40.2-79.1,39.1c3.8-1.7,7-3.8,8.1-7C126.7,162,110.2,164.9,98.6,158.5z
	 M171.3,187.8c20.3,3.4-97.5,104.7-99.3,82.1C70.2,210.9,116.1,178.6,171.3,187.8z M46.3,413.7c-28.6-22.7-37.9-89.1,15.2-119
	C93.5,286.3,72.3,425.1,46.3,413.7z M156.3,532.4c-16.1,9.6-55.4,5.6-83.2-33.8c-18.8-33.1-16.4-66.8-3.2-76.7
	c19.7-11.8,50.2,4.2,73.7,31C164.1,477.2,173.4,519.8,156.3,532.4z M124.3,387.7c-29.6-19.1-35-62.5-11.9-96.8
	c23-34.3,65.7-46.7,95.4-27.6c29.6,19.1,35,62.5,11.9,96.8C196.6,394.5,153.9,406.8,124.3,387.7z M248,600
	c-35.5,1.5-70.3-28.7-69.9-39.1c-0.5-15.3,43.2-27.3,71.8-26.6c28.7-1.2,67.3,9.1,67.3,22.8C317.7,570.5,282.3,600.6,248,600z
	 M319.2,448.8c0.2,35.9-31.6,65.1-71.1,65.3c-39.5,0.2-71.7-28.7-71.9-64.6c0-0.2,0-0.5,0-0.7c-0.2-35.9,31.6-65.1,71.1-65.3
	c39.5-0.2,71.7,28.7,71.9,64.6C319.2,448.4,319.2,448.6,319.2,448.8z M418.7,500.5c-30.6,41.8-72,43.5-87.5,31.8
	c-16.1-15-3.8-61.6,18.3-87.1v0c25.3-28.2,52.4-46.5,71.2-32.2C433.5,425.5,440.9,472.4,418.7,500.5z M446.3,412
	c-26,11.4-47.2-127.4-15.2-119C484.2,322.9,475,389.3,446.3,412z"/>
<g>
	<path style="fill:white" d="M594.2,306.7v83.9h-42.1V180.8h79.1c23.9,0,42.6,5.5,56.1,16.4c13.5,10.9,20.2,26.1,20.2,45.6
		c0,10.9-2.8,20.2-8.5,28c-5.7,7.8-14,14.1-24.9,18.9c12.4,3.7,21.3,9.8,26.7,18.3c5.4,8.6,8.1,19.1,8.1,31.7V355
		c0,5.9,0.8,12,2.4,18.4c1.6,6.4,4.3,11.1,8.1,14.2v3h-43.4c-3.8-3.1-6.3-8.2-7.5-15.4c-1.2-7.2-1.7-14-1.7-20.5v-14.8
		c0-10.5-2.9-18.6-8.6-24.4c-5.7-5.8-13.8-8.7-24.1-8.7H594.2z M594.2,274.3h36.3c11.8,0,20.6-2.5,26.4-7.5c5.8-5,8.7-12.4,8.7-22.2
		c0-9.6-2.9-17.2-8.7-22.9c-5.8-5.7-14.4-8.5-25.7-8.5h-37V274.3z"/>
	<path style="fill:white" d="M835.2,390.6c-1.5-3.6-2.9-7.3-4-11.2c-1.1-3.9-1.9-8-2.4-12.1c-4.3,7.6-10,13.9-17.1,18.9
		c-7.1,5-15.5,7.5-25.3,7.5c-16.3,0-28.9-4.2-37.8-12.6c-8.8-8.4-13.3-19.9-13.3-34.4c0-15.3,5.9-27.1,17.7-35.5
		c11.8-8.4,28.9-12.6,51.5-12.6h23.5v-12.4c0-7.5-2-13.3-5.9-17.4c-3.9-4.1-9.8-6.2-17.4-6.2c-6.8,0-12.1,1.7-15.8,5
		c-3.7,3.3-5.5,7.9-5.5,13.8l-40.6-0.1l-0.1-0.9c-0.7-13.2,5-24.5,17.1-34.1c12.1-9.6,28-14.3,47.7-14.3c18.6,0,33.8,4.7,45.4,14.2
		c11.6,9.5,17.4,22.9,17.4,40.4v64.4c0,7.3,0.6,14.2,1.7,20.6c1.1,6.4,2.9,12.8,5.3,19.2H835.2z M796.8,362.5c7.4,0,14-1.8,19.7-5.5
		c5.8-3.6,9.7-7.9,11.7-12.7v-22h-23.5c-8.9,0-15.7,2.2-20.3,6.7c-4.6,4.5-6.9,9.9-6.9,16.2c0,5.2,1.7,9.4,5.2,12.5
		S790.8,362.5,796.8,362.5z"/>
	<path style="fill:white" d="M986.5,347.6c0-4.6-2.2-8.6-6.7-12c-4.5-3.4-12.8-6.3-24.9-8.9c-18.4-3.7-32.3-9.3-41.7-16.6
		c-9.4-7.3-14-17.4-14-30c0-13.4,5.6-24.9,16.9-34.2c11.3-9.4,26.4-14,45.3-14c19.9,0,35.7,4.7,47.5,14
		c11.8,9.3,17.4,21.1,16.9,35.3l-0.3,0.9h-40.6c0-6.2-2-11.3-6-15.3c-4-3.9-9.8-5.9-17.5-5.9c-6.8,0-12.2,1.7-16.1,5
		c-3.9,3.3-5.8,7.5-5.8,12.5c0,4.8,2,8.7,6.1,11.8c4.1,3.1,12.4,5.8,24.9,8.2c19.2,3.8,33.5,9.5,42.8,16.9c9.3,7.4,14,17.7,14,30.8
		c0,14-6,25.5-18,34.4c-12,8.9-27.9,13.3-47.5,13.3c-20.7,0-37.2-5.3-49.2-15.8c-12.1-10.5-17.8-22.5-17.2-35.9l0.3-0.9h38.5
		c0.3,8.4,3,14.4,8.2,18.2s12,5.6,20.3,5.6c7.8,0,13.7-1.5,17.8-4.6C984.5,357.1,986.5,352.9,986.5,347.6z"/>
	<path style="fill:white" d="M1195,316.9c0,23.1-5.3,41.6-16,55.6c-10.7,14-25.6,21-44.7,21c-8.2,0-15.4-1.5-21.8-4.5
		c-6.3-3-11.8-7.5-16.3-13.3v74.8h-41.9V234.7h37.9l2.4,18.4c4.6-6.8,10.2-12.1,16.6-15.8c6.5-3.7,14-5.5,22.7-5.5
		c19.3,0,34.3,7.5,45,22.6c10.7,15.1,16,34.9,16,59.5V316.9z M1152.9,313.7c0-14.7-2.4-26.6-7.3-35.8c-4.9-9.1-12.4-13.7-22.5-13.7
		c-6.3,0-11.7,1.3-16.2,3.9s-8,6.3-10.6,11.1v68.4c2.6,4.4,6.1,7.8,10.6,10.1s10,3.5,16.5,3.5c10.2,0,17.7-4,22.4-12
		c4.8-8,7.1-18.8,7.1-32.5V313.7z"/>
	<path style="fill:white" d="M1361.6,316.9c0,23.2-5.2,41.8-15.6,55.8c-10.4,13.9-25.4,20.9-45,20.9c-9,0-16.9-1.9-23.7-5.7
		c-6.8-3.8-12.5-9.3-17.2-16.6l-3.2,19.3h-36V165.8h41.9v85.4c4.5-6.2,9.9-11,16.2-14.4c6.3-3.4,13.5-5,21.7-5
		c19.8,0,34.9,7.5,45.2,22.4c10.4,14.9,15.6,34.8,15.6,59.7V316.9z M1319.7,313.9c0-15.3-2.2-27.4-6.7-36.3
		c-4.5-8.9-12.1-13.4-22.8-13.4c-6.5,0-12.1,1.4-16.6,4.1c-4.5,2.8-8.1,6.7-10.7,11.8v66.4c2.6,4.7,6.2,8.4,10.7,10.9
		c4.6,2.5,10.2,3.8,16.8,3.8c10.9,0,18.4-3.8,22.8-11.5c4.3-7.7,6.5-18.6,6.5-32.7V313.9z"/>
	<path style="fill:white" d="M1456.5,393.6c-22.5,0-40.4-7.2-53.9-21.6c-13.4-14.4-20.2-32.7-20.2-54.9v-5.8
		c0-23.1,6.4-42.2,19.1-57.2c12.7-15,29.8-22.4,51.2-22.3c21,0,37.4,6.3,49,19c11.6,12.7,17.4,29.8,17.4,51.4v22.9h-93.1l-0.3,0.9
		c0.8,10.2,4.2,18.7,10.3,25.3c6.1,6.6,14.4,9.9,24.9,9.9c9.3,0,17-0.9,23.2-2.8c6.1-1.9,12.9-4.8,20.2-8.9l11.4,26
		c-6.3,5.2-14.6,9.5-24.9,13C1480.6,391.9,1469.1,393.6,1456.5,393.6z M1452.8,264.2c-7.8,0-13.9,3-18.4,8.9
		c-4.5,6-7.3,13.8-8.4,23.5l0.4,0.7h51.6v-3.7c0-8.9-2.1-16.1-6.3-21.4S1461.2,264.2,1452.8,264.2z"/>
	<path style="fill:white" d="M1625.7,270.8l-15.4-0.4c-6.2,0-11.4,1.3-15.4,3.9c-4,2.6-7.1,6.2-9.2,11v105.3h-41.9V234.7h39
		l1.9,23.1c3.6-8.2,8.4-14.5,14.2-19.1c5.8-4.6,12.5-6.8,20.1-6.8c2.1,0,4.1,0.2,5.8,0.5c1.8,0.3,3.6,0.7,5.4,1.2L1625.7,270.8z"/>
	<path style="fill:white" d="M1729,270.8l-15.4-0.4c-6.2,0-11.4,1.3-15.4,3.9c-4,2.6-7.1,6.2-9.2,11v105.3H1647V234.7h39
		l1.9,23.1c3.6-8.2,8.4-14.5,14.2-19.1c5.8-4.6,12.5-6.8,20.1-6.8c2.1,0,4.1,0.2,5.8,0.5c1.8,0.3,3.6,0.7,5.4,1.2L1729,270.8z"/>
	<path style="fill:white" d="M1810.6,325.1l1.7,8.6h0.9l29.8-99.1h45.2L1825,413.9c-4.4,11.1-10.4,20.5-18,28.2
		c-7.6,7.6-19,11.5-34.1,11.5c-3.6,0-6.8-0.3-9.9-0.9c-3-0.6-6.7-1.4-11-2.4l4.9-30.7c1.2,0.2,2.6,0.4,4,0.6
		c1.4,0.2,2.7,0.3,3.9,0.3c6.9,0,12.2-1.7,16-5.1c3.7-3.4,6.6-7.7,8.6-12.8l4.9-12.1l-55.3-155.8h45.2L1810.6,325.1z"/>
	<path style="fill:white" d="M2024.1,314.5v76.1H1982V180.8h83.6c24.1,0,43.1,6.1,56.9,18.4c13.8,12.3,20.7,28.5,20.7,48.6
		c0,20.1-6.9,36.2-20.7,48.4c-13.8,12.2-32.8,18.3-56.9,18.3H2024.1z M2024.1,282.1h41.5c11.7,0,20.6-3.2,26.7-9.6
		c6.1-6.4,9.1-14.5,9.1-24.4c0-10.1-3-18.4-9-25c-6-6.6-14.9-9.9-26.7-9.9h-41.5V282.1z"/>
	<path style="fill:white" d="M2215,197.3h-42.1v-31.6h42.1V197.3z M2215,390.6h-42.1V234.7h42.1V390.6z"/>
</g>
<g>
	<path style="fill:white" d="M2277.7,147.3c-18.1,0-32.8,14.7-32.8,32.8c0,18.1,14.7,32.8,32.8,32.8c18.1,0,32.8-14.7,32.8-32.8
		C2310.4,161.9,2295.8,147.3,2277.7,147.3z M2277.7,207.3c-15.1,0-27.3-12.2-27.3-27.3c0-15.1,12.2-27.3,27.3-27.3
		c15.1,0,27.3,12.2,27.3,27.3C2305,195.1,2292.7,207.3,2277.7,207.3z"/>
	<g>
		<path style="fill:white" d="M2263.9,162.1h18.9c6.3,0,10.3,4.4,10.3,9.6c0,4.1-1.7,7.2-5.5,8.8v0.1c3.8,1,4.9,4.7,5.1,8.2
			c0.1,2.2,0.1,6.3,1.5,8.3h-7.7c-0.9-2.2-0.8-5.6-1.2-8.4c-0.5-3.7-2-5.3-5.8-5.3h-7.7v13.7h-7.7V162.1z M2271.6,177.9h8.4
			c3.4,0,5.3-1.5,5.3-5c0-3.4-1.9-4.9-5.3-4.9h-8.4V177.9z"/>
	</g>
</g>
</svg>
