<svg width="409" height="66" viewBox="0 0 409 66" fill="none" xmlns="http://www.w3.org/2000/svg">
<g clip-path="url(#clip0)">
<path d="M27.21 0L0 53.41H12.64L39.86 0H27.21Z" fill="#F2617A"/>
<path d="M183.81 21.38L181.63 25.65H181.5C180.599 23.9452 179.205 22.5514 177.5 21.65C175.777 20.8581 173.896 20.4716 172 20.52C169.955 20.4771 167.929 20.9228 166.09 21.82C164.411 22.652 162.939 23.8477 161.78 25.32C160.592 26.8334 159.7 28.5567 159.15 30.4C158.545 32.3423 158.242 34.3658 158.25 36.4C158.236 38.4901 158.488 40.5735 159 42.6C159.467 44.4593 160.3 46.2067 161.45 47.74C162.578 49.2189 164.042 50.4083 165.72 51.21C167.663 52.1011 169.783 52.5355 171.92 52.48C173.833 52.4893 175.725 52.0761 177.46 51.27C179.187 50.4983 180.614 49.1809 181.52 47.52H181.64V51.74C181.64 56.74 179.3 59.6 174.64 59.6C169.98 59.6 167.5 57.6 166.18 55.96L163 62.25C163 62.25 166.6 65.49 173.41 65.49C184.7 65.49 190 60 190 51.36V21.36L183.81 21.38ZM181.17 40.31C180.875 41.326 180.401 42.2811 179.77 43.13C179.145 43.9632 178.342 44.6465 177.42 45.13C176.403 45.6395 175.277 45.8935 174.14 45.87C172.943 45.9149 171.759 45.6128 170.73 45C169.833 44.4381 169.08 43.6745 168.53 42.77C167.956 41.8302 167.559 40.793 167.36 39.71C167.129 38.5779 167.012 37.4255 167.01 36.27C167.007 35.111 167.145 33.9559 167.42 32.83C167.667 31.7871 168.108 30.8 168.72 29.92C169.303 29.0936 170.065 28.4099 170.95 27.92C171.931 27.4 173.03 27.145 174.14 27.18C175.386 27.1314 176.623 27.4071 177.73 27.98C178.651 28.4966 179.43 29.2315 180 30.12C180.599 31.08 181.019 32.1404 181.24 33.25C181.494 34.4803 181.618 35.7339 181.61 36.99C181.623 38.1121 181.475 39.2301 181.17 40.31V40.31Z" fill="#003d4f"/>
<path d="M66.54 9.18005V25.8401H66.73C67.7212 24.0972 69.2072 22.6877 71 21.7901C72.5694 20.9812 74.3046 20.5465 76.07 20.5201C78.0504 20.4671 80.0217 20.807 81.87 21.5201C83.2672 22.0832 84.4939 22.9998 85.43 24.1801C86.3338 25.4131 86.9551 26.83 87.25 28.3301C87.6168 30.1131 87.7944 31.9298 87.78 33.7501V53.4501H79V35.3201C79.1371 33.2736 78.7081 31.2288 77.76 29.4101C76.94 28.1001 75.47 27.4101 73.37 27.4101C70.97 27.4101 69.24 28.1301 68.16 29.5501C67.08 30.9701 66.55 33.3201 66.55 36.5501V53.4101H57.75V9.18005H66.54Z" fill="#003d4f"/>
<path d="M91.4699 30.4601C92.1905 28.4656 93.3293 26.6482 94.8099 25.1301C96.2899 23.6474 98.0603 22.4865 100.01 21.7201C104.422 20.1169 109.258 20.1169 113.67 21.7201C115.649 22.4662 117.442 23.6347 118.924 25.144C120.405 26.6534 121.54 28.4675 122.25 30.4601C123.063 32.703 123.463 35.0746 123.43 37.4601C123.46 39.8258 123.06 42.1772 122.25 44.4001C121.517 46.3766 120.379 48.1783 118.91 49.6901C117.42 51.1552 115.633 52.2839 113.67 53.0001C109.247 54.5625 104.423 54.5625 99.9999 53.0001C98.0462 52.2555 96.2736 51.1032 94.7999 49.6201C93.3241 48.1135 92.1855 46.3103 91.4599 44.3301C90.6449 42.1085 90.2449 39.7561 90.2799 37.3901C90.2541 35.0271 90.6573 32.679 91.4699 30.4601V30.4601ZM99.4699 41.1701C99.6911 42.3344 100.121 43.4491 100.74 44.4601C101.326 45.421 102.144 46.2189 103.12 46.7801C104.26 47.397 105.545 47.6974 106.84 47.6501C108.141 47.6933 109.431 47.3932 110.58 46.7801C111.572 46.2261 112.405 45.4274 113 44.4601C113.615 43.4473 114.045 42.3333 114.27 41.1701C114.52 39.9392 114.644 38.6861 114.64 37.4301C114.643 36.1609 114.519 34.8946 114.27 33.6501C114.05 32.4854 113.619 31.3706 113 30.3601C112.393 29.3886 111.559 28.5788 110.57 28.0001C109.425 27.3755 108.134 27.0682 106.83 27.1101C105.618 27.0455 104.412 27.3097 103.338 27.8748C102.264 28.4399 101.363 29.2848 100.73 30.3201C100.106 31.3286 99.6758 32.4442 99.4599 33.6101C99.2078 34.8543 99.0805 36.1206 99.0799 37.3901C99.0763 38.6598 99.2036 39.9265 99.4599 41.1701H99.4699Z" fill="#003d4f"/>
<path d="M147.43 53.41V49H147.25C146.242 50.7424 144.729 52.1374 142.91 53C141.205 53.8038 139.345 54.2237 137.46 54.23C135.489 54.2927 133.524 53.9805 131.67 53.31C130.265 52.7699 129.035 51.8572 128.11 50.67C127.197 49.441 126.572 48.0228 126.28 46.52C125.913 44.737 125.736 42.9203 125.75 41.1V21.38H134.55V39.47C134.413 41.5197 134.842 43.5676 135.79 45.39C136.61 46.69 138.077 47.3567 140.19 47.39C142.583 47.39 144.317 46.6767 145.39 45.25C146.46 43.83 147 41.48 147 38.25V21.38H155.79V53.38L147.43 53.41Z" fill="#003d4f"/>
<path d="M202.08 9.18005V25.8401H202.26C203.257 24.098 204.746 22.6891 206.54 21.7901C208.109 20.9812 209.845 20.5465 211.61 20.5201C213.59 20.4671 215.562 20.807 217.41 21.5201C218.813 22.0674 220.051 22.9703 221 24.1401C221.903 25.3747 222.527 26.7906 222.83 28.2901C223.193 30.0734 223.368 31.8901 223.35 33.7101V53.4101H214.56V35.3201C214.692 33.2739 214.264 31.2304 213.32 29.4101C212.493 28.0767 211.027 27.4101 208.92 27.4101C206.52 27.4101 204.79 28.1301 203.72 29.5501C202.65 30.9701 202.11 33.3201 202.11 36.5501V53.4101H193.31V9.18005H202.08Z" fill="#003d4f"/>
<path d="M290.46 30.4601C291.173 28.4757 292.304 26.6681 293.778 25.16C295.252 23.6518 297.033 22.4786 299 21.7201C303.412 20.1169 308.248 20.1169 312.66 21.7201C314.637 22.4703 316.427 23.6402 317.909 25.149C319.39 26.6578 320.526 28.4698 321.24 30.4601C322.053 32.703 322.453 35.0746 322.42 37.4601C322.45 39.8258 322.05 42.1772 321.24 44.4001C320.508 46.3794 319.366 48.182 317.89 49.6901C316.408 51.156 314.628 52.285 312.67 53.0001C308.247 54.5625 303.423 54.5625 299 53.0001C297.045 52.258 295.272 51.1054 293.8 49.6201C292.324 48.112 291.182 46.3094 290.45 44.3301C289.643 42.1066 289.247 39.7551 289.28 37.3901C289.256 35.0281 289.655 32.6809 290.46 30.4601V30.4601ZM298.46 41.1701C298.685 42.3333 299.115 43.4473 299.73 44.4601C300.322 45.4193 301.144 46.2165 302.12 46.7801C303.26 47.397 304.545 47.6974 305.84 47.6501C307.141 47.6933 308.431 47.3932 309.58 46.7801C310.569 46.2232 311.402 45.4251 312 44.4601C312.615 43.4473 313.045 42.3333 313.27 41.1701C313.52 39.9392 313.644 38.6861 313.64 37.4301C313.643 36.1609 313.519 34.8946 313.27 33.6501C313.05 32.4854 312.619 31.3706 312 30.3601C311.39 29.3909 310.557 28.5817 309.57 28.0001C308.425 27.3755 307.134 27.0682 305.83 27.1101C304.532 27.0639 303.246 27.3715 302.11 28.0001C301.144 28.578 300.326 29.3722 299.72 30.3201C299.101 31.3306 298.67 32.4454 298.45 33.6101C298.206 34.8553 298.082 36.1211 298.08 37.3901C298.078 38.6592 298.202 39.9254 298.45 41.1701H298.46Z" fill="#003d4f"/>
<path d="M358.73 9.18005V32.9101L369.81 21.3801H380.22L368.14 33.1501L381.59 53.4101H370.93L362.14 39.1001L358.73 42.3801V53.3801H349.93V9.18005H358.73Z" fill="#003d4f"/>
<path d="M388.09 45.4501C388.464 46.1109 388.98 46.6811 389.6 47.1201C390.249 47.577 390.973 47.9155 391.74 48.1201C392.56 48.3301 393.403 48.4342 394.25 48.4301C394.906 48.428 395.56 48.3543 396.2 48.2101C396.851 48.0791 397.478 47.8498 398.06 47.5301C398.611 47.2277 399.087 46.8036 399.45 46.2901C399.851 45.7029 400.048 45.0001 400.01 44.2901C400.01 42.9701 399.13 41.9801 397.38 41.2901C394.984 40.4489 392.531 39.7805 390.04 39.2901C388.76 39.0001 387.51 38.6601 386.29 38.2901C385.127 37.9467 384.019 37.4382 383 36.7801C382.064 36.1566 381.281 35.3293 380.71 34.3601C380.101 33.2748 379.8 32.0438 379.84 30.8001C379.765 29.0274 380.184 27.2687 381.05 25.7201C381.828 24.4213 382.927 23.3437 384.24 22.5901C385.638 21.8064 387.16 21.2686 388.74 21.0001C390.412 20.6897 392.109 20.5357 393.81 20.5401C395.505 20.5342 397.197 20.6984 398.86 21.0301C400.405 21.3264 401.884 21.8953 403.23 22.7101C404.515 23.4965 405.605 24.5631 406.42 25.8301C407.327 27.3223 407.849 29.0163 407.94 30.7601H399.58C399.597 30.0673 399.428 29.3826 399.09 28.7775C398.753 28.1724 398.259 27.669 397.66 27.3201C396.389 26.6946 394.986 26.3858 393.57 26.4201C393.032 26.4221 392.495 26.4521 391.96 26.5101C391.416 26.5669 390.883 26.7051 390.38 26.9201C389.908 27.1152 389.492 27.4244 389.17 27.8201C388.822 28.2669 388.648 28.8247 388.68 29.3901C388.667 29.7546 388.737 30.1173 388.886 30.4502C389.035 30.7832 389.259 31.0773 389.54 31.3101C390.207 31.8568 390.975 32.2678 391.8 32.5201C392.846 32.8613 393.911 33.1418 394.99 33.3601C396.19 33.6134 397.41 33.8834 398.65 34.1701C399.915 34.4504 401.164 34.801 402.39 35.2201C403.549 35.6017 404.644 36.1545 405.64 36.8601C406.584 37.5275 407.369 38.3947 407.94 39.4001C408.554 40.5519 408.854 41.8453 408.81 43.1501C408.893 44.8824 408.512 46.6054 407.705 48.1405C406.897 49.6756 405.694 50.9667 404.22 51.8801C402.791 52.7764 401.207 53.3971 399.55 53.7101C397.785 54.0587 395.989 54.2329 394.19 54.2301C392.359 54.2348 390.533 54.0505 388.74 53.6801C387.06 53.3437 385.454 52.7068 384 51.8001C382.497 50.8801 381.259 49.5852 380.407 48.0425C379.555 46.4999 379.118 44.7622 379.14 43.0001H387.5C387.473 43.8549 387.677 44.7012 388.09 45.4501V45.4501Z" fill="#003d4f"/>
<path d="M241.93 46.84C240.873 46.9688 239.806 46.7055 238.93 46.1C238.325 45.2243 238.061 44.1569 238.19 43.1V27.27H243.1L246.1 21.38H238.2V11.78H229.4V21.38H225L222 27.26H229.39V46.16C229.332 47.5071 229.611 48.8473 230.2 50.06C230.702 51.0187 231.465 51.8161 232.4 52.36C233.398 52.9153 234.489 53.2814 235.62 53.44C236.901 53.6328 238.195 53.7265 239.49 53.72C240.36 53.72 241.24 53.72 242.15 53.66C242.981 53.625 243.809 53.5415 244.63 53.41V46.59C244.201 46.6806 243.767 46.7441 243.33 46.78C242.9 46.82 242.43 46.84 241.93 46.84Z" fill="#003d4f"/>
<path d="M52.27 46.84C51.2132 46.9679 50.1461 46.7047 49.27 46.1C48.6645 45.2243 48.4012 44.1569 48.53 43.1V27.27H53.06L56.06 21.38H48.55V11.78H39.76V21.38H35.35L32.35 27.26H39.75V46.16C39.6897 47.5062 39.9646 48.8463 40.55 50.06C41.0549 51.0165 41.8169 51.8131 42.75 52.36C43.7575 52.9173 44.8593 53.2834 46 53.44C47.2808 53.6328 48.5747 53.7265 49.87 53.72C50.74 53.72 51.63 53.72 52.53 53.66C53.3575 53.6246 54.1822 53.5411 55 53.41V46.59C54.5711 46.6806 54.1369 46.7441 53.7 46.78C53.24 46.82 52.76 46.84 52.27 46.84Z" fill="#003d4f"/>
<path d="M343.07 20.52C335.68 20.52 332.85 27.33 332.85 27.33H332.73V21.38H324.37V53.38H333.16V40C333.16 32.2 334.68 28.72 341.33 28.72C342.527 28.7027 343.709 28.9846 344.77 29.54L348.54 22.14C346.916 21.0739 345.013 20.5104 343.07 20.52V20.52Z" fill="#003d4f"/>
<path d="M281.9 21.39L276.01 43.06H275.89L270.44 21.39H261.89L256.56 43.13H256.44L250.56 21.39L244.83 32.62L251.43 53.41H260.53L265.98 31.91H266.1L271.8 53.41H280.85L290.94 21.39H281.9Z" fill="#003d4f"/>
</g>
<defs>
<clipPath id="clip0">
<rect width="408.81" height="65.49" fill="white"/>
</clipPath>
</defs>
</svg>
