<svg width="261" height="34" viewBox="0 0 261 34" fill="none" xmlns="http://www.w3.org/2000/svg">
<path d="M21.0446 15.4449C21.5801 17.1646 21.8478 19.0379 21.8478 21.0648C21.8478 23.2452 21.5486 25.1645 20.9501 26.8228C20.2571 28.8497 19.1388 30.4312 17.5953 31.5675C16.0518 32.7037 14.1618 33.2719 11.9253 33.2719C9.72031 33.2719 7.90906 32.4581 6.49156 30.8305C6.42856 30.7383 6.36556 30.7076 6.30256 30.7383C6.23956 30.769 6.20806 30.8305 6.20806 30.9226V32.3506C6.20806 32.5041 6.14506 32.6423 6.01906 32.7652C5.92456 32.8573 5.79856 32.9034 5.64106 32.9034H1.29406C1.13656 32.9034 0.994801 32.8573 0.868801 32.7652C0.774301 32.6423 0.727051 32.5041 0.727051 32.3506V1.21098C0.727051 1.05743 0.774301 0.934591 0.868801 0.842461C0.994801 0.719623 1.13656 0.658203 1.29406 0.658203H5.64106C5.79856 0.658203 5.92456 0.719623 6.01906 0.842461C6.14506 0.934591 6.20806 1.05743 6.20806 1.21098V11.207C6.20806 11.2991 6.23956 11.3605 6.30256 11.3912C6.36556 11.4219 6.42856 11.4066 6.49156 11.3452C7.84606 9.77898 9.64156 8.99589 11.8781 8.99589C14.2091 8.99589 16.1306 9.56401 17.6426 10.7003C19.1861 11.8365 20.3201 13.4181 21.0446 15.4449ZM15.0911 26.4543C15.8471 25.1645 16.2251 23.3987 16.2251 21.1569C16.2251 18.7616 15.7526 16.8883 14.8076 15.537C13.9571 14.2472 12.6971 13.6023 11.0276 13.6023C9.48406 13.6023 8.30281 14.2779 7.48381 15.6292C6.69631 16.8883 6.30256 18.7155 6.30256 21.1108C6.30256 23.4755 6.66481 25.2566 7.38931 26.4543C8.20831 27.9284 9.43681 28.6654 11.0748 28.6654C11.9568 28.6654 12.7443 28.4812 13.4373 28.1126C14.1303 27.7134 14.6816 27.1606 15.0911 26.4543Z" fill="#0B42D0"/>
<path d="M26.2226 32.9034C26.0651 32.9034 25.9234 32.8573 25.7974 32.7652C25.7029 32.6423 25.6556 32.5041 25.6556 32.3506V1.21098C25.6556 1.05743 25.7029 0.934591 25.7974 0.842461C25.9234 0.719623 26.0651 0.658203 26.2226 0.658203H30.5696C30.7271 0.658203 30.8531 0.719623 30.9476 0.842461C31.0736 0.934591 31.1366 1.05743 31.1366 1.21098V32.3506C31.1366 32.5041 31.0736 32.6423 30.9476 32.7652C30.8531 32.8573 30.7271 32.9034 30.5696 32.9034H26.2226Z" fill="#0B42D0"/>
<path d="M49.8126 9.91703C49.8126 9.76348 49.8599 9.64065 49.9544 9.54852C50.0804 9.42568 50.2221 9.36426 50.3796 9.36426H54.6794C54.8369 9.36426 54.9629 9.42568 55.0574 9.54852C55.1834 9.64065 55.2464 9.76348 55.2464 9.91703V32.3504C55.2464 32.504 55.1834 32.6422 55.0574 32.765C54.9629 32.8572 54.8369 32.9032 54.6794 32.9032H50.3796C50.2221 32.9032 50.0804 32.8572 49.9544 32.765C49.8599 32.6422 49.8126 32.504 49.8126 32.3504V30.8764C49.8126 30.7843 49.7811 30.7228 49.7181 30.6921C49.6551 30.6614 49.5921 30.6921 49.5291 30.7843C48.2376 32.4119 46.3004 33.2257 43.7174 33.2257C41.3234 33.2257 39.3074 32.5501 37.6694 31.1988C36.0629 29.8476 35.2596 27.9283 35.2596 25.4408V9.91703C35.2596 9.76348 35.3069 9.64065 35.4014 9.54852C35.5274 9.42568 35.6691 9.36426 35.8266 9.36426H40.1736C40.3311 9.36426 40.4571 9.42568 40.5516 9.54852C40.6776 9.64065 40.7406 9.76348 40.7406 9.91703V23.9206C40.7406 25.364 41.1186 26.5156 41.8746 27.3755C42.6621 28.2353 43.7489 28.6653 45.1349 28.6653C46.5524 28.6653 47.6864 28.2353 48.5369 27.3755C49.3874 26.5156 49.8126 25.364 49.8126 23.9206V9.91703Z" fill="#0B42D0"/>
<path d="M80.0531 18.4854C80.1791 19.2531 80.2421 20.113 80.2421 21.065L80.1948 22.493C80.1948 22.8615 80.0058 23.0458 79.6278 23.0458H64.8386C64.6811 23.0458 64.6023 23.1225 64.6023 23.2761C64.6968 24.2895 64.8386 24.9805 65.0276 25.349C65.7836 27.5601 67.6263 28.681 70.5558 28.7117C72.6978 28.7117 74.3988 27.8518 75.6588 26.1321C75.7848 25.9478 75.9423 25.8557 76.1313 25.8557C76.2573 25.8557 76.3676 25.9018 76.4621 25.9939L79.3916 28.3432C79.6751 28.5581 79.7223 28.8038 79.5333 29.0802C78.5568 30.4314 77.2496 31.4756 75.6116 32.2126C74.0051 32.9496 72.2096 33.3181 70.2251 33.3181C67.7681 33.3181 65.6733 32.7807 63.9408 31.7059C62.2398 30.631 60.9956 29.1263 60.2081 27.1916C59.4836 25.5332 59.1213 23.23 59.1213 20.2819C59.1213 18.5007 59.3103 17.0574 59.6883 15.9518C60.3183 13.8021 61.4996 12.1131 63.2321 10.8847C64.9961 9.62564 67.1066 8.99609 69.5636 8.99609C75.7691 8.99609 79.2656 12.1592 80.0531 18.4854ZM69.5636 13.6025C68.3981 13.6025 67.4216 13.8943 66.6341 14.4778C65.8781 15.0305 65.3426 15.8136 65.0276 16.827C64.8386 17.3491 64.7126 18.0247 64.6496 18.8539C64.5866 19.0074 64.6496 19.0842 64.8386 19.0842H74.4303C74.5878 19.0842 74.6666 19.0074 74.6666 18.8539C74.6036 18.0861 74.5091 17.5027 74.3831 17.1034C74.0996 15.9979 73.5326 15.138 72.6821 14.5238C71.8631 13.9096 70.8236 13.6025 69.5636 13.6025Z" fill="#0B42D0"/>
<path d="M92.4425 33.1796C90.458 33.1796 88.7098 32.9032 87.1978 32.3505C85.7173 31.767 84.5675 30.9839 83.7485 30.0012C82.9295 28.9878 82.52 27.8668 82.52 26.6385V26.2239C82.52 26.0703 82.5673 25.9475 82.6618 25.8554C82.7878 25.7325 82.9295 25.6711 83.087 25.6711H87.245C87.4025 25.6711 87.5285 25.7325 87.623 25.8554C87.749 25.9475 87.812 26.0703 87.812 26.2239V26.316C87.812 27.0838 88.2373 27.7594 89.0878 28.3428C89.9698 28.8956 91.0723 29.172 92.3953 29.172C93.6553 29.172 94.679 28.9263 95.4665 28.435C96.254 27.9129 96.6478 27.268 96.6478 26.5003C96.6478 25.7939 96.317 25.2719 95.6555 24.9341C95.0255 24.5656 93.986 24.1817 92.537 23.7825L90.7415 23.2297C89.135 22.769 87.7805 22.2777 86.678 21.7556C85.5755 21.2336 84.6463 20.5272 83.8903 19.6367C83.1343 18.7154 82.7563 17.5484 82.7563 16.1358C82.7563 13.9861 83.6225 12.2817 85.355 11.0226C87.0875 9.73279 89.3713 9.08789 92.2063 9.08789C94.1278 9.08789 95.813 9.39499 97.262 10.0092C98.711 10.5927 99.8293 11.4218 100.617 12.4967C101.404 13.5408 101.798 14.7385 101.798 16.0897C101.798 16.2432 101.735 16.3814 101.609 16.5043C101.515 16.5964 101.389 16.6425 101.231 16.6425H97.2148C97.0573 16.6425 96.9155 16.5964 96.7895 16.5043C96.695 16.3814 96.6478 16.2432 96.6478 16.0897C96.6478 15.2912 96.2383 14.631 95.4193 14.1089C94.6318 13.5561 93.545 13.2798 92.159 13.2798C90.9305 13.2798 89.9225 13.5101 89.135 13.9707C88.379 14.4007 88.001 15.0148 88.001 15.8133C88.001 16.5503 88.3633 17.1185 89.0878 17.5177C89.8438 17.8862 91.088 18.3008 92.8205 18.7614L93.86 19.0378C95.5295 19.5292 96.9313 20.0359 98.0653 20.5579C99.1993 21.0493 100.16 21.7556 100.948 22.6769C101.735 23.5675 102.129 24.7345 102.129 26.1778C102.129 28.3582 101.247 30.0779 99.4828 31.337C97.7188 32.5654 95.372 33.1796 92.4425 33.1796Z" fill="#0B42D0"/>
<path d="M115.616 32.9034C115.364 32.9034 115.191 32.7805 115.096 32.5349L108.387 10.1014L108.34 9.96324C108.34 9.71757 108.497 9.59473 108.812 9.59473H111.269C111.553 9.59473 111.726 9.73292 111.789 10.0093L116.797 28.1587C116.829 28.2202 116.86 28.2509 116.892 28.2509C116.955 28.2509 117.002 28.2202 117.034 28.1587L122.137 10.0093C122.2 9.73292 122.373 9.59473 122.656 9.59473H124.924C125.208 9.59473 125.381 9.71757 125.444 9.96324L130.594 28.1127C130.626 28.1741 130.673 28.2048 130.736 28.2048C130.799 28.2048 130.846 28.1741 130.878 28.1127L136.028 10.0093C136.091 9.73292 136.264 9.59473 136.548 9.59473L139.005 9.6408C139.162 9.6408 139.273 9.68686 139.336 9.77898C139.43 9.87111 139.462 9.99395 139.43 10.1475L132.626 32.5349C132.532 32.7805 132.358 32.9034 132.106 32.9034H129.602C129.35 32.9034 129.177 32.7805 129.082 32.5349L123.932 15.3067C123.901 15.2453 123.853 15.2146 123.79 15.2146C123.759 15.2146 123.727 15.2453 123.696 15.3067L118.687 32.5349C118.593 32.7805 118.42 32.9034 118.168 32.9034H115.616Z" fill="#0B42D0"/>
<path d="M145.087 5.35649C144.331 5.35649 143.701 5.11081 143.197 4.61946C142.693 4.1281 142.441 3.51391 142.441 2.77688C142.441 2.00913 142.693 1.39494 143.197 0.934299C143.701 0.442943 144.331 0.197266 145.087 0.197266C145.843 0.197266 146.473 0.442943 146.977 0.934299C147.481 1.39494 147.733 2.00913 147.733 2.77688C147.733 3.51391 147.481 4.1281 146.977 4.61946C146.473 5.11081 145.843 5.35649 145.087 5.35649ZM143.764 32.857C143.449 32.857 143.291 32.7035 143.291 32.3964V10.009C143.291 9.70191 143.449 9.54836 143.764 9.54836H146.173C146.488 9.54836 146.646 9.70191 146.646 10.009V32.3964C146.646 32.7035 146.488 32.857 146.173 32.857H143.764Z" fill="#0B42D0"/>
<path d="M162.611 9.36426C163.65 9.36426 164.548 9.56387 165.304 9.9631C165.556 10.0859 165.651 10.2855 165.588 10.5619L165.068 12.8191C164.973 13.1262 164.769 13.2183 164.454 13.0955C163.918 12.8805 163.304 12.773 162.611 12.773L161.997 12.8191C160.359 12.8805 159.004 13.4794 157.933 14.6156C156.862 15.7212 156.327 17.1338 156.327 18.8536V32.4426C156.327 32.7497 156.169 32.9032 155.854 32.9032H153.444C153.129 32.9032 152.972 32.7497 152.972 32.4426V10.0552C152.972 9.74813 153.129 9.59458 153.444 9.59458H155.854C156.169 9.59458 156.327 9.74813 156.327 10.0552V12.8652C156.327 12.9573 156.342 13.0187 156.374 13.0494C156.437 13.0494 156.484 13.0187 156.516 12.9573C157.177 11.821 158.012 10.9458 159.02 10.3316C160.059 9.68671 161.256 9.36426 162.611 9.36426Z" fill="#0B42D0"/>
<path d="M186.394 17.3329C186.52 18.1928 186.583 19.2677 186.583 20.5575V22.0315C186.583 22.3386 186.426 22.4922 186.111 22.4922H170.849C170.723 22.4922 170.66 22.5536 170.66 22.6764C170.723 24.3655 170.818 25.4557 170.944 25.947C171.29 27.3289 172.03 28.4191 173.164 29.2176C174.298 30.016 175.747 30.4153 177.511 30.4153C178.834 30.4153 180 30.1235 181.008 29.54C182.016 28.9566 182.803 28.1274 183.37 27.0526C183.559 26.7762 183.78 26.7148 184.032 26.8683L185.875 27.9278C186.127 28.0813 186.19 28.2963 186.064 28.5727C185.276 30.0468 184.095 31.2137 182.52 32.0736C180.945 32.9027 179.134 33.3173 177.086 33.3173C174.85 33.2866 172.975 32.7646 171.463 31.7511C169.951 30.7377 168.865 29.3251 168.203 27.5132C167.636 26.0391 167.353 23.9202 167.353 21.1563C167.353 19.8665 167.368 18.8224 167.4 18.0239C167.463 17.1948 167.589 16.4577 167.778 15.8128C168.313 13.8167 169.384 12.2198 170.991 11.0221C172.629 9.82442 174.598 9.22559 176.897 9.22559C179.764 9.22559 181.969 9.93191 183.512 11.3446C185.056 12.7572 186.016 14.7533 186.394 17.3329ZM176.897 12.0816C175.354 12.0816 174.062 12.4808 173.023 13.2793C172.015 14.047 171.353 15.0911 171.038 16.4117C170.849 17.0566 170.723 18.1007 170.66 19.544C170.66 19.6669 170.723 19.7283 170.849 19.7283H183.087C183.213 19.7283 183.276 19.6669 183.276 19.544C183.213 18.1621 183.118 17.1794 182.992 16.5959C182.646 15.214 181.937 14.1238 180.866 13.3253C179.827 12.4962 178.504 12.0816 176.897 12.0816Z" fill="#0B42D0"/>
<path d="M191.838 32.9034C191.523 32.9034 191.366 32.7498 191.366 32.4427V1.11884C191.366 0.81175 191.523 0.658203 191.838 0.658203H194.248C194.563 0.658203 194.721 0.81175 194.721 1.11884V32.4427C194.721 32.7498 194.563 32.9034 194.248 32.9034H191.838Z" fill="#0B42D0"/>
<path d="M218.699 17.3329C218.825 18.1928 218.888 19.2677 218.888 20.5575V22.0315C218.888 22.3386 218.731 22.4922 218.416 22.4922H203.154C203.028 22.4922 202.965 22.5536 202.965 22.6764C203.028 24.3655 203.122 25.4557 203.248 25.947C203.595 27.3289 204.335 28.4191 205.469 29.2176C206.603 30.016 208.052 30.4153 209.816 30.4153C211.139 30.4153 212.305 30.1235 213.313 29.54C214.321 28.9566 215.108 28.1274 215.675 27.0526C215.864 26.7762 216.085 26.7148 216.337 26.8683L218.179 27.9278C218.431 28.0813 218.494 28.2963 218.368 28.5727C217.581 30.0468 216.4 31.2137 214.825 32.0736C213.25 32.9027 211.438 33.3173 209.391 33.3173C207.154 33.2866 205.28 32.7646 203.768 31.7511C202.256 30.7377 201.169 29.3251 200.508 27.5132C199.941 26.0391 199.657 23.9202 199.657 21.1563C199.657 19.8665 199.673 18.8224 199.705 18.0239C199.768 17.1948 199.894 16.4577 200.083 15.8128C200.618 13.8167 201.689 12.2198 203.296 11.0221C204.934 9.82442 206.902 9.22559 209.202 9.22559C212.068 9.22559 214.273 9.93191 215.817 11.3446C217.36 12.7572 218.321 14.7533 218.699 17.3329ZM209.202 12.0816C207.658 12.0816 206.367 12.4808 205.327 13.2793C204.319 14.047 203.658 15.0911 203.343 16.4117C203.154 17.0566 203.028 18.1007 202.965 19.544C202.965 19.6669 203.028 19.7283 203.154 19.7283H215.392C215.518 19.7283 215.581 19.6669 215.581 19.544C215.518 18.1621 215.423 17.1794 215.297 16.5959C214.951 15.214 214.242 14.1238 213.171 13.3253C212.131 12.4962 210.808 12.0816 209.202 12.0816Z" fill="#0B42D0"/>
<path d="M231.098 33.1336C229.334 33.1336 227.759 32.8572 226.373 32.3044C225.018 31.7516 223.963 31.0146 223.207 30.0933C222.483 29.172 222.12 28.1432 222.12 27.007V26.4542C222.12 26.1471 222.278 25.9936 222.593 25.9936H224.861C225.176 25.9936 225.333 26.1471 225.333 26.4542V26.8227C225.333 27.8361 225.869 28.7267 226.94 29.4945C228.042 30.2315 229.413 30.6 231.051 30.6C232.689 30.6 234.012 30.2469 235.02 29.5405C236.028 28.8035 236.532 27.8822 236.532 26.7767C236.532 26.0089 236.264 25.3794 235.728 24.888C235.224 24.3967 234.61 24.0128 233.886 23.7364C233.193 23.46 232.106 23.1069 230.625 22.6769C228.861 22.1856 227.412 21.6942 226.278 21.2029C225.144 20.7115 224.184 20.0359 223.396 19.176C222.64 18.2854 222.262 17.1645 222.262 15.8133C222.262 13.8479 223.05 12.2817 224.625 11.1147C226.2 9.94774 228.279 9.36426 230.862 9.36426C232.594 9.36426 234.122 9.64065 235.445 10.1934C236.799 10.7462 237.839 11.5139 238.563 12.4967C239.288 13.4487 239.65 14.5235 239.65 15.7212V15.8594C239.65 16.1665 239.493 16.32 239.178 16.32H236.957C236.642 16.32 236.484 16.1665 236.484 15.8594V15.7212C236.484 14.677 235.965 13.8018 234.925 13.0955C233.917 12.3892 232.547 12.036 230.814 12.036C229.208 12.036 227.916 12.3585 226.94 13.0034C225.963 13.6176 225.475 14.4774 225.475 15.583C225.475 16.6271 225.948 17.4256 226.893 17.9783C227.838 18.5311 229.302 19.0839 231.287 19.6367C233.114 20.1587 234.594 20.6501 235.728 21.1107C236.862 21.5714 237.839 22.247 238.658 23.1376C239.477 23.9974 239.886 25.1337 239.886 26.5463C239.886 28.5425 239.083 30.1394 237.477 31.337C235.87 32.5347 233.744 33.1336 231.098 33.1336Z" fill="#0B42D0"/>
<path d="M251.263 33.1336C249.499 33.1336 247.924 32.8572 246.538 32.3044C245.184 31.7516 244.128 31.0146 243.372 30.0933C242.648 29.172 242.286 28.1432 242.286 27.007V26.4542C242.286 26.1471 242.443 25.9936 242.758 25.9936H245.026C245.341 25.9936 245.499 26.1471 245.499 26.4542V26.8227C245.499 27.8361 246.034 28.7267 247.105 29.4945C248.208 30.2315 249.578 30.6 251.216 30.6C252.854 30.6 254.177 30.2469 255.185 29.5405C256.193 28.8035 256.697 27.8822 256.697 26.7767C256.697 26.0089 256.429 25.3794 255.894 24.888C255.39 24.3967 254.775 24.0128 254.051 23.7364C253.358 23.46 252.271 23.1069 250.791 22.6769C249.027 22.1856 247.578 21.6942 246.444 21.2029C245.31 20.7115 244.349 20.0359 243.561 19.176C242.805 18.2854 242.427 17.1645 242.427 15.8133C242.427 13.8479 243.215 12.2817 244.79 11.1147C246.365 9.94774 248.444 9.36426 251.027 9.36426C252.759 9.36426 254.287 9.64065 255.61 10.1934C256.965 10.7462 258.004 11.5139 258.729 12.4967C259.453 13.4487 259.815 14.5235 259.815 15.7212V15.8594C259.815 16.1665 259.658 16.32 259.343 16.32H257.122C256.807 16.32 256.65 16.1665 256.65 15.8594V15.7212C256.65 14.677 256.13 13.8018 255.09 13.0955C254.082 12.3892 252.712 12.036 250.98 12.036C249.373 12.036 248.082 12.3585 247.105 13.0034C246.129 13.6176 245.64 14.4774 245.64 15.583C245.64 16.6271 246.113 17.4256 247.058 17.9783C248.003 18.5311 249.468 19.0839 251.452 19.6367C253.279 20.1587 254.76 20.6501 255.894 21.1107C257.028 21.5714 258.004 22.247 258.823 23.1376C259.642 23.9974 260.052 25.1337 260.052 26.5463C260.052 28.5425 259.248 30.1394 257.642 31.337C256.035 32.5347 253.909 33.1336 251.263 33.1336Z" fill="#0B42D0"/>
</svg>
