<svg width="238" height="45" viewBox="0 0 238 45" fill="none" xmlns="http://www.w3.org/2000/svg">
<g clip-path="url(#clip0)">
<path d="M57.1267 7.00636C54.9078 7.00636 53.4259 5.64861 53.4259 3.59257C53.4259 1.88567 54.6207 0.396019 57.1267 0.396019C59.5319 0.396019 60.719 1.94774 60.719 3.65464C60.719 5.74947 59.3612 7.06843 57.1267 7.06843V7.00636ZM35.8448 36.1555C31.0578 36.1555 26.969 33.4555 26.969 28.3193C26.969 22.1124 33.8586 20.7546 36.869 20.3512C41.819 19.7305 42.269 19.3891 42.269 18.0779C42.269 15.3003 41.7724 13.0348 38.2888 13.0348C35.9457 13.0348 34.0759 13.7098 32.2836 14.7805L31.3526 15.4012C31.0422 15.634 30.4991 16.2546 29.8784 16.2546C29.5681 16.2546 28.9474 15.9288 28.9474 15.1141V12.5693C28.9474 12.0417 29.1802 11.5452 29.8009 11.1883C32.1284 10.0555 35.6198 9.42705 38.7233 9.42705C46.7922 9.42705 49.1974 12.6081 49.1974 17.2245V34.9296C49.1974 35.3176 48.9647 35.5969 48.4991 35.5969H43.3009C43.0681 35.5969 42.7578 35.3253 42.7578 34.9296L42.6026 33.4555C40.8181 35.0383 38.6457 36.171 36.0078 36.171L35.8448 36.1555ZM42.4474 22.5314C36.1629 22.5314 33.7578 25.3633 33.7578 28.4434C33.7578 30.5848 34.9216 32.765 37.9474 32.765C40.5853 32.765 42.525 30.7788 42.525 30.0262V22.5314H42.4474ZM125.465 36.2641C121.43 36.2641 118.404 34.8443 116.387 33.3158C115.534 32.6952 115.378 31.609 115.378 30.6779V1.3736C115.378 0.970156 115.689 0.675329 115.922 0.675329H121.43C121.818 0.675329 122.128 0.970156 122.128 1.3736V12.6857C123.215 11.7546 125.697 9.78395 129.577 9.78395C135.473 9.78395 139.197 14.9046 139.197 21.7322C139.197 30.4995 133.146 36.3184 125.62 36.3184L125.465 36.2641ZM122.051 31.1977C122.051 31.7408 122.191 32.284 122.827 32.6719C123.37 33.0598 124.223 33.2926 125.93 33.2926C129.553 33.2926 132.122 29.5684 132.122 23.2064C132.122 20.8788 131.578 14.1288 126.403 14.1288C124.309 14.1288 122.834 15.2926 121.981 15.9133V31.4305V31.2753L122.051 31.1977ZM191.809 45.0081C191.11 45.0081 190.412 45.0081 189.45 44.7753C188.713 44.6202 188.309 44.1546 188.309 43.6115V40.3452C188.309 39.9572 188.651 39.5693 189.054 39.5693C189.675 39.5693 190.141 39.7245 190.792 39.8796C191.878 40.1124 192.887 40.2676 193.818 40.2676C196.999 40.2676 199.327 38.6383 199.404 35.4572L189.085 11.5607C188.853 10.94 188.775 10.7848 188.775 10.6296C188.775 10.2417 189.008 10.0865 189.318 10.0865H195.525C195.991 10.0865 196.223 10.2417 196.378 10.7072L202.585 27.0003L208.559 10.7072C208.637 10.3193 208.947 10.0865 209.335 10.0865H211.896C212.128 10.0865 212.361 10.3193 212.361 10.6296C212.361 10.8624 212.206 11.0176 212.128 11.3279L201.724 38.1727C200.273 41.8969 196.177 44.9615 191.793 44.9615L191.809 45.0081ZM10.319 36.365C7.15345 36.365 3.86379 35.6667 0.946552 34.2702C0.380172 33.8822 0.271552 33.6495 0.271552 33.1064V30.259C0.271552 29.7391 0.45 29.2271 1.41207 29.2271C1.92414 29.2271 2.26552 29.4986 2.99483 30.0262C5.91983 32.0667 8.70517 32.8969 11.0638 32.8969C15.0362 32.8969 17.7362 30.4917 17.7362 27.5124C17.7672 19.7305 0 22.1124 0 10.6296C0 5.31498 4.09655 0.66757 11.6612 0.66757C15.4241 0.66757 18.8379 1.38912 20.7621 2.14171C21.2819 2.37447 21.3828 2.63826 21.3828 3.16585V6.46326C21.3828 6.96757 21.2276 7.36326 20.6069 7.36326C20.1026 7.36326 19.6991 7.05292 19.0707 6.5874C16.7974 4.95809 14.625 3.94947 11.7776 3.94947C8.59655 3.94947 6.09828 5.65636 6.09828 8.29429C6.09828 14.8115 24.1216 14.1133 24.1216 24.5874C24.1216 32.5012 17.5267 36.2253 10.3112 36.2253L10.319 36.365ZM59.8888 35.4495H54.3802C54.0698 35.4495 53.7595 35.1391 53.7595 34.7512V10.6995C53.7595 10.3115 54.0698 10.0012 54.3026 10.0012H59.7336C60.1215 10.0012 60.4319 10.3115 60.4319 10.6995V34.9141C60.4319 35.3253 60.1215 35.5891 59.7336 35.5891L59.8888 35.4495ZM153.303 36.1322C147.639 36.1322 141.975 33.8046 141.975 27.365V10.7848C141.975 10.3969 142.208 10.0865 142.518 10.0865H148.027C148.415 10.0865 148.725 10.3969 148.725 10.7848V28.7072C148.725 31.3762 150.432 33.0288 153.303 33.0288C156.794 33.0288 157.958 31.0581 157.958 27.365V10.7072C157.958 10.3193 158.191 10.0089 158.501 10.0089H163.932C164.32 10.0089 164.63 10.3193 164.63 10.7072V26.69C164.63 33.7503 158.889 36.1245 153.225 36.1245L153.303 36.1322ZM87.975 35.6434H82.4664C82.156 35.6434 81.9233 35.3486 81.9233 34.9452V17.8762C81.9233 15.9365 81.6129 13.6555 77.8888 13.6555C75.9491 13.6555 73.6215 14.7805 72.5353 15.4012V34.9529C72.5353 35.3408 72.3026 35.6512 71.8371 35.6512H66.406C66.15 35.6512 65.8629 35.3408 65.8629 34.9529V10.746C65.8629 10.3271 66.1733 10.0477 66.6078 10.0477H72.0388C72.4267 10.0477 72.7526 10.3271 72.7526 10.746V12.0417C74.3043 11.0021 77.7957 9.48136 80.9767 9.48136C86.4853 9.48136 88.8905 12.6624 88.8905 17.3176V34.9529C88.8905 35.3408 88.6578 35.6512 88.1922 35.6512L87.975 35.6434ZM101.692 36.2719C98.9767 36.2719 96.1371 35.6124 93.9336 34.6193C93.2819 34.2857 93.119 33.7891 93.119 33.1607V30.9262C93.119 30.1271 93.5069 29.8943 94.05 29.8943C94.4379 29.8943 94.8259 30.0727 95.1362 30.3598C97.4638 32.121 100.179 32.9745 102.352 32.9745C104.912 32.9745 106.774 31.8883 106.774 29.7934C106.774 24.9055 92.4983 26.7676 92.4983 17.721C92.4983 12.1814 97.231 9.67533 102.584 9.67533C104.99 9.67533 107.472 10.1719 109.8 11.1262C110.498 11.4133 110.653 11.9796 110.653 12.6003V14.4857C110.653 15.2771 110.343 15.5098 109.8 15.5098C109.567 15.5098 109.102 15.2771 108.714 15.0443C106.697 13.6477 103.981 12.8719 101.653 12.8719C99.3259 12.8719 97.4638 13.7253 97.4638 15.5874C97.4638 20.0874 112.05 17.9926 112.05 26.9926C112.05 33.8202 107.084 36.1477 101.886 36.1477L101.692 36.2719ZM175.981 35.4495H170.55C170.278 35.4495 170.007 35.1391 170.007 34.7512V10.6995C170.007 10.3115 170.278 10.0012 170.55 10.0012H175.826C176.253 10.0012 176.524 10.3115 176.524 10.6995L176.641 13.7253C176.672 13.7253 176.679 13.7253 176.687 13.6477C177.773 12.0184 180.334 9.45809 183.476 9.45809C184.228 9.45809 184.872 9.45809 185.959 9.69085C186.734 9.84602 187.122 10.3115 187.122 10.8546V14.4236C187.122 14.8115 186.766 15.1995 186.347 15.1995C185.726 15.1995 185.183 14.9667 184.446 14.7339C183.709 14.5788 182.855 14.5012 182.002 14.5012C179.364 14.5012 176.726 15.5098 176.726 19.1564V34.5184C176.726 34.9064 176.454 35.2167 176.066 35.2167L175.981 35.4495ZM215.247 9.45809C213.928 9.84602 216.566 6.66498 216.14 4.95809C215.674 3.32878 213.789 1.07878 215.131 0.566708C216.45 0.0468806 218.933 0.0546393 219.631 0.954639C221.183 3.93395 219.088 8.82964 215.232 9.41154L215.247 9.45809ZM227.328 36.2331C224.566 36.2331 221.757 35.5658 219.569 34.5727C218.902 34.2624 218.739 33.7581 218.739 33.1296V30.9107C218.739 30.1115 219.088 29.8788 219.647 29.8788C220.066 29.8788 220.422 30.1115 220.733 30.3443C223.037 32.1288 225.745 32.9822 227.948 32.9822H227.979C230.478 32.9822 232.402 31.896 232.402 29.8012C232.402 24.9133 218.048 26.7753 218.048 17.7753C218.048 12.2667 222.781 9.78395 228.134 9.78395C230.54 9.78395 233.069 10.2495 235.35 11.2581C236.048 11.5684 236.203 12.1115 236.203 12.7322V14.6719C236.203 15.4477 235.87 15.6805 235.272 15.6805C235.016 15.6805 234.551 15.4477 234.217 15.215C232.2 13.8184 229.453 13.0426 227.172 13.0426C224.845 13.0426 222.983 13.896 222.983 15.7581C222.983 20.2581 237.491 18.2408 237.491 27.2408C237.491 34.0684 232.526 36.4736 227.312 36.4736" fill="#F47320"/>
</g>
<defs>
<clipPath id="clip0">
<rect width="237.414" height="45" fill="white"/>
</clipPath>
</defs>
</svg>
