<svg width="241" height="40" viewBox="0 0 241 40" fill="none" xmlns="http://www.w3.org/2000/svg">
<path d="M30.6811 0.807204H24.7759V31.76H30.6811V16.16C31.7769 14.96 33.1569 13.7264 34.8764 13.7264C37.4293 13.7264 37.2848 16.5536 37.2848 18.344V31.784H43.1924V15.9968C43.1924 10.5392 39.7629 9.0416 37.3209 9.0416C34.8449 9.17734 32.4919 10.1607 30.6594 11.8256L30.6811 0.807204ZM55.4869 8.996C48.9122 8.996 45.6272 14.684 45.6272 20.6024C45.6272 26.5208 48.9146 32.2184 55.4869 32.2184C62.0593 32.2184 65.3467 26.4872 65.3467 20.6024C65.3467 14.7176 62.0593 8.996 55.4869 8.996V8.996ZM55.4869 27.884C52.2887 27.884 51.7299 23.3864 51.7299 20.6024C51.7299 17.8184 52.2887 13.3304 55.4869 13.3304C58.6852 13.3304 59.268 17.8184 59.268 20.6024C59.268 23.3864 58.7093 27.884 55.5207 27.884H55.4869ZM86.2992 9.476H80.3939V25.076C79.2981 26.2664 77.9182 27.476 76.1986 27.476C73.6458 27.476 73.7903 24.6584 73.7903 22.868V9.4712H67.885V25.2464C67.885 30.704 71.3145 32.2112 73.7566 32.2112C76.2256 32.0907 78.5778 31.1272 80.418 29.4824V31.7864H86.3016L86.2992 9.476ZM107.685 8.72C106.923 8.72703 106.17 8.89295 105.476 9.20708C104.781 9.5212 104.161 9.97659 103.654 10.544C102.001 9.5457 100.109 9.01009 98.1771 8.9936C93.3556 8.9936 89.1603 11.8544 89.1603 16.7888C89.1729 17.944 89.4246 19.0841 89.8995 20.1379C90.3744 21.1918 91.0623 22.1367 91.9202 22.9136C90.2344 24.0056 89.0302 25.1744 89.0302 27.3536C89.0658 27.9335 89.2455 28.4956 89.5533 28.9891C89.861 29.4826 90.2871 29.8921 90.7931 30.1808C89.4348 30.9776 88.3511 31.8512 88.3511 33.5408C88.3511 36.4328 90.9906 39.1424 98.6924 39.1424C107.545 39.1424 109.78 35.648 109.78 32.3408C109.78 27.0128 103.986 26.8832 99.4824 26.8832H98.519C96.1203 26.8832 94.2804 26.828 94.2804 25.7912C94.296 25.5893 94.3521 25.3925 94.4455 25.2126C94.5388 25.0327 94.6675 24.8734 94.8238 24.744C94.9802 24.6146 95.161 24.5178 95.3556 24.4594C95.5502 24.401 95.7545 24.3822 95.9566 24.404L98.1241 24.5672C102.955 24.5672 107.107 21.6968 107.107 16.772C106.997 15.4383 106.586 14.1468 105.903 12.9944C106.385 12.6973 106.936 12.5318 107.502 12.5144C108.151 12.5551 108.787 12.718 109.376 12.9944V8.8232C108.821 8.71443 108.256 8.66296 107.69 8.6696L107.685 8.72ZM98.1482 20.6792C95.8795 20.6792 94.8608 19.0088 94.8608 16.9784C94.8608 14.948 95.6266 12.8072 98.1482 12.8072C100.316 12.8072 101.346 14.4872 101.346 16.5416C101.346 18.596 100.624 20.6792 98.1482 20.6792ZM98.7502 35.3192C97.3486 35.3192 93.1629 35.1992 93.1629 33.1592C93.1634 32.8637 93.2509 32.5748 93.4144 32.3282C93.5779 32.0817 93.8103 31.8883 94.0829 31.772L100.658 32.2088C104.174 32.4056 104.964 32.2856 104.964 33.4424C104.964 35.2184 99.781 35.3432 98.784 35.3432L98.7502 35.3192ZM117.851 0.783203H111.95V31.76H117.851V16.16C118.947 14.96 120.326 13.7264 122.046 13.7264C124.599 13.7264 124.454 16.5536 124.454 18.344V31.784H130.36V15.9968C130.36 10.5392 126.93 9.0416 124.498 9.0416C122.018 9.17517 119.662 10.1587 117.827 11.8256L117.851 0.783203ZM141.115 3.884H135.222V9.452H132.462V14.3432H135.222V25.2632C135.222 30.1112 138.247 32.1848 141.917 32.1848C143.206 32.1378 144.483 31.91 145.708 31.508V27.02C145.027 27.5324 144.205 27.8255 143.353 27.86C141.445 27.86 141.185 26.768 141.185 25.7V14.3672H145.775V9.476H141.212L141.115 3.884ZM184.846 9.1352C179.938 9.1352 176.026 12.5096 176.026 20.7416C176.026 28.9736 179.938 32.348 184.846 32.348C189.754 32.348 193.612 28.9736 193.612 20.7416C193.612 12.5096 189.701 9.1352 184.846 9.1352V9.1352ZM184.846 29.7272C180.058 29.7272 179.138 24.476 179.138 20.7416C179.138 17.0072 180.058 11.756 184.846 11.756C189.634 11.756 190.541 17.0072 190.541 20.7416C190.541 24.476 189.631 29.7272 184.846 29.7272ZM206.583 9.452H205.389C202.101 9.452 200.524 11.852 199.286 14.4968H199.209V9.812H196.122V31.7552H199.233V19.2656C200.329 16.2752 202.301 12.224 205.916 12.224C206.146 12.2077 206.377 12.2077 206.607 12.224L206.583 9.452Z" fill="#050505"/>
<path d="M233.113 9.15951C229.486 9.15951 226.375 11.4635 226.375 15.2411C226.375 23.1131 237.976 20.4827 237.976 26.0411C237.976 28.5419 235.948 29.7755 233.67 29.7755C232.475 29.8018 231.298 29.4814 230.282 28.8533C229.267 28.2253 228.457 27.3166 227.95 26.2379L225.474 27.7883C226.287 29.2344 227.484 30.4294 228.933 31.2422C230.383 32.0551 232.029 32.4544 233.691 32.3963C237.843 32.3963 240.912 29.7755 240.912 25.4843C240.912 18.0827 229.299 20.4299 229.299 15.0587C229.299 12.8987 231.216 11.7827 233.253 11.7827C234.276 11.771 235.283 12.0346 236.168 12.5457C237.053 13.0569 237.783 13.7965 238.282 14.6867L240.449 12.9731C239.658 11.7623 238.566 10.7754 237.281 10.1078C235.995 9.44015 234.558 9.11436 233.109 9.16191L233.113 9.15951ZM0.0830078 6.08031V0.829102H22.4203V6.08031H14.3692V31.7603H8.14611V6.08031H0.0830078Z" fill="#050505"/>
<path d="M146.503 0.807617H149.614L154.72 25.7748L160.384 0.807617H163.462L168.842 25.7748L174.309 0.807617H177.387L170.275 31.7604H167.087L161.817 6.47642L156.199 31.7604H153.012L146.503 0.807617ZM209.127 0.807617H212.238V19.9668L220.412 9.79082H223.885L217.825 17.3028L224.781 31.7604H221.428L215.807 19.8396L212.214 24.2508V31.7628H209.127V0.807617Z" fill="#050505"/>
</svg>
