<svg width="50" height="50" viewBox="0 0 50 50" fill="none" xmlns="http://www.w3.org/2000/svg">
<path d="M0.246094 5.20615C0.246094 2.47319 2.45804 0.25769 5.18661 0.25769H44.7107C47.4393 0.25769 49.6512 2.47319 49.6512 5.20614V44.7938C49.6512 47.5267 47.4393 49.7422 44.7107 49.7422H5.18661C2.45804 49.7422 0.246094 47.5267 0.246094 44.7938V5.20615Z" fill="#3399FF"/>
<path d="M24.8949 14.9658C19.3755 14.9658 14.9028 19.4456 14.9028 24.9739C14.9028 30.5022 19.3755 34.982 24.8949 34.982C30.4143 34.982 34.8869 30.5022 34.8869 24.9739C34.8869 19.4456 30.4143 14.9658 24.8949 14.9658Z" fill="white"/>
<path d="M24.8949 4.21645L34.8869 8.98549L34.8869 13.1125L24.8949 8.34351L14.9028 13.1125L14.9028 8.98549L24.8949 4.21645Z" fill="white"/>
<path d="M24.8947 45.7316L14.9026 40.9625L14.9026 36.8354L24.8947 41.6045L34.8867 36.8354L34.8867 40.9625L24.8947 45.7316Z" fill="white"/>
<path fill-rule="evenodd" clip-rule="evenodd" d="M49.6513 35.0751V44.7938C49.6513 47.5267 47.4393 49.7422 44.7108 49.7422H5.18665C2.64837 49.7422 0.557177 47.825 0.277832 45.3575L24.9484 25L43.6372 36.3055L46.7829 33.1548L49.6513 35.0751Z" fill="#005397"/>
</svg>
