<svg width="249" height="50" viewBox="0 0 249 50" fill="none" xmlns="http://www.w3.org/2000/svg">
<g clip-path="url(#clip0_397_5228)">
<path d="M0.246094 5.20615C0.246094 2.47319 2.45804 0.25769 5.18661 0.25769H44.7107C47.4393 0.25769 49.6512 2.47319 49.6512 5.20614V44.7938C49.6512 47.5267 47.4393 49.7422 44.7107 49.7422H5.18661C2.45804 49.7422 0.246094 47.5267 0.246094 44.7938V5.20615Z" fill="#3399FF"/>
<path d="M24.8949 14.9658C19.3755 14.9658 14.9028 19.4456 14.9028 24.9739C14.9028 30.5022 19.3755 34.982 24.8949 34.982C30.4143 34.982 34.8869 30.5022 34.8869 24.9739C34.8869 19.4456 30.4143 14.9658 24.8949 14.9658Z" fill="white"/>
<path d="M24.8949 4.21645L34.8869 8.98549L34.8869 13.1125L24.8949 8.34351L14.9028 13.1125L14.9028 8.98549L24.8949 4.21645Z" fill="white"/>
<path d="M24.8947 45.7316L14.9026 40.9625L14.9026 36.8354L24.8947 41.6045L34.8867 36.8354L34.8867 40.9625L24.8947 45.7316Z" fill="white"/>
<path fill-rule="evenodd" clip-rule="evenodd" d="M49.6513 35.0751V44.7938C49.6513 47.5267 47.4393 49.7422 44.7108 49.7422H5.18665C2.64837 49.7422 0.557177 47.825 0.277832 45.3575L24.9484 25L43.6372 36.3055L46.7829 33.1548L49.6513 35.0751Z" fill="#005397"/>
</g>
<path d="M139.33 34.0783C138.272 34.0783 137.34 33.9269 136.534 33.624C135.744 33.3043 135.131 32.8753 134.694 32.3369C134.257 31.7817 134.039 31.1676 134.039 30.4946V30.2675C134.039 30.1833 134.064 30.1161 134.115 30.0656C134.182 29.9983 134.257 29.9646 134.341 29.9646H136.559C136.643 29.9646 136.71 29.9983 136.76 30.0656C136.827 30.1161 136.861 30.1833 136.861 30.2675V30.3179C136.861 30.7386 137.088 31.1087 137.541 31.4284C138.012 31.7312 138.6 31.8826 139.305 31.8826C139.977 31.8826 140.523 31.7481 140.943 31.4789C141.363 31.1928 141.573 30.8395 141.573 30.4189C141.573 30.0319 141.396 29.7459 141.044 29.5608C140.708 29.3589 140.153 29.1486 139.381 28.9299L138.423 28.6271C137.567 28.3747 136.844 28.1055 136.256 27.8195C135.668 27.5335 135.173 27.1465 134.77 26.6586C134.367 26.1538 134.165 25.5145 134.165 24.7405C134.165 23.5628 134.627 22.629 135.551 21.9392C136.475 21.2326 137.693 20.8793 139.204 20.8793C140.229 20.8793 141.128 21.0475 141.9 21.384C142.673 21.7037 143.269 22.1579 143.689 22.7468C144.109 23.3189 144.319 23.975 144.319 24.7153C144.319 24.7994 144.286 24.8751 144.219 24.9424C144.168 24.9929 144.101 25.0182 144.017 25.0182H141.875C141.791 25.0182 141.716 24.9929 141.648 24.9424C141.598 24.8751 141.573 24.7994 141.573 24.7153C141.573 24.2779 141.354 23.9161 140.918 23.6301C140.498 23.3273 139.918 23.1758 139.179 23.1758C138.524 23.1758 137.987 23.302 137.567 23.5544C137.163 23.7899 136.962 24.1264 136.962 24.5639C136.962 24.9677 137.155 25.2789 137.541 25.4977C137.945 25.6996 138.608 25.9267 139.532 26.1791L140.086 26.3305C140.977 26.5997 141.724 26.8773 142.329 27.1633C142.933 27.4325 143.446 27.8195 143.866 28.3242C144.286 28.8121 144.496 29.4515 144.496 30.2422C144.496 31.4368 144.025 32.379 143.085 33.0688C142.144 33.7418 140.893 34.0783 139.33 34.0783Z" fill="#3399FF"/>
<path d="M154.743 21.3335C154.743 21.2494 154.768 21.1821 154.819 21.1316C154.886 21.0643 154.962 21.0307 155.045 21.0307H157.338C157.422 21.0307 157.49 21.0643 157.54 21.1316C157.607 21.1821 157.641 21.2494 157.641 21.3335V33.624C157.641 33.7081 157.607 33.7838 157.54 33.8511C157.49 33.9016 157.422 33.9269 157.338 33.9269H155.045C154.962 33.9269 154.886 33.9016 154.819 33.8511C154.768 33.7838 154.743 33.7081 154.743 33.624V32.8164C154.743 32.7659 154.726 32.7323 154.693 32.7155C154.659 32.6986 154.626 32.7155 154.592 32.7659C153.903 33.6577 152.87 34.1035 151.493 34.1035C150.216 34.1035 149.141 33.7334 148.268 32.9931C147.411 32.2528 146.983 31.2012 146.983 29.8384V21.3335C146.983 21.2494 147.008 21.1821 147.058 21.1316C147.125 21.0643 147.201 21.0307 147.285 21.0307H149.603C149.687 21.0307 149.754 21.0643 149.805 21.1316C149.872 21.1821 149.905 21.2494 149.905 21.3335V29.0056C149.905 29.7964 150.107 30.4273 150.51 30.8984C150.93 31.3695 151.51 31.605 152.249 31.605C153.005 31.605 153.609 31.3695 154.063 30.8984C154.516 30.4273 154.743 29.7964 154.743 29.0056V21.3335Z" fill="#3399FF"/>
<path d="M174.713 20.8288C176.006 20.8288 177.014 21.2242 177.736 22.0149C178.475 22.7889 178.845 23.8741 178.845 25.2705V33.624C178.845 33.7081 178.811 33.7838 178.744 33.8511C178.694 33.9016 178.627 33.9269 178.543 33.9269H176.25C176.166 33.9269 176.09 33.9016 176.023 33.8511C175.973 33.7838 175.947 33.7081 175.947 33.624V25.8762C175.947 25.1023 175.737 24.4882 175.317 24.0339C174.914 23.5796 174.368 23.3525 173.68 23.3525C172.991 23.3525 172.428 23.5796 171.992 24.0339C171.555 24.4882 171.336 25.0939 171.336 25.851V33.624C171.336 33.7081 171.303 33.7838 171.236 33.8511C171.185 33.9016 171.118 33.9269 171.034 33.9269H168.741C168.657 33.9269 168.582 33.9016 168.514 33.8511C168.464 33.7838 168.439 33.7081 168.439 33.624V25.8762C168.439 25.1023 168.229 24.4882 167.809 24.0339C167.389 23.5796 166.835 23.3525 166.146 23.3525C165.508 23.3525 164.978 23.5376 164.559 23.9077C164.155 24.2779 163.92 24.7826 163.853 25.4219V33.624C163.853 33.7081 163.819 33.7838 163.752 33.8511C163.702 33.9016 163.635 33.9269 163.551 33.9269H161.233C161.149 33.9269 161.073 33.9016 161.006 33.8511C160.955 33.7838 160.93 33.7081 160.93 33.624V21.3335C160.93 21.2494 160.955 21.1821 161.006 21.1316C161.073 21.0643 161.149 21.0307 161.233 21.0307H163.551C163.635 21.0307 163.702 21.0643 163.752 21.1316C163.819 21.1821 163.853 21.2494 163.853 21.3335V22.1664C163.853 22.2168 163.87 22.2505 163.903 22.2673C163.937 22.2841 163.971 22.2673 164.004 22.2168C164.374 21.7457 164.827 21.4008 165.365 21.1821C165.919 20.9466 166.532 20.8288 167.204 20.8288C168.027 20.8288 168.75 20.997 169.371 21.3335C169.993 21.67 170.471 22.1579 170.807 22.7973C170.858 22.8646 170.916 22.8646 170.984 22.7973C171.353 22.1243 171.866 21.628 172.521 21.3083C173.176 20.9886 173.906 20.8288 174.713 20.8288Z" fill="#3399FF"/>
<path d="M195.768 20.8288C197.061 20.8288 198.069 21.2242 198.792 22.0149C199.531 22.7889 199.9 23.8741 199.9 25.2705V33.624C199.9 33.7081 199.867 33.7838 199.799 33.8511C199.749 33.9016 199.682 33.9269 199.598 33.9269H197.305C197.221 33.9269 197.145 33.9016 197.078 33.8511C197.028 33.7838 197.003 33.7081 197.003 33.624V25.8762C197.003 25.1023 196.793 24.4882 196.373 24.0339C195.97 23.5796 195.424 23.3525 194.735 23.3525C194.046 23.3525 193.484 23.5796 193.047 24.0339C192.61 24.4882 192.392 25.0939 192.392 25.851V33.624C192.392 33.7081 192.358 33.7838 192.291 33.8511C192.24 33.9016 192.173 33.9269 192.089 33.9269H189.796C189.712 33.9269 189.637 33.9016 189.57 33.8511C189.519 33.7838 189.494 33.7081 189.494 33.624V25.8762C189.494 25.1023 189.284 24.4882 188.864 24.0339C188.444 23.5796 187.89 23.3525 187.201 23.3525C186.563 23.3525 186.034 23.5376 185.614 23.9077C185.211 24.2779 184.975 24.7826 184.908 25.4219V33.624C184.908 33.7081 184.875 33.7838 184.807 33.8511C184.757 33.9016 184.69 33.9269 184.606 33.9269H182.288C182.204 33.9269 182.128 33.9016 182.061 33.8511C182.011 33.7838 181.985 33.7081 181.985 33.624V21.3335C181.985 21.2494 182.011 21.1821 182.061 21.1316C182.128 21.0643 182.204 21.0307 182.288 21.0307H184.606C184.69 21.0307 184.757 21.0643 184.807 21.1316C184.875 21.1821 184.908 21.2494 184.908 21.3335V22.1664C184.908 22.2168 184.925 22.2505 184.959 22.2673C184.992 22.2841 185.026 22.2673 185.059 22.2168C185.429 21.7457 185.883 21.4008 186.42 21.1821C186.974 20.9466 187.588 20.8288 188.259 20.8288C189.083 20.8288 189.805 20.997 190.426 21.3335C191.048 21.67 191.527 22.1579 191.863 22.7973C191.913 22.8646 191.972 22.8646 192.039 22.7973C192.408 22.1243 192.921 21.628 193.576 21.3083C194.231 20.9886 194.962 20.8288 195.768 20.8288Z" fill="#3399FF"/>
<path d="M204.704 19.2641C204.183 19.2641 203.755 19.0958 203.419 18.7593C203.083 18.4229 202.915 17.9938 202.915 17.4723C202.915 16.9507 203.083 16.5217 203.419 16.1852C203.755 15.8487 204.183 15.6804 204.704 15.6804C205.224 15.6804 205.653 15.8487 205.989 16.1852C206.325 16.5217 206.493 16.9507 206.493 17.4723C206.493 17.9938 206.325 18.4229 205.989 18.7593C205.653 19.0958 205.224 19.2641 204.704 19.2641ZM203.494 33.9269C203.41 33.9269 203.335 33.9016 203.267 33.8511C203.217 33.7838 203.192 33.7081 203.192 33.624V21.3083C203.192 21.2242 203.217 21.1569 203.267 21.1064C203.335 21.0391 203.41 21.0055 203.494 21.0055H205.812C205.896 21.0055 205.964 21.0391 206.014 21.1064C206.081 21.1569 206.115 21.2242 206.115 21.3083V33.624C206.115 33.7081 206.081 33.7838 206.014 33.8511C205.964 33.9016 205.896 33.9269 205.812 33.9269H203.494Z" fill="#3399FF"/>
<path d="M216.456 23.1001C216.456 23.1843 216.422 23.26 216.355 23.3273C216.305 23.3777 216.238 23.403 216.154 23.403H213.583C213.499 23.403 213.457 23.445 213.457 23.5292V29.6113C213.457 30.2506 213.592 30.7133 213.861 30.9994C214.146 31.2854 214.591 31.4284 215.196 31.4284H215.952C216.036 31.4284 216.103 31.462 216.154 31.5293C216.221 31.5798 216.254 31.6471 216.254 31.7312V33.624C216.254 33.8091 216.154 33.9184 215.952 33.9521L214.642 33.9773C213.315 33.9773 212.324 33.7502 211.669 33.2959C211.013 32.8417 210.677 31.9836 210.661 30.7217V23.5292C210.661 23.445 210.619 23.403 210.535 23.403H209.098C209.014 23.403 208.939 23.3777 208.872 23.3273C208.821 23.26 208.796 23.1843 208.796 23.1001V21.3335C208.796 21.2494 208.821 21.1821 208.872 21.1316C208.939 21.0643 209.014 21.0307 209.098 21.0307H210.535C210.619 21.0307 210.661 20.9886 210.661 20.9045V17.9518C210.661 17.8676 210.686 17.8003 210.736 17.7499C210.803 17.6826 210.879 17.6489 210.963 17.6489H213.155C213.239 17.6489 213.306 17.6826 213.357 17.7499C213.424 17.8003 213.457 17.8676 213.457 17.9518V20.9045C213.457 20.9886 213.499 21.0307 213.583 21.0307H216.154C216.238 21.0307 216.305 21.0643 216.355 21.1316C216.422 21.1821 216.456 21.2494 216.456 21.3335V23.1001Z" fill="#3399FF"/>
<path d="M218.517 27.5923C218.433 27.5923 218.357 27.5671 218.29 27.5166C218.24 27.4493 218.214 27.3736 218.214 27.2895V25.3715C218.214 25.2873 218.24 25.2201 218.29 25.1696C218.357 25.1023 218.433 25.0686 218.517 25.0686H226.454C226.538 25.0686 226.605 25.1023 226.655 25.1696C226.723 25.2201 226.756 25.2873 226.756 25.3715V27.2895C226.756 27.3736 226.723 27.4493 226.655 27.5166C226.605 27.5671 226.538 27.5923 226.454 27.5923H218.517Z" fill="#3399FF"/>
<path d="M232.925 31.2517C232.891 31.2854 232.875 31.319 232.875 31.3527C232.891 31.3863 232.925 31.4031 232.975 31.4031H240.156C240.24 31.4031 240.308 31.4368 240.358 31.5041C240.425 31.5546 240.459 31.6219 240.459 31.706V33.624C240.459 33.7081 240.425 33.7838 240.358 33.8511C240.308 33.9016 240.24 33.9269 240.156 33.9269H229.322C229.238 33.9269 229.162 33.9016 229.095 33.8511C229.045 33.7838 229.02 33.7081 229.02 33.624V31.8069C229.02 31.6555 229.07 31.5293 229.171 31.4284C230.447 30.0656 231.926 28.3915 233.605 26.4062L234.79 25.0182C236.335 23.2179 237.108 21.8551 237.108 20.9297C237.108 20.2399 236.864 19.6763 236.377 19.2389C235.89 18.8014 235.26 18.5827 234.487 18.5827C233.715 18.5827 233.085 18.8014 232.598 19.2389C232.127 19.6763 231.892 20.2568 231.892 20.9802V21.6364C231.892 21.7205 231.858 21.7962 231.791 21.8635C231.741 21.914 231.674 21.9392 231.59 21.9392H229.246C229.162 21.9392 229.087 21.914 229.02 21.8635C228.969 21.7962 228.944 21.7205 228.944 21.6364V20.5512C228.978 19.6426 229.238 18.8519 229.725 18.1789C230.212 17.5059 230.867 16.9843 231.69 16.6142C232.53 16.244 233.463 16.059 234.487 16.059C235.613 16.059 236.595 16.2693 237.435 16.6899C238.275 17.1105 238.922 17.691 239.375 18.4313C239.829 19.1547 240.056 19.9707 240.056 20.8793C240.056 22.2589 239.325 23.8488 237.864 25.6491C237.057 26.6586 235.73 28.1728 233.883 30.1918L232.925 31.2517Z" fill="#3399FF"/>
<path d="M245.612 16.3366C245.747 16.2861 245.873 16.2609 245.99 16.2609H248.409C248.493 16.2609 248.56 16.2945 248.611 16.3618C248.678 16.4123 248.711 16.4796 248.711 16.5637V33.624C248.711 33.7081 248.678 33.7838 248.611 33.8511C248.56 33.9016 248.493 33.9269 248.409 33.9269H246.091C246.007 33.9269 245.931 33.9016 245.864 33.8511C245.814 33.7838 245.789 33.7081 245.789 33.624V19.2893C245.789 19.2557 245.772 19.2304 245.738 19.2136C245.705 19.18 245.671 19.1716 245.637 19.1884L243.118 19.9707C243.084 19.9876 243.042 19.996 242.992 19.996C242.925 19.996 242.866 19.9707 242.815 19.9203C242.782 19.8698 242.765 19.8025 242.765 19.7184L242.689 18.0527C242.689 17.8845 242.757 17.7667 242.891 17.6994L245.612 16.3366Z" fill="#3399FF"/>
<path d="M113.4 34.1546H109.596L118.557 16.3402H122.277L113.4 34.1546Z" fill="#3399FF"/>
<path d="M119.823 34.1546H116.019L124.98 16.3402H128.7L119.823 34.1546Z" fill="#3399FF"/>
<path d="M66.7782 16.3402C61.8659 16.3402 57.8853 20.3272 57.8853 25.2474C57.8853 30.1676 61.8659 34.1546 66.7782 34.1546C71.6905 34.1546 75.6711 30.1676 75.6711 25.2474C75.6711 20.3272 71.6905 16.3402 66.7782 16.3402ZM66.7782 30.7614C63.7376 30.7614 61.273 28.2928 61.273 25.2474C61.273 22.202 63.7376 19.7334 66.7782 19.7334C69.8187 19.7334 72.2833 22.202 72.2833 25.2474C72.2833 28.2928 69.8187 30.7614 66.7782 30.7614Z" fill="#005397"/>
<path d="M86.5681 27.1646C88.8586 26.5284 90.545 24.4076 90.5618 21.8966C90.5618 21.8797 90.5618 21.8712 90.5618 21.8542C90.5618 21.8372 90.5618 21.8288 90.5618 21.8118C90.5366 18.7833 88.1035 16.3402 85.1082 16.3402H77.9766V19.5468L80.6614 23.9665H77.985V34.1546H81.341V27.3597H82.7506L86.876 34.1546H90.8219L86.5681 27.1646ZM85.1166 23.975H84.6216L82.029 19.7334H85.1166C86.2744 19.7334 87.2141 20.6835 87.2141 21.8542C87.2141 23.0249 86.2744 23.975 85.1166 23.975Z" fill="#005397"/>
<path d="M96.4375 34.1546H92.6333L97.0969 25.2559L92.6333 16.3402H96.4375L98.9821 21.464L101.594 16.3402H105.314L96.4375 34.1546Z" fill="#005397"/>
<defs>
<clipPath id="clip0_397_5228">
<rect width="49.4051" height="49.4845" fill="white" transform="translate(0.246094 0.25769)"/>
</clipPath>
</defs>
</svg>
