<svg xmlns="http://www.w3.org/2000/svg" viewBox="0 0 405 333" fill="none">
<circle cx="202" cy="101" r="37" fill="#5528FF"/>
<path opacity="0.2" d="M259.75 148.688H221.25C216.145 148.688 211.248 150.716 207.638 154.326C204.028 157.936 202 162.832 202 167.938C202 165.41 201.502 162.906 200.535 160.571C199.567 158.235 198.149 156.113 196.362 154.326C194.574 152.538 192.452 151.12 190.117 150.153C187.781 149.185 185.278 148.687 182.75 148.688H144.25C143.618 148.687 142.992 148.812 142.408 149.054C141.824 149.296 141.294 149.65 140.847 150.097C140.4 150.544 140.046 151.074 139.804 151.658C139.562 152.242 139.437 152.868 139.438 153.5V230.5C139.437 231.132 139.562 231.758 139.804 232.342C140.046 232.926 140.4 233.456 140.847 233.903C141.294 234.35 141.824 234.704 142.408 234.946C142.992 235.188 143.618 235.313 144.25 235.312H182.75C185.278 235.312 187.781 235.81 190.117 236.778C192.452 237.745 194.574 239.163 196.362 240.951C198.149 242.738 199.567 244.86 200.535 247.196C201.502 249.531 202 252.035 202 254.562C202 249.457 204.028 244.561 207.638 240.951C211.248 237.341 216.145 235.313 221.25 235.312H259.75C260.382 235.313 261.008 235.188 261.592 234.946C262.176 234.704 262.706 234.35 263.153 233.903C263.6 233.456 263.954 232.926 264.196 232.342C264.438 231.758 264.563 231.132 264.562 230.5V153.5C264.563 152.868 264.438 152.242 264.196 151.658C263.954 151.074 263.6 150.544 263.153 150.097C262.706 149.65 262.176 149.296 261.592 149.054C261.008 148.812 260.382 148.687 259.75 148.688V148.688Z" fill="#5528FF"/>
<path d="M202 167.938C202 162.832 204.028 157.936 207.638 154.326C211.248 150.716 216.145 148.688 221.25 148.688H259.75C261.026 148.688 262.25 149.195 263.153 150.097C264.055 151 264.562 152.224 264.562 153.5V230.5C264.562 231.776 264.055 233 263.153 233.903C262.25 234.805 261.026 235.312 259.75 235.312H221.25C216.145 235.312 211.248 237.341 207.638 240.951C204.028 244.561 202 249.457 202 254.562" stroke="#5528FF" stroke-width="2" stroke-linecap="round" stroke-linejoin="round"/>
<path d="M139.438 230.5C139.438 231.776 139.945 233 140.847 233.903C141.75 234.805 142.974 235.312 144.25 235.312H182.75C187.855 235.312 192.752 237.341 196.362 240.951C199.972 244.561 202 249.457 202 254.562V167.938C202 162.832 199.972 157.936 196.362 154.326C192.752 150.716 187.855 148.688 182.75 148.688H144.25C142.974 148.688 141.75 149.195 140.847 150.097C139.945 151 139.438 152.224 139.438 153.5V230.5Z" stroke="#5528FF" stroke-width="2" stroke-linecap="round" stroke-linejoin="round"/>
</svg>
