<svg xmlns="http://www.w3.org/2000/svg" viewBox="0 0 405 333" fill="none">
<path opacity="0.2" fill-rule="evenodd" clip-rule="evenodd" d="M106.152 50C100.629 50 96.1519 54.4771 96.1519 60V137.074C96.1519 142.597 100.629 147.074 106.152 147.074H164.81C168.464 132.878 179.801 121.767 194.125 118.438V60C194.125 54.4772 189.647 50 184.125 50H106.152Z" fill="#BDBDBD"/>
<mask id="path-2-inside-1" fill="white">
<path fill-rule="evenodd" clip-rule="evenodd" d="M106.152 50C100.629 50 96.1519 54.4771 96.1519 60V137.074C96.1519 142.597 100.629 147.074 106.152 147.074H164.81C168.464 132.878 179.801 121.767 194.125 118.438V60C194.125 54.4772 189.647 50 184.125 50H106.152Z"/>
</mask>
<path d="M164.81 147.074V149.074H166.361L166.747 147.572L164.81 147.074ZM194.125 118.438L194.577 120.386L196.125 120.027V118.438H194.125ZM98.1519 60C98.1519 55.5817 101.734 52 106.152 52V48C99.5244 48 94.1519 53.3726 94.1519 60H98.1519ZM98.1519 137.074V60H94.1519V137.074H98.1519ZM106.152 145.074C101.734 145.074 98.1519 141.492 98.1519 137.074H94.1519C94.1519 143.701 99.5245 149.074 106.152 149.074V145.074ZM164.81 145.074H106.152V149.074H164.81V145.074ZM166.747 147.572C170.215 134.097 180.982 123.546 194.577 120.386L193.672 116.49C178.621 119.988 166.712 131.659 162.873 146.575L166.747 147.572ZM192.125 60V118.438H196.125V60H192.125ZM184.125 52C188.543 52 192.125 55.5817 192.125 60H196.125C196.125 53.3726 190.752 48 184.125 48V52ZM106.152 52H184.125V48H106.152V52Z" fill="#BDBDBD" mask="url(#path-2-inside-1)"/>
<path opacity="0.2" fill-rule="evenodd" clip-rule="evenodd" d="M194.124 195.484C179.202 192.016 167.52 180.101 164.392 165.051L120.533 165.051C115.01 165.051 110.533 169.528 110.533 175.051V237.743C110.533 243.266 115.01 247.743 120.533 247.743H184.124C189.647 247.743 194.124 243.266 194.124 237.743V195.484Z" fill="#E0E0E0"/>
<mask id="path-5-inside-2" fill="white">
<path fill-rule="evenodd" clip-rule="evenodd" d="M194.124 195.484C179.202 192.016 167.52 180.101 164.392 165.051L120.533 165.051C115.01 165.051 110.533 169.528 110.533 175.051V237.743C110.533 243.266 115.01 247.743 120.533 247.743H184.124C189.647 247.743 194.124 243.266 194.124 237.743V195.484Z"/>
</mask>
<path d="M194.124 195.484H196.124V193.895L194.577 193.536L194.124 195.484ZM164.392 165.051L166.35 164.644L166.019 163.051H164.392V165.051ZM194.577 193.536C180.412 190.244 169.32 178.929 166.35 164.644L162.434 165.458C165.721 181.272 177.992 193.788 193.672 197.432L194.577 193.536ZM120.533 167.051L164.392 167.051V163.051L120.533 163.051V167.051ZM112.533 175.051C112.533 170.632 116.115 167.051 120.533 167.051V163.051C113.906 163.051 108.533 168.423 108.533 175.051H112.533ZM112.533 237.743V175.051H108.533V237.743H112.533ZM120.533 245.743C116.115 245.743 112.533 242.161 112.533 237.743H108.533C108.533 244.371 113.906 249.743 120.533 249.743V245.743ZM184.124 245.743H120.533V249.743H184.124V245.743ZM192.124 237.743C192.124 242.161 188.543 245.743 184.124 245.743V249.743C190.752 249.743 196.124 244.371 196.124 237.743H192.124ZM192.124 195.484V237.743H196.124V195.484H192.124Z" fill="#E0E0E0" mask="url(#path-5-inside-2)"/>
<path opacity="0.2" fill-rule="evenodd" clip-rule="evenodd" d="M222.101 58.0895C216.578 58.0895 212.101 62.5666 212.101 68.0895V118.438C226.424 121.767 237.762 132.878 241.416 147.074H291.984C297.507 147.074 301.984 142.597 301.984 137.074V68.0895C301.984 62.5666 297.507 58.0895 291.984 58.0895H222.101Z" fill="#9E9E9E"/>
<mask id="path-8-inside-3" fill="white">
<path fill-rule="evenodd" clip-rule="evenodd" d="M222.101 58.0895C216.578 58.0895 212.101 62.5666 212.101 68.0895V118.438C226.424 121.767 237.762 132.878 241.416 147.074H291.984C297.507 147.074 301.984 142.597 301.984 137.074V68.0895C301.984 62.5666 297.507 58.0895 291.984 58.0895H222.101Z"/>
</mask>
<path d="M212.101 118.438H210.101V120.027L211.648 120.386L212.101 118.438ZM241.416 147.074L239.479 147.572L239.865 149.074H241.416V147.074ZM214.101 68.0895C214.101 63.6712 217.683 60.0895 222.101 60.0895V56.0895C215.474 56.0895 210.101 61.4621 210.101 68.0895H214.101ZM214.101 118.438V68.0895H210.101V118.438H214.101ZM211.648 120.386C225.244 123.546 236.01 134.097 239.479 147.572L243.352 146.575C239.513 131.659 227.605 119.988 212.554 116.49L211.648 120.386ZM291.984 145.074H241.416V149.074H291.984V145.074ZM299.984 137.074C299.984 141.492 296.403 145.074 291.984 145.074V149.074C298.612 149.074 303.984 143.701 303.984 137.074H299.984ZM299.984 68.0895V137.074H303.984V68.0895H299.984ZM291.984 60.0895C296.403 60.0895 299.984 63.6712 299.984 68.0895H303.984C303.984 61.4621 298.612 56.0895 291.984 56.0895V60.0895ZM222.101 60.0895H291.984V56.0895H222.101V60.0895Z" fill="#9E9E9E" mask="url(#path-8-inside-3)"/>
<path opacity="0.2" fill-rule="evenodd" clip-rule="evenodd" d="M212.101 195.484V271C212.101 276.523 216.578 281 222.101 281H319.848C325.371 281 329.848 276.523 329.848 271V175.051C329.848 169.528 325.371 165.051 319.848 165.051L241.833 165.051C238.705 180.101 227.024 192.016 212.101 195.484Z" fill="#757575"/>
<mask id="path-11-inside-4" fill="white">
<path fill-rule="evenodd" clip-rule="evenodd" d="M212.101 195.484V271C212.101 276.523 216.578 281 222.101 281H319.848C325.371 281 329.848 276.523 329.848 271V175.051C329.848 169.528 325.371 165.051 319.848 165.051L241.833 165.051C238.705 180.101 227.024 192.016 212.101 195.484Z"/>
</mask>
<path d="M212.101 195.484L211.648 193.536L210.101 193.895V195.484H212.101ZM319.848 165.051V167.051V165.051ZM241.833 165.051V163.051H240.206L239.875 164.644L241.833 165.051ZM214.101 271V195.484H210.101V271H214.101ZM222.101 279C217.683 279 214.101 275.418 214.101 271H210.101C210.101 277.627 215.474 283 222.101 283V279ZM319.848 279H222.101V283H319.848V279ZM327.848 271C327.848 275.418 324.266 279 319.848 279V283C326.476 283 331.848 277.627 331.848 271H327.848ZM327.848 175.051V271H331.848V175.051H327.848ZM319.848 167.051C324.266 167.051 327.848 170.632 327.848 175.051H331.848C331.848 168.423 326.476 163.051 319.848 163.051V167.051ZM241.833 167.051L319.848 167.051V163.051L241.833 163.051V167.051ZM239.875 164.644C236.906 178.929 225.813 190.244 211.648 193.536L212.554 197.432C228.234 193.788 240.504 181.272 243.792 165.458L239.875 164.644Z" fill="#757575" mask="url(#path-11-inside-4)"/>
<circle cx="203" cy="157" r="37" fill="#5528FF"/>
</svg>
