<svg xmlns="http://www.w3.org/2000/svg" viewBox="0 0 405 333" fill="none">
<rect opacity="0.3" x="133" y="87" width="70" height="70" rx="10" fill="#5528FF"/>
<rect x="134" y="88" width="68" height="68" rx="9" stroke="#5528FF" stroke-width="2"/>
<rect opacity="0.15" x="223" y="87" width="70" height="70" rx="10" fill="#5528FF"/>
<rect x="224" y="88" width="68" height="68" rx="9" stroke="#5528FF" stroke-width="2"/>
<rect opacity="0.05" x="223" y="177" width="70" height="70" rx="10" fill="#5528FF"/>
<rect x="224" y="178" width="68" height="68" rx="9" stroke="#5528FF" stroke-width="2"/>
<rect opacity="0.1" x="133" y="177" width="70" height="70" rx="10" fill="#5528FF"/>
<rect x="134" y="178" width="68" height="68" rx="9" stroke="#5528FF" stroke-width="2"/>
<path fill-rule="evenodd" clip-rule="evenodd" d="M166 83C166 62.5655 149.435 46 129 46C108.565 46 92 62.5655 92 83C92 103.435 108.565 120 129 120V93C129 87.4772 133.477 83 139 83H166Z" fill="#5528FF"/>
<rect x="202" y="118" width="22" height="8" fill="#5528FF"/>
<rect x="201.933" y="150.276" width="38.901" height="8" transform="rotate(45 201.933 150.276)" fill="#5528FF"/>
<rect x="164" y="178" width="22" height="8" transform="rotate(-90 164 178)" fill="#5528FF"/>
</svg>
